<svg xmlns="http://www.w3.org/2000/svg" viewBox="0 0 229.95 220.19">
    <defs>
        <style>
            .cls-1 {
                fill: #fefee9;
                stroke: #0978ab;
                stroke-linejoin: round;
                stroke-width: 1.42px;
                fill-rule: evenodd;
            }
        </style>
    </defs>
    <title>Bengkulu</title>
    <g id="Layer_2" data-name="Layer 2">
        <g id="Bengkulu">
            <path class="cls-1"
                d="M229.24,208.69a6.62,6.62,0,0,1-3.82,1.2c-1.34,0-1.56,1.8-2.91,2.69s-1.79,1.8-2.91,2-2.4,1.8-4,2.17c-1,.25-1.69,1.5-2,2.33h-.25c-.62,0-1.33.37-2,.39-1.09,0-2-1-3.15-.88-3-4.3-1.93-2.78-6.56-4.23-.3.25-1.35-.15-2.66.82l-.51-.06c-.34-.21-1-.81-1-1.26l.44-1.12a3,3,0,0,0-.1-.32c-1.09-1.73-1.59-2.91-3.71-3.31a2,2,0,0,0-1.17,0l-.18.21,0,.58-.43.38h-.44a6.53,6.53,0,0,1-2.2-2.42l.14-.44.64-.3c0-1.5-1.14-1.75-2-2.78-.57-.69-.67-1.79-1.27-2.29-.43-.35-1.16-.6-1.54-1-.09-.1-.55-1.1-.68-1.29l-.4-.4c-.37-.36-.82-.59-1.22-.92-.23-.19-.38-.56-.62-.76-.41-.35-.89-.63-1.3-1s-.66-.72-1-1-.69-.34-1-.54a12.56,12.56,0,0,1-3.18-2.86c-1.58-.25-2.46-2-4.19-1.83a9.94,9.94,0,0,0-2.38-1.32c-.81-.48-1.52-1.16-2.33-1.62-1.63-.93-4.23-1.49-5.95-2.07-.45-.15-.9-.45-1.35-.57-.14,0-.61,0-.78,0a6,6,0,0,1-3.9-2c1-2.93-4.47-6.18-6.18-7.87-.65-.64-1.16-1.59-1.84-2.17-1.11-1-2.56-1.8-3.77-2.65-2.21-1.54-2.21-2.32-3.76-3.78-1.31-1.24-6.91-4.73-8.63-5.9-.57-.39-1-1-1.57-1.38s-1-.59-1.45-.93c-.73-.57-1.32-1.23-2.08-1.79-1.73-1.25-3.57-2.29-5.32-3.5-.29-.2-.51-.49-.8-.69s-.93-.52-1.36-.82c-2-1.39-3.84-2.87-5.8-4.25a51.8,51.8,0,0,1-5.06-3.76l-.17-.56c-.67-.64-1.49-.28-2.49-1.66s-.76-3.49-1.92-5a1.83,1.83,0,0,0,1-1,3.14,3.14,0,0,0,1.92-1.8l.31-.11.15.28,0,.5c-.72,1.25-2,1.59-2.17,2l0,.34.46.5a2.46,2.46,0,0,0,1.17-.44c.39-.54,1.28-2.42,1-3.08l-1-2a4.62,4.62,0,0,0-1-1.66l0-.21c-.16-.32-.47-.42-.7-.65-1.23-1.24-.6-1-2.25-1.79-.3-.15-.49-.55-.68-.82.11-.43,1-1.06,1.35-1.26.11-2.25-1.4-3.19-2.13-5.06l.06-.29.41-.28.18-.63a33.6,33.6,0,0,0-1.87-3,13.4,13.4,0,0,0-1.18-.88c-.31-.29-.53-.71-.84-1a14.78,14.78,0,0,0-2-1.21A14.51,14.51,0,0,1,93,110.39,16.55,16.55,0,0,0,91,109.17c-1-.54-1.54-1.59-2.5-2.2-1.19-.75-2.46-1.43-3.68-2.14,0,0-.11-.14-.14-.17-1,.07-3.58-1.88-4.38-1.71-.74-.64-4.58-3-5.49-2.83l-.13-.25.21-.42-.13-.61c-1-.79-1-2-2.15-2.71-.26-.15-.6-.23-.87-.38-1.11-.6-2.1-1.36-3.17-2S66.54,92.65,65.54,92c-.17-.1-.43-.14-.56-.23a16.66,16.66,0,0,1-1.34-1c-.29-.25-.52-.63-.81-.87a44.68,44.68,0,0,0-4.06-2.76c-1.06-.67-2-1.52-3.08-2.19-.36-.23-.8-.38-1.14-.62s-.68-.64-1-.92c-1.44-1.12-2.92-2.21-4.38-3.32-.24-.18-1.6-2.09-1.84-2.42-1.86-2.49-3.37-5.48-5.71-7.52a1.86,1.86,0,0,0,.06-1.64c-.81-2.64-3.24-2.26-2.77-4.86l-.18-.38.15-.32-.16-.44c-1.13-.25-7-8.28-7.73-9.83-.59-1.3-.92-2.83-1.46-4.18l-.1-.23c-.51-1-1.09-2-1.55-3.05-.31-.69-.45-1.52-.79-2.17-.47-.91-1.32-1.64-1.73-2.6a11.26,11.26,0,0,0-.68-1.69l-.32-.48a18.93,18.93,0,0,0-3.17-2.1,29.3,29.3,0,0,0-3.81-2.08c-3-1.15-4.3-1.53-6.7-3.81a29.25,29.25,0,0,1-3.46-4.46c-.49-.69-1.09-1.31-1.56-2-.33-.48-.53-1.09-.87-1.55-.89-1.22-2.16-2.11-3.14-3.21C1.3,18.73,1,18.37.71,18l3.35-2.54,9.25-6.38a3.17,3.17,0,0,0,2-.75A10.3,10.3,0,0,1,18.18,6a6.42,6.42,0,0,0,2.25-1c.5-.5,2.89-4.25,2.89-4.25L45.2,14.84s-.26,5.87-.39,6.87a21.5,21.5,0,0,0,0,2.88,2.62,2.62,0,0,0,1.5-1.13c.5-.87-.87-1.37,1.63-1.12s2.75,1.37,4.37-.25,2.25-1.38,2.75-.63,2.38,4,3.38,4.63,3.12,4,4.62,4.75A9.22,9.22,0,0,1,66.19,33c.25.5,3.25,2.63,3.37,3.13a6,6,0,0,0,3.13,2.12,9.06,9.06,0,0,0,4.12,0c1.38-.5,3.38-1.5,4.13-.62s1.87,2.5,2.62,2.62,3.11.13,3.25,1.12h0a3.15,3.15,0,0,0,2.25,2.75c1.5.37,3.13,2.37,3.13,2.37l.12,2.63a4.17,4.17,0,0,0,1,1.37c.63.5,3.25,2,4,2.63s2.88.37,2.88,2.37a14.07,14.07,0,0,0,.62,3.88l1.13,1.75s.37,2.12,1.62,2.12,2.63.13,3.13,1,1.75,1.5,2.37,1.25,3.5-1.5,3.5-1.5a4.87,4.87,0,0,1,2.5-.12c.75.37,4.25,1.87,4.75,2.25s.75,1.75.75,1.75l1.5,1.25.38,4.37s-1.13,2.63.12,3.75.5,1.88.38,2.38a3.09,3.09,0,0,0,.75,2.37c.62.63,4.17,3.3,4.17,3.3s3.51,2.31,4,3.14,3.59,1.57,4.71,0,1.28-2.69,2.85-2.69a7.56,7.56,0,0,0,4.48-1.35c1.12-.89,3.52-1.79,4,.23s.9,2.69,2.47,2.69h4.26a16.46,16.46,0,0,1,.22,2.39c0,1.13,1.73,2,2.85,1.35s5.08-1.57,6.43-.9.89,2.47.89,3.37-1.56,8.89-1.56,8.89a6.7,6.7,0,0,1-1.95,2.62c-1.12.67-3.81,5.61-3.81,5.61s-.75,1.12-2-.68-3.07-4.33-4.19-4.93-4-3.14-3.59-.22a20.73,20.73,0,0,1,.23,4.93c0,.9.74,2.62-1.05,3.29s-4.26,2.24-4.26,4a8.94,8.94,0,0,1-1.12,3.74L139,122.35s-4.49,2.46-5.61,2.91-1.34.9,1.12,1.79,2.25.83,2.92,2,.38,2,1.95,2.69,2.24,2.24,3.13,2.69,3.59,2,3.81,3.74,1.28,1.8,2.4,2.24,3.14,1.35,3.14,1.35l2.24.45,1.5-1.12a1.64,1.64,0,0,1,2.47,0c1.12,1.34,1.79,2.08,1.12,3.36s-.9,4-1.12,5.08.67,2.18,1.34,3.07A13.8,13.8,0,0,0,163,155c.82.45,3.74,1.57,3.74,1.57l2.69,2.24a17.47,17.47,0,0,0,4.41,1.34,9.47,9.47,0,0,1,5.16,1.5c1.5,1.13,3.51,1.35,4.64,1.8a14.08,14.08,0,0,0,4,.89c.9,0,1.57-.22,2,1.13s2.91,2.69,2.91,2.69a29.85,29.85,0,0,0,4,.6,26.66,26.66,0,0,1,4.71.9l-1.8,1.12s-1.57.89-1.57,2-.45,3,.9,3.82a14,14,0,0,1,2.69,2.39s1.57,1.12.67,2.24-1.79,3.74-.89,4.87a22.08,22.08,0,0,1,1.94,3.36l1.57,1.12a18.06,18.06,0,0,1,3.59,0,17.36,17.36,0,0,0,4.86.45c1.12-.23,2.47-.61,3.59.67s1,1.27,2,1.72,3.52,4.33,4,5.83.67,1.95-.23,2.62-2.24,1.79-2.24,1.79l3.36-.22,2.92,1.12,1.5,2.92A2.48,2.48,0,0,0,229.24,208.69Z" />
        </g>
    </g>
</svg>