<svg xmlns="http://www.w3.org/2000/svg" viewBox="0 0 279.98 168.16">
    <defs>
        <style>
            .cls-1 {
                fill: #fefee9;
                stroke: #0978ab;
                stroke-linejoin: round;
                stroke-width: 1.42px;
                fill-rule: evenodd;
            }
        </style>
    </defs>
    <title>Jambi</title>
    <g id="Layer_2" data-name="Layer 2">
        <g id="Jambi">
            <path class="cls-1"
                d="M279.27,75.79l-2.22-.59A33.58,33.58,0,0,1,273.67,74c-1-.5-2.37,0-3.12.12a4.48,4.48,0,0,0-2.25,1.75,9.14,9.14,0,0,0,0,4.13c.25.62-.63,1.5-1.38,1.5s-4.12.37-4.12.37a4.48,4.48,0,0,1-3.75.5,4.13,4.13,0,0,0-3.38.25c-.62.13-3.25,1.88-4.25,2.25a25.57,25.57,0,0,1-5.25,1c-1,0-3.25-.87-3.87-.87l-8.5-.13L231.3,83c-.5-.38-2.25-.38-3.5-.25a3.33,3.33,0,0,0-2.75,3c-.25,1.75-2.5,1.37-3.25,1.37s-6.63-.25-7.88-.25a23.72,23.72,0,0,0-4.25.88s-4-.38-5.12-.5A7.69,7.69,0,0,0,200.17,89a14.7,14.7,0,0,1-2.25,2.5,13,13,0,0,1-3.75,2.12c-1.25.25-1.12,1.25-1.62,2s-.75,1.38-.25,1.75,7.87,4.75,8.5,4.88,1,2.75,1,3.25a3.38,3.38,0,0,1-1.13,2.62c-1,.75-2.62,1.88-2.37,3.13a5.27,5.27,0,0,0,2.62,3c.88.37,1,.87.5,1.37a37.16,37.16,0,0,1-3.62,2.25,15.6,15.6,0,0,1-3.88.38c-1.75-.13-1.62,3.37-1.25,4.12s.38,6,.13,6.75a5.05,5.05,0,0,0,.25,2.63c.25,1.12-.5,1.5-1.38,1s-2.5-1.13-3.12-2.25-3.75-3.63-4.5-4.38-1.38-1.12-1.5-2-.5-1-1.38-1.12-1.75-1-1.5-1.63a3.87,3.87,0,0,0-.12-1.87s-1-2.5-1.5-3.38-1.5-1-2.63-1.25a1.86,1.86,0,0,0-2.12,1.63c-.13.87-.13,1.25-.63,1.25s-2.5,2.12-2.87,2.87a3.81,3.81,0,0,0-.5,2.13c0,1,1.5,1.62,2.37,2.25s.63,2.5.63,3.37,0,1.63-.5,1.75-1.88,1-2.38,1.13a7.15,7.15,0,0,0-2.62,1.5c-.75.75-1.5-.25-3.13-.38s-2.25-.25-2.37-1-1.63-1.5-2.63-1.5-1.12.63-.75,1.13.5,1.37-.12,1.5a2.84,2.84,0,0,1-2.25-.63c-.88-.62-1.88-1.25-4.88-1.25s-2.12,0-2.5-.5-2.75-.25-2.75-.25a21.9,21.9,0,0,1-1.87,2.88c-1,1.25-1.13,1.75-.5,2.25a19.8,19.8,0,0,1,1.75,1.62c.75.75,0,1.75-.5,2.25s-2.25,2.38-2.75,3a10,10,0,0,0-1.5,3.38c0,.62-1.63,1.87-1.63,1.87s0,1.38-.5,1.75-2.37,1.63-2.87,1.88-1.13.5-2.25-.5-.63.12-.88.62-.75,1.13-1.25,1.13-1.62,1.12-2,1.62-1.25.5-1.87.5a4.74,4.74,0,0,0-1.5.38l-1.75,1.87a4.42,4.42,0,0,0,.25,2c.37.75-2.5,1.75-2.5,1.75a7.76,7.76,0,0,0-3-.75,4.23,4.23,0,0,0-3,1.38c-.5.5-.75,1-1.5.87s-4.5-.37-5.38-.62a34.29,34.29,0,0,1-3.5-1.63,8.93,8.93,0,0,1-1.37-1.75,2,2,0,0,0-2.63-.5c-.75.63-2.87-.75-3.37-1.12a3.63,3.63,0,0,0-2.25-1.13c-1.5-.25-1.25,0-2.13.88s-1.25,2.37-.87,3-.25,2.25-.25,2.25a13.3,13.3,0,0,1-3.25.62c-.75-.12-4.25,1.75-5.75,2.38s-2,2.5-2.38,3-2.5.5-2.5.5c-.12-1-2.5-1-3.25-1.12s-1.87-1.75-2.62-2.63-2.75.13-4.13.63a9.2,9.2,0,0,1-4.12,0,6.1,6.1,0,0,1-3.13-2.13c-.12-.5-3.12-2.62-3.37-3.12A9.21,9.21,0,0,0,54.42,157c-1.5-.75-3.62-4.12-4.62-4.75s-2.88-3.87-3.38-4.62-1.12-1-2.75.62-1.87.5-4.37.25-1.13.25-1.63,1.13a2.63,2.63,0,0,1-1.5,1.12,21.34,21.34,0,0,1,0-2.87c.13-1,.4-6.88.4-6.88L15.09,127.1h0s1.11-4.25.86-6.13a63.83,63.83,0,0,0-1.87-7.37c-.38-1.13-3.13-8.13-3.13-8.13a7,7,0,0,1-2.5-1.37,41.74,41.74,0,0,1-3.62-4.63l-3-5S.71,81.84.71,80.71,1.34,76.59,3.09,78s2.25.38,2.5-.37,1.25-1.13,1.87.5a2.23,2.23,0,0,0,3.38,1.37,8,8,0,0,1,3.75-1c1.12,0,3.37,0,3.75-.5s3.25,0,4.5-.5,1.75-1.12,2.5-.25,3,.88,4.12.88,2,0,2.38-1.5,1.62-4.5,3.25-5.38,3.37-3.12,4-3.25a8.55,8.55,0,0,0,3.25-2.12c.5-.75,1.25-1.75,1.87-1.75a7.35,7.35,0,0,0,2.75-1,7.71,7.71,0,0,0,1.5-2.38c.25-.62.5-2.25,1.25-2.62s1.13-2,.13-2.13a1.53,1.53,0,0,1-1.5-1c-.38-.62-.5-1.37.25-1.62s1.75-2.5,1-3.63A21.69,21.69,0,0,1,48,45.84L48.34,44s1.5-1.37,1.5-2,1.5-1.62,2.62-1.62a4.67,4.67,0,0,0,2.63-1,3.55,3.55,0,0,1,2-.38,3.16,3.16,0,0,0,2-.62c.62-.5,2.75-2.63,2.75-2.63a4.31,4.31,0,0,1,.62-2.62,5.53,5.53,0,0,0,1.5-2.5c0-.63-.12-1.5-.87-.88a1.81,1.81,0,0,1-2,.5c-.75-.25-2.5-1-2-2a4.78,4.78,0,0,0,0-3.25,17.24,17.24,0,0,1-.63-2.37l0-3.26a10.45,10.45,0,0,0,2.23.26,1.87,1.87,0,0,1,1.5-.75c1,0,3.38-.88,3.63-1.75s1-3.5,2.62-3.38,1.75-.62,3.88-1.87,2.75-1,3.37-.38,1.25,1.38,2,1.13A1.8,1.8,0,0,1,80,13c1,.88,4.25,2.38,4.75,1.38s1.13-1.25,2.63-.63S89,14.46,89,15.34s1.75,2.25,2.75,2.12,1.38-1.37,2.13-1.62,2.37-.88,3-1.13a2.07,2.07,0,0,1,2.25,1,10.83,10.83,0,0,0,1.12,2.13,1.86,1.86,0,0,0,1.63.5,5.48,5.48,0,0,1,2.62,1.25c.88.62,1.88,1.12,1.25,1.87s-1.75,1.25-1.12,1.75a3.55,3.55,0,0,0,3,.5c1.5-.25,2.12-.12,2.62.38s1.5,1.12,1.75,2.25,1.88,2.37,2.63,2a4.82,4.82,0,0,1,3.5.12,15.9,15.9,0,0,0,4.37.63c.88,0,1.25-.25,1.88.62s1.12,1.38,2.37.88a9.78,9.78,0,0,0,3.13-1.88,5,5,0,0,1,2.87-1.87c1.25-.13,2.88-2.13,2.88-2.13a10,10,0,0,1,1.75-3,17.68,17.68,0,0,1,2.87-2.5c1-.5,3.13-2.37,3.75-2.62a39,39,0,0,0,5.25-4c.5-.63,2.63-4.25,3.13-4.88s4-6.87,4-6.87,8.37-.13,9.37-.13a38,38,0,0,1,4.38.75s14,2.63,14.75,2.75,1,.5,2.12,0l3.63-1.62,3.47-1.19a6.77,6.77,0,0,1,.71.26c1,.43.94,2,.81,2.86,1.66,1,3.41,1.66,5.07,2.69,0,.8.75,1.26.64,2.09l-.21.2a4.72,4.72,0,0,1,1.62,1.73l-.09.72a3.45,3.45,0,0,0,1.43-.47c.79-.06,1.2,1.69,1.3,2.17a3.23,3.23,0,0,1,1.83,1.16l.66-.06c.19.05.39.34.46.5l.88.34.23.38.64-.07,1.47,2c2.32-.48,1.72-.29,3.16.57.37.22,1,.29,1.3.62.44.51.6,1,1.34,1.19a1.89,1.89,0,0,1,0,1.08l.49.89c.07-.24.36-1.08.63-1.17l1.17.17.17-.12.34.42,1.18.43c1-.6,4.11.05,4.94.13a4.59,4.59,0,0,0,1.42-.33,6.5,6.5,0,0,0,1.24-.3,8.42,8.42,0,0,0,1.25-.75c3.61-1.05,4,.62,6-.14.54.09.88.49,1.34.72,1,.5,1,.19,1.65.29a9.5,9.5,0,0,1,2.61,1.19c.89-.31,2.67,1.49,3.89,1.63.94.1,2-.32,2.93.17l.55.85c1.66,0,4.31-.39,5.74.92l.29.52,1.62-.24c1.37-.21,2.59-1.21,3.92-1.28,1.62-.08,3,.23,4.55-.45l.47.09.22.23.7-.6.88-.14a3.09,3.09,0,0,0,1-1.44l.89.47,1.19,2.05c.23.41-.22,2.73.52,3.77.3.41,1.61,2.09,1.48,2.66-.07.3-.28.6-.34.91s.1.59-.08,1a14.93,14.93,0,0,0-1.4,4.13c0,.08.3,1,.32,1.14s0,.75.05.8c.67,1.38,1.3,2.91,2.07,4.23.5.87,2.25,2.27,2.28,3.37l-.22.41a4.63,4.63,0,0,1,.53,3.2l-.23.24.57,1.37c-.22.55.26,1.38,0,2-.15.38-.43.73-.57,1.11a14.16,14.16,0,0,0-.83,4.4c0,.46.42.86.36,1.4L275.8,64a11.33,11.33,0,0,0,0,3.29l-.1.26a6.05,6.05,0,0,1,.53,1.9l.27.12-.13.49a16.82,16.82,0,0,0,1.76,4.38c.21.35.61.5.82.81A3.13,3.13,0,0,1,279.27,75.79Z" />
        </g>
    </g>
</svg>