<svg xmlns="http://www.w3.org/2000/svg" viewBox="0 0 193.45 184.65">
    <defs>
        <style>
            .cls-1 {
                fill: #fefee9;
                stroke: #0978ab;
                stroke-linejoin: round;
                stroke-width: 1.42px;
                fill-rule: evenodd;
            }
        </style>
    </defs>
    <title>Lampung</title>
    <g id="Layer_2" data-name="Layer 2">
        <g id="Lampung">
            <path class="cls-1"
                d="M191,98.12a27.45,27.45,0,0,1,1.36,2.43l-.06.19a2.55,2.55,0,0,1-.89.51c-.25.77-1.76.68-2.41,2.44-.1.3,0,.73-.13,1-.26.77-1,1.5-1.1,2.34a34.53,34.53,0,0,0-.14,8.5,12.14,12.14,0,0,0,.39,1.25,27.28,27.28,0,0,1-.24,3.1c0,.33.2.73.19,1,0,1.21-.16,2.47-.13,3.67,0,.75.57,1.9,0,2.61a12.78,12.78,0,0,0-2.8,4.53,3.47,3.47,0,0,0-.12.51,37.69,37.69,0,0,0-.27,6c0,.51.27,1,.34,1.54s-.08,1.33,0,2c.05.37.21.74.25,1.14a2.85,2.85,0,0,1,0,.4c-.1.94-.12,2-.31,3-.37,1.7-1.69,3.91-1,5.7,2.45,1.92.48,3.66,1.14,4.84-.49.86-.19,1.08-.26,1.69a1.22,1.22,0,0,1-.09.27c-.13.36-.39.69-.5,1s-.16.91-.28,1.34c-.43,1.5-1.47,2.78-2,4.27,0,.5.5.88.61,1.32a10.34,10.34,0,0,1-.27,3.87c0,.27.28.71.46.87a2,2,0,0,0-.84.9l-.17,0a1.37,1.37,0,0,1-.44.8l0,.34-.34.23-.1.3.17.4-.33.78-.44.19c0,.64-.47.8-.74,1.22-.62,1-.43,1.66-1.82,2.08-.24.3-.73,1.19-.61,1.61l-.19.16h-.58l-.2.11L176,181l-.19-.33a4.27,4.27,0,0,0,.38-2c-.32-1.26-.31-2.77-1.9-2.93a1.4,1.4,0,0,0-1,.14l-.28-.28h-.27l-.32-.51-.44.07-.32-.23c-.58,0-1.21-.14-1.78-.11s-1,.44-1.53-.13c-1.62.32-1.7-.86-2.2-.89a1.79,1.79,0,0,1-.34-.86l-.63-.39a2,2,0,0,1-.17-1.45l-.38-.66c.23-.83-.18-2.67.64-3.2l0-.93c-.13-.19-3-3.45-3-3.7l.63-.52-.08-.42.15-.36.21-.11-.32-.36-.36.17-.21.64-.46-.07-.15-.23.06-.27-.12-.24-.21-.08-.3.19c-.12.35-.5,1.86-.85,2a1.36,1.36,0,0,0-.92-.23l-.13-.24.13-.27-.24-.07-.65-1a2.43,2.43,0,0,1-1.78-.8,1.44,1.44,0,0,1-.79-.41l-.24.07-.31-.1.14-.38-.07-.17-.79,0-.72-.48-.15-.39-.25-.19c-1.62.18-2.4-1.19-2.88-1.18a19.17,19.17,0,0,0-2.67-3.07l.13-.33c-.23-.81-1.06-1.26-1.16-1.8l.16-.63c-.29-.84-2.26-3.71-3-3.92a10.54,10.54,0,0,0-1-1.81c-.12-.14-.32-.32-.34-.52l.15-.61-1-1.33c-.25-.34-.81-.16-1.17-.51a5,5,0,0,0-1.6.4c-.28.56-.61.54-1,.83,0,.2-.26.63-.48.71-.13.33.44,2.17.18,2.68l.95,1.63V149l-.52,0-.4.24-.4-.93h-.19l-.12.36.21.45,0,.44.19.11c-.2.19-.16.53-.17.78l-.17.14.39.41.51-.53h.17l0,.17-.47.54a2.09,2.09,0,0,1-.44,1.38c-.08-.13-.33-.41-.5-.4l-.24.24-.07.27.31.21h.44l-.05.37-.6.25.59.2-.18.44h-.44l-.68.42h-.28c-1-1-1.78-1.8-2.91-.28-.37.19-1.31-.17-1.71-.33l-.19.08-.09.42.23.46-.1.74a3.17,3.17,0,0,0,.74,1l.35.07c.15.14.73.68.72.91l-.12.18.27.43a2.59,2.59,0,0,0-.4,1.06l.25.1a1.94,1.94,0,0,0,.85-.62h.18l.33.28-.17.46a4.72,4.72,0,0,1-2.35,1.27l0,.21,1.1.7.12.57-.63.1.17.28.42.19-.19.38.21.19,0,.4a.75.75,0,0,0,.44.12l.49-.23.35.38.66.06.36,1a1.29,1.29,0,0,1-.7.68l-.18,0-.09-.4-.53-.3a1.69,1.69,0,0,0-1.23.45l-.46-.21-.28.21-.4,1.05a2.58,2.58,0,0,0-1.1,1h-.23l-.3.21.77.47.19.43-.22.54.09.25,1.05.47c.15-.24.57-.68.89-.7a2.26,2.26,0,0,1,1.3.44l.17-.07.13-.27.52,0,.69.74-.21.89-.21,0-.19-.24-.91,0-.07.19.19.28c0,.17-.33.6-.43.72a5.39,5.39,0,0,1-2.29.37l-.3.25-1.31,0-.14-.31L129,172l-.31.1-.24-.16-.47.15-.07-.17.31-.24-.23-.4-.32,0-.17.19-.31,0-.31.24.21-.38c0-.18.36-.59.48-.7l-.36-.45a4.33,4.33,0,0,0-1.08-.15c-.58.19-.78,1.17-1.61,1.51l-.31-.12.1-.28.35-.2-.11-.48.1-.25.48-.37.62,0,.06-.17-.18-.22-.66,0-.35.37-.3,0-.11-.19.15-.28.4-.16,0-.3-.51-.17a1,1,0,0,0-.35-.67l-.7.12-.2.23-.36.07-.28.59-.34,0-.11-.9a1.48,1.48,0,0,0-.93-.44l-.39.27-.35-.29c-.14.11-.62,0-.76-.07l-.31.23-.17-.11,0-.28-.44-.21-.09-.19.91-.51.18-.26,0-.4-1,0a3.28,3.28,0,0,1-.69.48l-.25-.1-.14-.38-.37-.18a1.94,1.94,0,0,1-1.31.18l-.13-.17,0-.34.29-.25-.12-.21-.55.09-.36-.22-.55.17-.17-.32.08-.78-.65-.8-.23,0-.23.35.1.95-.37.2c-.47.07-.85-.55-1.66-.43l-.1-.76-.62.28-.19-.15v-.28a.88.88,0,0,0-.92-.48l-.2-.25.12-.27a1.25,1.25,0,0,0-.64-.62l-.4-1.08c-1.72.82-3.41-1.07-4.69-1.9-.61-.4-1.49-.57-1.88-1.26-.65.1-.95-.43-1.5-.66a11.91,11.91,0,0,0-1.61-.44l-.4.25-.36-.06-.21-.65c-1.11-.51-1-2.44-3.68-3.51-.41-.35-.14-1.21-.5-1.64a9.76,9.76,0,0,0-2.39-1.77c-2.92-.87-3,.4-6-1.65-.89.22-1.59-.27-2.24-.1a17.07,17.07,0,0,0-2,.87c-.35.14-.78.15-1.13.29-.64.27-1.29.67-1.91,1a1.66,1.66,0,0,0-.23.23,2.72,2.72,0,0,1-.44,1.23c1,1.05,1.57.75,2.22,2.19l-.07.74.85,1a3.09,3.09,0,0,0,.55,1.56c.59.7,1.36,1.28,2,2s1.41,1.69,2.17,2.47c.29.31.75.54,1,.86,0,.05,1.38,2.35,1.56,2.62a13.84,13.84,0,0,1,.59,1.43l-.19.39-.82.33-.11.32c0,.79.78,1.27,1.15,1.85.15.22.18.59.31.83.35.64,1,1,1.42,1.52.15.18.21.5.35.69a15,15,0,0,1,2.52,3.93l-1.33,2.28c-.3,1.41,1.76,2.18,2.4,3.39l0,.95.17.21a.92.92,0,0,1,.62.3l0,.33c-.74.72-1.92.36-2.81.39s-1.78.16-2.66.23c-.13,0-.35-.08-.49-.08a35.26,35.26,0,0,0-3.69.29,12,12,0,0,1-2.06-.16l-.75.48-.57-.23-.45-.58a2.21,2.21,0,0,1-1.19-.41l-.29-.46.09-.77c.13-.25.78-.47,1-.51l.19-.25,0-1.48s-.3-.64-.31-.67c-1.26-2.66-4.14-4.54-6.48-6.1-.63-.42-1-1.51-1.54-2l-1.28-1.05a3.68,3.68,0,0,1-.64-.53c-.47-.57-.35-1.91-2-2.64-.12-.59-.21-1.5-.78-1.86-.37-.24-5.44-3.78-6-3.62-.72-.73-3.38-1.37-3.84-2l0-.85.27-.25.21.13.21.44.43,0a1.5,1.5,0,0,0,.73-.74c1-3.48-6.07-7.63-8.28-8.35l-.15-.29,0-.42c-.12-.53-.92-1.06-1.35-1.35-.88-.59-1.84-1.37-2.77-1.86s-1.78-.6-2.6-1c-.44-.2-.72-.67-1.26-.72-.56-.65-1-2.26-1.47-2.61l-2.3-1.52a2.32,2.32,0,0,0-.55-1.08v-.25c-.33-.07-.4-.56-.57-.7a16.23,16.23,0,0,1-2.43-2l.32-.91c-.39-1.85-1.72-1.44-2.9-2.23l-.2-.49.08-.42A2.68,2.68,0,0,0,34.61,129c-2.36-2.72-4.56-2.17-6-3.68l-1.88.24c-.47,0-1.25-1.39-1.2-1.84,3.16-1.42,1.81-1.68,2.87-3.1.3-1.06-1.07-3.13-1.85-3.8-.07-.06-1.58-1-1.68-1.09-.41-.21-.95-.26-1.38-.46-.6-.27-.79-1.16-1.48-1.18a4,4,0,0,0-.92-1.23c.08-.88-1.28-1.91-1.92-2.29-.29.07-1.43-.75-2.35-.73l-.3-.24-.12-.55-.4-.31-1.21,0c-1.36,2-1.92.69-2.52-.9l.78-.57a3.81,3.81,0,0,0,.26-1.84,2.53,2.53,0,0,0-1.44-1.41A2.82,2.82,0,0,0,8,102.9c-.14.78-1.08,1.27-1.23,2.09l-.31.19c-.23,0-.8.06-1-.13l-.21-.91L5.73,103c0-.6-.64-1.33-1.11-1.6C4.44,100,1.83,99.28.71,99.28c.15-.36.86-2,2.25-2.32,1.57-.37,2.85-1.94,4-2.17s1.57-1.12,2.91-2,1.57-2.69,2.91-2.69a6.45,6.45,0,0,0,3.81-1.2,1.55,1.55,0,0,0,.84.09c1.34-.22,2.24-.67,2.69.45s.51,1.79,1.56,2.24a4.47,4.47,0,0,1,2.18,2.69c.22.9.45.9,2,1.57s4.26,1.5,4.26,1.5A7.22,7.22,0,0,0,33,98.54c1.12,0,4.48-.22,4.48-.22a2.47,2.47,0,0,1,3.29-.23,6.51,6.51,0,0,0,3.81,1.35,18.68,18.68,0,0,0,2.85.22l2.69-2s-.23-2.84,1.12-2.84,2.31-.38,2.91.9,2.62.67,2.62.67,2.92-.83,3.59,0,2.17,0,3.07-1.35a35.36,35.36,0,0,0,1.79-3.14l-1.12-3.74-2.84-2.46-.9-2.25-1.12-2.62a4.91,4.91,0,0,1,1.34-3.36c1.35-1.12,2-4.26,2-4.26l.16-4a48.35,48.35,0,0,1-1.06-5.09c0-.89-.15-3.36.9-4.71A26.71,26.71,0,0,0,65,54.57s.89-2.24,2.69-2.24a3.31,3.31,0,0,0,2.69-1.57s1.72-1.57,2.84-1.34,3.36-1.28,3.36-1.28S79.83,45,81,44.78a24.56,24.56,0,0,0,3.58-1.35,3.84,3.84,0,0,1,2.85,0,5.35,5.35,0,0,0,2.91.9H95.6c1.12,0,2.47-.22,3.36.67s2.85-1.34,4.42-1.34,3.36-2,3.36-2,3.07-2.4,4.19-2.4,1.41-2.24,4.48-2,3.29-.23,4.19-1.35,2.24-2.31,2.24-3.14,2-4,2-4,1-1.35,2-1.12,1.72-.52,1.5-1.79S128.72,21,128.72,21s-.22-2.69.9-2.69,1.34-1,1.34-1.94,1.87-2.25,2.92-2.25,2.17-.22,2.62.9,2.46-.67,2.46-.67l1.8-2.47V9.42s-.67-1.73.22-2.4a3.94,3.94,0,0,0,1.35-2.92,3.78,3.78,0,0,1,1.27-2.91c.9-.6,1.79-1.12,2,1.57s.45,3.81,1.79,3.14,2.85-1.8,4-1.57,2.46.22,2,1.57-.89,2.69.45,2.69a14,14,0,0,1,3.59.82s3.74-.44,3.07,1.13-.23,4.48.89,3.36,3.14.45,2.47,1.57.07,2.32,1.34,1.5,2.62.22,2.18,1.34a3.62,3.62,0,0,0,.89,3.59c.9.89,1.35,1.63.45,2.46s-2.24,3.52-.9,3.07,4.26-1.34,3.59-.22a2.4,2.4,0,0,0-.22,2.69c.44.89.44,1.56,1.57.44s1.72-.22,1.72-.22,1.79,1.5.9,2.62-.9,1.12.44,1.79,1.57.45,3.14.45,2-.52,1.79-1.57-.15-1.12,1.35-.67a3.56,3.56,0,0,1,2.07,1.51h0l-.38.5a8.13,8.13,0,0,0,.87,2.84c.18.27.53.46.52.82s.06.94-.18,1.19l.14.22c0,.2,0,.41-.05.61a25.4,25.4,0,0,0-.53,5.55c0,.12.11.23.12.34.11,2.14,0,4.61,1.6,6.25a9.32,9.32,0,0,1,1.59,1.61c.44,2-1.57,2-2.44,2.66a3.76,3.76,0,0,0,2.13,0c1.86-.26,2.5,2,2.64,3.34a1,1,0,0,0,.11.23l.36.08.91-.52.08.18c-1.11,2.74.23,5.25-.11,8-.11.91-.8,1.37-1.26,2.07a3.35,3.35,0,0,0-.34,1.63l-.11,1.83.89,2.86c0,.08.91,1.07,1,1.21l.63-.33.26.17.08.35a4.69,4.69,0,0,1-1,1.44,2.34,2.34,0,0,0-1.23-.13l-.19-.15a10.92,10.92,0,0,1-2.64.15l0,.27.19.21,1.31.09.31.63a36.93,36.93,0,0,1-1.29,4.11c0,.06.07.5.06.61,0,.46-.21.94-.23,1.4-.08,2.28.63,8.76,1.86,10.75C190.23,97.69,190.92,98,191,98.12Z" />
        </g>
    </g>
</svg>