<svg xmlns="http://www.w3.org/2000/svg" viewBox="0 0 311.85 301.38">
    <defs>
        <style>
            .cls-1 {
                fill: #fefee9;
                stroke: #0978ab;
                stroke-linejoin: round;
                stroke-width: 1.42px;
                fill-rule: evenodd;
            }
        </style>
    </defs>
    <title>Riau</title>
    <g id="Layer_2" data-name="Layer 2">
        <g id="Riau">
            <path class="cls-1"
                d="M311.14,208.12l-.63.36V209a5.89,5.89,0,0,1-2.52.32l-.58.4c-2.24-.65-6.13,1.68-8.91.74l-.6.23c0,.52,1,1.67,1.38,2a.85.85,0,0,1-.46.47l-1.58-1.16-.62-1.57-.47.17c0,1,.77,1.73,1.07,2.69a2.81,2.81,0,0,1-2.47-.93c-.07-.09-.14-.41-.21-.48-.36-.37-1.09-.64-1.26-1.19l-.85.31-.23-.06c.8,1.42.94,2.61-.72,3.44.34,1.36.27,1.72,1.45,2.51l-.07.29-2.74,1.51c-1.59,1.4-5.07-.28-7,.35a4.57,4.57,0,0,1,2,1.28l.23.88-.3.94a6.76,6.76,0,0,1-2.47.94l-1.15,1.25-.27,2.45a14.37,14.37,0,0,1,5.58-.55c.69.27,1.41.73,2.07,1.07a1,1,0,0,0,.25,0,8.92,8.92,0,0,1,3,.48l.31-.12.64.4c1-.13,1.91.36,2.85.1l.45.36.06.32-.43.86a21,21,0,0,0,3,1.06c.11,0,.39-.08.51-.05a15.77,15.77,0,0,1,1.6.53l1.15-.26.62.19a24.16,24.16,0,0,0,3.49,2.85,3.8,3.8,0,0,1,1.6,3.21l-.09.17a3,3,0,0,1-2.65.28,19.76,19.76,0,0,1-4.08.63,29.53,29.53,0,0,1-3.77,1.81s-.13.19-.18.21a7.49,7.49,0,0,0-2.59,1.15l-.4,0-.49-.51-1.55-.2-.07,2.21,1.39,1a4.39,4.39,0,0,1-.32,1.92l-.7.53-.17,0-.35.32a27.08,27.08,0,0,1-2.16,2c-.33.24-1.19.31-1.4.72l-.12.5a3.19,3.19,0,0,1-1.65.58l-.38-.31-.26.73-.46.22c-.26,0-1.92-.42-2-.38l-.61.44a1.19,1.19,0,0,1-1.13,0,7.34,7.34,0,0,1-3.16.91c.32,3.26.5,4.75-2,7.06l-.2,0c.27.19,1,.77,1.14,1.1.1,1-1.68,1.88-2.35,2.72l.83.22a2.57,2.57,0,0,1,.4,1.26l-1.26,2.63.11.21a5.91,5.91,0,0,0,.22,1.71,2.63,2.63,0,0,0,1.34.67l.34.36c.74.35,1.47,0,2.17.15a3.15,3.15,0,0,1,.56.26,22.78,22.78,0,0,0,2.35.83l-3.47,1.19L275,274.09c-1.12.5-1.37.13-2.12,0s-14.75-2.75-14.75-2.75a38,38,0,0,0-4.38-.75c-1,0-9.37.13-9.37.13s-3.5,6.25-4,6.87-2.63,4.25-3.13,4.88a39,39,0,0,1-5.25,4c-.62.25-2.75,2.12-3.75,2.62a17.68,17.68,0,0,0-2.87,2.5,10,10,0,0,0-1.75,3s-1.63,2-2.88,2.13a5,5,0,0,0-2.87,1.87,9.78,9.78,0,0,1-3.13,1.88c-1.25.5-1.75,0-2.37-.88s-1-.62-1.88-.62a15.9,15.9,0,0,1-4.37-.63,4.82,4.82,0,0,0-3.5-.12c-.75.37-2.38-.88-2.63-2s-1.25-1.75-1.75-2.25-1.12-.63-2.62-.38a3.55,3.55,0,0,1-3-.5c-.63-.5.5-1,1.12-1.75s-.37-1.25-1.25-1.87a5.48,5.48,0,0,0-2.62-1.25,1.86,1.86,0,0,1-1.63-.5,10.83,10.83,0,0,1-1.12-2.13,2.07,2.07,0,0,0-2.25-1c-.63.25-2.25.88-3,1.13s-1.13,1.5-2.13,1.62-2.75-1.25-2.75-2.12-.12-1-1.62-1.63-2.13-.37-2.63.63-3.75-.5-4.75-1.38a1.8,1.8,0,0,0-2.25-.37c-.75.25-1.37-.5-2-1.13s-1.25-.87-3.37.38-2.25,2-3.88,1.87-2.37,2.5-2.62,3.38-2.63,1.75-3.63,1.75a1.88,1.88,0,0,0-1.5.75,7.27,7.27,0,0,1-3.12-.63c-.88-.62-1.13-.5-1.63-.37a12.29,12.29,0,0,1-2.12,0c-.88,0-1.38,0-1.63-.88s-1.37-.37-3.5-.62a5.61,5.61,0,0,1-4-2.25c-.25-.63-3-3.25-3.5-4.25a8,8,0,0,0-2.12-2.13,2.86,2.86,0,0,1-2-1.12c-.63-1-1.38-1.13-2.63-1.5s-2.12,0-2.5-.63-.87-1.5-1.5-1.75a23.42,23.42,0,0,1-3.12-2.12c-1-.75-1.38-1.38-2.38-1.38s-1.25,0-.5-1-1.25-2.5-2.75-2.62-2-1.63-1-2.38-.25-.87-1.5-.87-2.25-1.13-3-2-1.37-.5-2.75-.5-1.25-.13-2-1.38a5.69,5.69,0,0,0-3.62-2.5c-1,0-1.5-1.5-1.88-2.12a5.61,5.61,0,0,0-3-2.13c-1.25-.25-1.12-.12-1.75-1s-1.25-1-2.87-1-1.5-.25-1.75-.75a41,41,0,0,1-2.13-4,7,7,0,0,0-.62-2.87c-.63-1-.75-1.5.62-2.38s-.37-3-1.62-4.12a4.19,4.19,0,0,0-3.63-1,11.28,11.28,0,0,1-2.5-.25c-.5,0-1.5-.13-1.5,2.5s-1.5,2.12-2.37.87a3.85,3.85,0,0,0-3.5-1.5c-1.38,0-1.63-1.5-1.5-2.87s-.38-2-1.75-2.38-1-.62-1.25-1.62-.75-1.13-1.63-1.75-1-1.13-.87-2.63a4.15,4.15,0,0,0-.75-3.25c-.75-1.12-.5-2.5-1-4a10.47,10.47,0,0,1-.63-3.87c0-1.5-1.25-2.88-.25-3.5s.75-2.25,2.75-1,3.5.62,3.75.12a7.64,7.64,0,0,1,1.38-1.87c.62-.63,1.25-2.5.75-3.25a29.88,29.88,0,0,1-2-2.5c-.25-.63-.63-1.75-1.13-1.88l-2.5-.62a2.62,2.62,0,0,1-.25-2.37c.5-1.38.75-2.63,1.38-2.88s1.87-1.25,1.87-2a5.19,5.19,0,0,0-.62-2.37c-.38-.63.12-1.75-1.25-1.75s-2.13-.13-2.38.5-.87.75-1.75.87a5.17,5.17,0,0,0-2.12,1.25c-.5.38-1.63,1.38-1.63,1.38s-2.87.87-3.37,0a18.27,18.27,0,0,0-2.13-2.25c-.37-.5-1.5-1.88-1.5-1.88a2.17,2.17,0,0,1-.62-1.25,6.92,6.92,0,0,0-1.13-2.62c-.37-.5-.75-.63-1.75-.63s-1.62,0-2-.62a2.17,2.17,0,0,0-2-.88c-.87,0-1.5.13-2.12-.37a15.25,15.25,0,0,1-1.88-2.63,4.07,4.07,0,0,1-.5-1.75c0-.87-.5-2-.37-2.75s.62-2-.25-2.25a4.79,4.79,0,0,0-2-.37c-1.13,0-1.5-.13-2.13.37S28,175,28,175l-1.25,1a19,19,0,0,0-2.75.5c-.62.25-1.37.63-1.62,0a5.78,5.78,0,0,0-1.13-2.12,14.93,14.93,0,0,0-1.87-1.5c-.5-.38-.75-.75-1.25-.88s-2-1.37-1.75-2.62.37-1.5.5-2.13.25-2-.5-2.37-1.75-1.5-.63-2.13,2-1.87.5-2.37A12,12,0,0,1,13.54,159l-.87-2s-.38-1.12.37-1.62a28.49,28.49,0,0,0,3-3.5l1.75-2.38s.25-1.62.25-2.12a4,4,0,0,0-.5-1.38l-1.62-.5c-.84-.35-3.07.32-3.25.38-.2-.22-2.42-2.53-3.25-3.25s-3-1-2.88-2.5,1.13-1.88,1.13-2.75.12-3.88.12-3.88a5.86,5.86,0,0,1-2.37-.25c-.63-.37-1.38-.62-.25-1.25A9.25,9.25,0,0,0,7,130.6s-.75-2.88,1-2.88a12,12,0,0,0,3.5-.62,16.16,16.16,0,0,1-2.87-1.5,18.85,18.85,0,0,1-1.38-1.75L6.92,121l-1.5-.25s-1.13-2.37.37-2.87,2.75-1.63,3.25-1.63a14.1,14.1,0,0,0,1.75-.25A17.16,17.16,0,0,0,9,113c-.62-.62-1.75-1.75-2.12-2.25s-1.25-3.25-1-4.12a5.18,5.18,0,0,0-.63-3.13A18.4,18.4,0,0,1,4,99.72C4,99.1,3.67,98,3,98a1.86,1.86,0,0,1-2-1.12C.54,95.72.42,94.1,2,94s5.75-.12,6.75-.12a25.43,25.43,0,0,0,3.63-.63,1,1,0,0,1,1.37.13c.63.75,2.25-.13,2.88-.75a3.65,3.65,0,0,1,3.12-1,25.05,25.05,0,0,0,3.75-.38c.63-.25.88-1-.37-1.5A10.93,10.93,0,0,1,20.54,88s.38-1.75,1.25-1.62,1.38.12,1.63.87a2.34,2.34,0,0,0,1.87,1.38,9,9,0,0,0,3-.5c.75-.38,2.5-1.88,3.25-2.38a2.29,2.29,0,0,0,.38-2.62c-.38-.63-1.5-3.38-1.75-3.88s.62-4.12,1.75-4.25,2.12-.5,1.62-1.37-1.25-1.25-.5-2.13.63-1.75-.12-2-2.5-.62-2.75-1.5-.63-2,.12-2.62a2.17,2.17,0,0,0,.88-2.25c-.25-.75-.75-2.25-1.63-2.13s-2.87.13-2.87.13-5.75-1.63-6.25-1.75-.38-.63-.5-1.38a22.29,22.29,0,0,1,0-3l2-3.25s.75-4.25.75-4.87.37-3.63.87-4.13a3.28,3.28,0,0,0,.75-2.62,7.55,7.55,0,0,1,.5-4,5,5,0,0,0,.5-2.88A11.2,11.2,0,0,1,26,29.1a8.49,8.49,0,0,0-.37-6c-1-1.88-1.63-5.38-1.88-6S22.17,13.72,22.17,13,22,9.22,22,8.22a9.54,9.54,0,0,1,.63-4.12A14,14,0,0,0,23.52.71c.06.78.58,1.25.87,1.9a10.36,10.36,0,0,1,.79,2.25c.26,1.67,0,2.24,1.06,3.68-.4,2,.71,3.17,1.71,4.84a19.21,19.21,0,0,1,1.11,3c.23.64,1,1,1.42,1.49.61.8,1,1.83,1.64,2.62a18.22,18.22,0,0,0,1.75,1.64c.18.17.24.57.42.74.56.55,3.29,3,3.37,3.62,2.32,1,3.77,3.34,6,4.53a19.73,19.73,0,0,0,3.23.87c.92.3,1.87.79,2.77,1.18l.1.17-.21.8.19.44a3.84,3.84,0,0,1,.55-1.43l2.21.21c.24,0,3,2.15,3.68,2.48,1.72.92,4.76,1.1,6.07,2.7,1,1.18,1.93,2.42,2.95,3.57.53.61,1.3,1.14,1.79,1.78a23.68,23.68,0,0,1,1.42,2.45,2.73,2.73,0,0,1,.23.4,16.46,16.46,0,0,1,1,3.88c.1.44.37.93.43,1.37.14,1.11-1.17,2.43,1.22,3.21l.28.47,1.61.66a3.85,3.85,0,0,0,1.36-.95,2.77,2.77,0,0,0-1.32-2.79c-.23,0-.81,0-1-.23-.36-.36-.55-2.32-.64-2.86,0-.11-.67-1-.73-1.22-.16-.52-.17-1.12-.32-1.65s-.47-1.13-.58-1.69c-.22-1.16-.17-2.31-.45-3.49a5.51,5.51,0,0,0-.43-1.3c-.37-.68-1.06-.84-1.53-1.36a18,18,0,0,0-2.22-2.42c-1.16-.9-2.51-1.21-3.49-2.34a36.92,36.92,0,0,1-1-4.05c0-.38.28-1.42.12-1.77-.33-.75-1.8-2.59-1.18-3.52,1.69-.84,2.51-4.61,6-5s6.77-.79,10.13-.9c.76,0,1.88.5,3.14.49l.23.19c.91,0,2.12.26,2.94-.26l.4.05L84,20.4a4.85,4.85,0,0,0,0,2.11c.11.3.42.57.53.86a9.26,9.26,0,0,0,1,2.55c1.26.4,3.57,2.7,4.56,3.59l0,.22c.68.63,3.69,2.81,4,3.47a2.86,2.86,0,0,1,1.32.72,27.13,27.13,0,0,0,5.06,2.44,5.43,5.43,0,0,1,1.5,1c0,.41.39.81.61,1.1,3,2,1.6,2.18,3.29,4.84,0,.31-.25,1.62-.25,1.73a12.09,12.09,0,0,0,.4,1.35c.18,1.07.06,2.12.3,3.23a1.9,1.9,0,0,1,0,1l.3.68a17.46,17.46,0,0,1,1.1,3c.09.39,0,.91.21,1.26.42.55,1.07,1,1.13,1.73,0,.05,0,.39,0,.42-1,2.82-.78,3.77.78,6.31.17.27.51.49.68.76a8.29,8.29,0,0,0,1.15,1.92c.47,1,.75,1,1.57,1.61,2.51,1.78,3.49.16,6.12,1.53.49.26,1,1.27,1.45,1.55A13.19,13.19,0,0,0,124.68,73a14.83,14.83,0,0,0,5.1-.31c.7-.28,1.32-.86,2-1.14s1.87-.34,2.5-.88c.48.09.88-.21,1.32-.24s.89.14,1.29.08A15.16,15.16,0,0,0,138.7,70l1.3.33c.09,0,.63-.08.72,0,1.15.29,1.33.84,2.15,1.48a8,8,0,0,0,1.06.63s.17.09.2.12a20,20,0,0,0,4,3.76c.43.26.7.91,1.21,1.22a12.16,12.16,0,0,1,1.36.65c.23.2.41.56.65.74s.82.39,1.17.63.54.62.85.82a43.42,43.42,0,0,1,6.06,5.21,41.78,41.78,0,0,0,7.38,5.84c1.22.72,2.53,1.53,3.79,2.14,1.85.89,4.71,1,4.35,3.93l-.78,6.29c0,.18,1,3.22,1.09,3.44l1,.42.11-.32.27-.08,1,.81c0,.26.29.49.45.67,1.8,2,.7,4.37.06,6.59a14,14,0,0,0-.58,3.11,16.15,16.15,0,0,0,1.08,3.48c.37.77.93,1.53,1.24,2.32a10.73,10.73,0,0,1,.28,1.52c0,.07.41.72.46.82a1.11,1.11,0,0,1,.62.46,11,11,0,0,0,3.8,3.85c1.81.94,1.32.12,2.58,1.81,0,0,2.17,1.52,2.37,1.66s.53,1.14.64,1.28c.41.53,1,1,1.39,1.5,2.47,3.16,1.68,3,5,5.63a2.65,2.65,0,0,0,.26.21c.53.28,1.1.55,1.62.86.13.07.4.37.51.42s1.12.28,1.26.37c.52.32.94.95,1.47,1.29a14.43,14.43,0,0,0,1.82.86h.51l.26.24a5.51,5.51,0,0,0,1.72,0l.26.18c.84-.14,1.9.71,2.87.75l.07-.17c.66-.19,1.36.23,1.95.14a19.11,19.11,0,0,0,2.45-.83,15.16,15.16,0,0,1,2.93-.46c.08,0,.23-.15.3-.15a12.68,12.68,0,0,1,4.67.7c2.14,1,1.71,1.31,4.22,1.35.07,0,.26-.14.34-.15a43.58,43.58,0,0,1,5.34-.71c2.07.09,2.82.16,4.54,1.53l1.22,1c.47.51.78,1.32,1.21,1.88s.94.87,1.33,1.36c.55.7,1.1,1.49,1.7,2.15s1.48,1.3,2.15,2c.37.39.59,1,.95,1.41a11.48,11.48,0,0,1,1.58,1.86,4.14,4.14,0,0,1,.31,1.32l1.12,2.68a1.58,1.58,0,0,1,.26.13c.31.35.63.77,1,1.09.61.57,1.5.6,2.2,1,1.21.62,1.84,2.87,2,4l-.28.67-.53.26-.29,0c-.8.42-1.62.49-2.41.84-1,.44-2,1.07-2.91,1.58l-.28.19c-.7.48-2.81,2.2-3.66,2.09a1.6,1.6,0,0,1-.16.19c-.89.45-2,.61-2.76,1.05-1.94,1-1.46,2.49-3.84,3.23a3.17,3.17,0,0,1-1.44.14,11.27,11.27,0,0,0-2.32,1l-.23,0c-.37.15-2,.66-2.18.75a10.8,10.8,0,0,0-1.4.71c-1.56,1.13-2,2-3.88,2.7a1.5,1.5,0,0,1-.3,0,11.53,11.53,0,0,1-2.79,1.26c-.27.1-.77-.06-1,.07-.59.27-1.19.67-1.76,1a1.57,1.57,0,0,0-.15.19l.26,1.86c.37.27,3.15-.15,3.68-.31,1.18-.36,2.37-1,3.66-1.39,1.26-2.24,3.06-1.15,4.92-.45,1.3-.15,3.17-1.44,4.3-2.09.1-.05.26-.34.35-.37,1-.39,2-.73,2.9-1.19.37-.18.72-.46,1.1-.62.15-.06.45,0,.6-.09s.54-.39.82-.53.52-.11.71-.22a19.79,19.79,0,0,0,3.69-3.14,1.06,1.06,0,0,1,.75-.22c.66-.46,1.3-.93,1.95-1.4l.29.06c1.24-1.63,5-1.55,6.81-2.13,1.13-.36,3.19-2.67,3.62-3.8A25.37,25.37,0,0,0,260,170c.1-.41,1.24-.92,1.57-1.09a18,18,0,0,0,2.12-.79c.34-.21.63-.54,1-.76a4.79,4.79,0,0,1,3.38-.19,7.28,7.28,0,0,0,2.14-1.64c.28-.32,1.1-2.3,1.81-2,1.67.74,5.22.5,6.48,1.51a12.16,12.16,0,0,1,1,1c1.06.81,2.07,1.51,3,2.28s1.94,1.93,3.07,2.77a17.81,17.81,0,0,0,2,.88c.12.06.19.21.31.27s.71.21.79.27c.77.6,1.4,1.44,2.17,2s1.5.62,2,1.34a12.38,12.38,0,0,1,1.38,3.74,6.26,6.26,0,0,0,1.24.24,7.85,7.85,0,0,0,.8.32l.35.07c.21,0,1.31-.06,1.42,0,1.43.32,2.78,1.74,3.87,2.64.09.07.11.23.2.3,3.45,3,4.25,4.5,5.88,9a2.15,2.15,0,0,1-.14,1c0,.43.06.93.07,1.28,0,.73.18,1.21.23,1.81.07.78-.06,1.6.08,2.37.07.38.26.78.3,1.15s-.11.94,0,1.34c0,.17,1.39,4.58,1.39,4.58C310.09,206.48,310.79,207.28,311.14,208.12Z" />
        </g>
    </g>
</svg>