<svg xmlns="http://www.w3.org/2000/svg" viewBox="0 0 223.83 340.67">
    <defs>
        <style>
            .cls-1 {
                fill: #fefee9;
                stroke: #0978ab;
                stroke-linejoin: round;
                stroke-width: 1.42px;
                fill-rule: evenodd;
            }
        </style>
    </defs>
    <title>Sumatera Utara</title>
    <g id="Layer_2" data-name="Layer 2">
        <g id="Sumatera_Utara" data-name="Sumatera Utara">
            <path class="cls-1"
                d="M219.62,228.91c.25.5,1.37,3.25,1.75,3.88a2.29,2.29,0,0,1-.38,2.62c-.75.5-2.5,2-3.25,2.38a9,9,0,0,1-3,.5,2.34,2.34,0,0,1-1.87-1.38c-.25-.75-.75-.75-1.63-.87s-1.25,1.62-1.25,1.62a10.93,10.93,0,0,0,2.63,1.75c1.25.5,1,1.25.37,1.5a25.05,25.05,0,0,1-3.75.38,3.65,3.65,0,0,0-3.12,1c-.63.62-2.25,1.5-2.88.75a1,1,0,0,0-1.37-.13,25.43,25.43,0,0,1-3.63.63c-1,0-5.12,0-6.75.12s-1.5,1.75-1,2.88a1.86,1.86,0,0,0,2,1.12c.63,0,1,1.13,1,1.75a18.4,18.4,0,0,0,1.25,3.75,5.18,5.18,0,0,1,.63,3.13c-.25.87.62,3.62,1,4.12s1.5,1.63,2.12,2.25a17.16,17.16,0,0,1,1.75,3,14.1,14.1,0,0,1-1.75.25c-.5,0-1.75,1.13-3.25,1.63s-.37,2.87-.37,2.87l1.5.25.37,2.88a18.85,18.85,0,0,0,1.38,1.75,16.16,16.16,0,0,0,2.87,1.5,12,12,0,0,1-3.5.62c-1.75,0-1,2.88-1,2.88a9.25,9.25,0,0,1-1.87,1.37c-1.13.63-.38.88.25,1.25a5.86,5.86,0,0,0,2.37.25s-.12,3-.12,3.88-1,1.25-1.13,2.75,2,1.75,2.88,2.5,3,3,3.25,3.25l-1.75-.25a15.55,15.55,0,0,1-3-1.5c-1-.75-6.5-2.25-6.5-2.25a10.9,10.9,0,0,0-2.38-2A21.79,21.79,0,0,0,185,288c-1.12-.25-1.62-1.38-2-2.13a3.24,3.24,0,0,0-2-1.37,16.71,16.71,0,0,0-3.12-.25l-2.5-.88-2.88,2a28.13,28.13,0,0,0,.5,2.88c.25.87,0,1.37.38,2.12s0,3,.25,3.63-.13,1.5-1.13,2.12-.12,3,.13,3.5a20.29,20.29,0,0,0,1.5,2s3.75.38,4.62.5.88,2.38.88,3.38a11.73,11.73,0,0,0,.5,2.62,36.59,36.59,0,0,0,2.62,3.25c.5.38.25,2.25.25,3a1.62,1.62,0,0,1-1,1.63,29.61,29.61,0,0,0-3.5,3.62,23.66,23.66,0,0,1-3.62.38,5.72,5.72,0,0,0-2.13.5l-3-1.38s-1.5-.12-2.37-.12a3.87,3.87,0,0,0-2.5,1.12c-.38.5-1.5.63-1.5.63l-4-1.38.5-2.12L158,316.16l.5-1.37s-1.25-1-1.87-1.38a1.06,1.06,0,0,0-1.5.5,8.42,8.42,0,0,1-2.13,1.5l-5.5-.5a5.42,5.42,0,0,1-1.62-1.75c-.38-.87-1.75.25-1.75.25a22,22,0,0,1-1.88,2c-.5.38-3.25,3-3.25,3a9.91,9.91,0,0,1-2.25,1.25c-.87.25-2.62,3.25-2.87,3.75s-.38,2.38-1.13,3a3.9,3.9,0,0,0-1.37,2.5c0,.75-2.13,1.5-3.13,1.5s-2.75.38-3.62.38-2.38,1.75-3.13,2.5a44.35,44.35,0,0,0-3,4.63h0a1.94,1.94,0,0,0-.8.41l.17.32-.3,1-.74.31c-.44-1.36-.63-2.22-2.19-2.13l-.28-.45.21-.55.26-.19.57,0,.53-.27c1-1.17-.15-3.83-.59-5.18a6.87,6.87,0,0,1-2.73-.78c-.22-.11-.26-.45-.74-.51l0-.33a1.15,1.15,0,0,0,.79-.13c-.1-1.3,1.08-1.46,1.41-2.9.08-.36,0-.81.08-1.18.32-2.68.46-1.79-.1-4.16-.12-.51-.14-1.07-.28-1.57-.21-.75-.83-1.28-1.06-1.94a9.33,9.33,0,0,0-.36-1.63l-.37-.31-.4-.05a1.68,1.68,0,0,1-.81.55c-.11-.83-.69-1.8-.53-2.34l.17-.23.4.31.37,0c.44-.17.8-1.62.91-2.09,0,0-.12-.68-.14-.72a16.85,16.85,0,0,0-1.79-4.18c-.15-.25-1-.34-1.24-.32l.11-.61-.76,0-.58.46-.53,0-.28-.21-.3-1.18.11-.38.4,0,.26.32.23-.28-.1-.34.17-.34.47-.31.12-.23a1.68,1.68,0,0,0-.59-.68l-.88-.09c.12-.76,1-1,1-1.71s-.62-1.62-.51-1.92a1.16,1.16,0,0,0,.45-.57c-.34-.76,0-1.5-.4-2.22-.28-.57-.75-1.08-1-1.65-.62-1.31.09-1.49-1.74-2.49l-.71-1.8-.48-.31c-2.13.26-1-.8-1.92-1.29l-.51-.11a2.52,2.52,0,0,1-.74-1.05h1.08a1.84,1.84,0,0,0,.07-.3c-.08-.79-.11-1.66-.26-2.43-.09-.45-.38-.89-.47-1.33s0-1.24-.1-1.77c-.22-.75-.39-1.58-.66-2.31-.14-.38-.44-.73-.59-1.1-.31-.81-.51-1.67-.83-2.47-.16-.41-.49-.79-.64-1.2a54.12,54.12,0,0,1-1.65-6.15c0-.12-.07-.26-.09-.38-.54-3.59-2.11-6-3.84-9.19-.19-.34-.74-1.27-.56-1.64l.22-.08.12-.25a41.18,41.18,0,0,0-2-4.57l.26-.4c-.12-.24-.47-1.08-.36-1.35.22.16.5.72.72.83l.15-.22-.34-.74a1.4,1.4,0,0,0,.3-1.54c-1.64-3.44-2.91-6.12-5.84-8.59,0,0-.15-.23-.19-.28a1.57,1.57,0,0,1,1,0,1.72,1.72,0,0,0-.9-.48l-.21-.51c.36-.43.19-1.08.12-1.57a5.69,5.69,0,0,0-1.65-3.6c-.26-.2-.68-.35-.91-.57s-.33-.6-.45-.74-.5-.4-.7-.63c-.71-.74-.3-2.07-1.46-2.77a1.23,1.23,0,0,1,.06-.76,2.4,2.4,0,0,1,1.19-.08c.42.8,1.63,2.79,2.49,3.22l.3,0,.36-.28,0-.48.25-.34a1.49,1.49,0,0,0,.89.28,2,2,0,0,1-.82-1.88l.93-1.5a2.45,2.45,0,0,1,.77.8,1.73,1.73,0,0,0,1.1.11l.49-.36-.1-.3a1,1,0,0,0-.79-.13l-.36-.25a4.11,4.11,0,0,1,.41-1.6,2.54,2.54,0,0,1,1.42,0l.43-.21.65.8c.1-.24-.13-.74-.27-.93-.11-1.63,1.9-2.4.21-4.31l-.8-.44.46-.23.15-.29a5.81,5.81,0,0,0-1.27-1.57,8.24,8.24,0,0,1-2.15-.08l-.13-.66-.48-.46,0-.21.25-.25-.17-.68.13-.28,1.19,0-.61-.69-.43,0c-1.17-1.06-1.09-2.2-1.68-2.8l-1-.13c-.16-.24-.74-1.2-1-1.29l-1.08.45a2.68,2.68,0,0,0-1.39-.91l-.78.34-.32.55c-.66.21-1.16-.64-1.81-.64l0,.23.3.21,0,.22H76a.89.89,0,0,0-.38.43l.25.29.64,0,.49-.48a2.09,2.09,0,0,0,1.3.15,3.94,3.94,0,0,1,1.38,1.18c.34,0,.91-.76,1.06-1,.38,1.27-.17,2.35,0,2.91l.66,0-.62,1.2-.83,0c-.46-.26-2.5-1.57-3-1.48-.22-.24-1.7-1.79-1.77-1.91-.55-.94-.76-2-1.41-2.93s-1.29-1.16-1.68-1.61c-1.1-1.31-1.91-3-3.06-4.22-.41-.46-1-.74-1.34-1.29l-.53-.06a14,14,0,0,1-1.14-1.29c-.12-.2-.13-.51-.24-.71s-2.91-2.42-3.35-2.87l-.34-.05-.47.25-.25-.14.42-.53c-1.32-2.58-3.44-3.6-5.88-5.09-.42-.25-2.37.27-3.31-.15l-.36-.41a1.86,1.86,0,0,0-1,0l-.94,1.06-.3,0a3.2,3.2,0,0,0,.66-1.36c-.07-.52-1.38-2.23-1.86-2.25-.52.18-1.58.53-2.13.21-.36.19-.39.5-.53.82-.63.08-1-.72-1.64-.81l-1,.3-.12.21.08.7c-.18.19-.81.2-1,.18l-.21-.21.49-.29c.43-2-.62-2.2-1.82-3.32a9.12,9.12,0,0,0-3-2.38,11.25,11.25,0,0,1-1.23-.49,16.5,16.5,0,0,1-1.91-1.54c-.35-.32-.61-.85-1-1.14A18.61,18.61,0,0,0,32,180.24l-1-1a16.37,16.37,0,0,1,1.2-3.44c.63-1-.5-2.5.63-3.5S34,169.91,34,168.41s.5-4-.5-4.87a9.45,9.45,0,0,1-2.12-4.38c0-.75.75-1.75-.75-1.87a8.62,8.62,0,0,1-2.38-.5s-.37-3.25-.87-4a18.77,18.77,0,0,0-1.75-2,17.45,17.45,0,0,1-.38-2.75c0-1-.75-4.25.25-5.63s1-1.75,1-2.25a2.77,2.77,0,0,1,1.63-2,1.56,1.56,0,0,0,1-1.25A18.48,18.48,0,0,1,27.49,134c-.12-.63-1.75-3.63-.87-4.88A16.22,16.22,0,0,0,28,126.79a1.81,1.81,0,0,0-.37-1.38,11.61,11.61,0,0,1-1.25-1.87H23.24a13.25,13.25,0,0,0-1.75-2.88c-.62-.5-1.25-1.37-1.87-1.25a5.06,5.06,0,0,1-3-.25,16.31,16.31,0,0,0-4-.75,2.92,2.92,0,0,1-.5-1.87c.12-1,.25-3.13,1.5-4s1.75-.88,1-2.63-1-2.62-.5-3.75a3.27,3.27,0,0,1,2.62-1.62,2.62,2.62,0,0,0,2-1.63c.13-.75.75-1.37,0-2.25S15.12,96.54,15,95.91a37.53,37.53,0,0,0-1.62-4c-.25-.5-.5-2.12.37-2.25a6.92,6.92,0,0,0,2.38-1.5l2.12-.75a41.63,41.63,0,0,0,3-3.25c.25-.5.88-2,.25-2.5s-3.62-2.25-4.25-3.12-1.5-3.13-2.25-3.63-1.62-.87-1.25-2,.88-4.75.25-5.75-2.37-3.75-2.37-3.75L7,56.91A3,3,0,0,1,6,55a6.63,6.63,0,0,0-.62-2.5c-.25-.63-2.13-3.25-2.63-4.13A8.3,8.3,0,0,0,.87,46.54s-.63-2.63.62-2.88A7.89,7.89,0,0,0,5,41.29c.63-.75,1.63-1.63,1.75-2.38s-.62-2.5.88-4.12,2.87-3.5,2.87-3.5S12.12,30,12.12,32s.87,3.75,2.12,3.5,2-1.88,2.25-2.63a14.88,14.88,0,0,1,1.38-2.37,3.11,3.11,0,0,1,1.87-.5c1.25,0,3-.38,3.25-1.75s-.87-2.25.63-3.13,1.12-1.87.75-2.87a15.3,15.3,0,0,1-.25-4c0-.5-.13-3.5,1-3.5s1.37-1.25.87-2.13-1.25-2.75.38-2.62,2.5-1.5,2-2.25a14.17,14.17,0,0,0-1.75-1.88s-.38-2.5,1.75-1.62,2.12-.13,3.25-.13a1.53,1.53,0,0,0,1.62-1.37,1.38,1.38,0,0,1,1.38-1.13A2.17,2.17,0,0,0,36.37,1c.5-.5.87-.38,1.75,0s4.31,0,4.31,0c-.32.91-1.51,4-2.23,4.34a1.59,1.59,0,0,0-.87.27l.62.17.25-.1.49.37c.42,1.13-.39,2.45-.12,3.67.1.46.57.8.57,1.35l-.44.64a9.6,9.6,0,0,0-2,.48c-1.14.29-.8-.13-2.07.7a1.91,1.91,0,0,1-1.11,0,6.15,6.15,0,0,1-1.89,1.71l-.66-.3c-.44-.38-.11-1.85-.86-2.36l-.18.93.62,1.58a6.43,6.43,0,0,0,2.17,1c-.59,1-.1,2.65-.49,3.42-.23.46-.68.76-.87,1.26a1.63,1.63,0,0,0-1.16.91l.25.16.34-.27,1.35.61,0-.25-.46-.59c-.12-.44,1.54-2.17,2.06-2.46l.4,0,.13.27.19.08a3.86,3.86,0,0,1,3.27-1.95,7.31,7.31,0,0,1,1.82.5c.32.06.72-.14,1,.09a6.42,6.42,0,0,0,2.07,1.33,4.74,4.74,0,0,1,1,2.91l.34.15c1.11-.51,3.53-1,4.43.07l.28,0a3.1,3.1,0,0,1,1.7-.67,17.75,17.75,0,0,1,3.21,2.62c.13.14.08.41.45.59l.42-.21.36,0,.15.36c-.19.35.19.94.44,1.16l.42,0-.5-1.21.17-.27A8.26,8.26,0,0,1,60.7,25c-.47,1.55.33,2.58.17,3-.14.15-.59.7-.56.93l.75-.43a5.32,5.32,0,0,0,.19-1.73,8.61,8.61,0,0,0,2.16-.21,3.25,3.25,0,0,1,1.86,2.05l-.19.51a1.13,1.13,0,0,1-.78.31L64,29l-.34.06a33.93,33.93,0,0,0-2.38,2.78,3,3,0,0,0,1.42,1l.17.38,1.22-.53c.19.09,1,.52,1.18.4L65,32.59l.11-.3,1.29-.5.49.23.76-.53.78,1.1-.08.21a2,2,0,0,0-1.27.57c.45.19,1-.33,1.5-.15l.32.34.42-.19.4.07a1.32,1.32,0,0,1,.47.65l1,.31.55-.2.43.39c.54-1,2-.51,2.79-.23l.17.39,0,.21.47.1.42-.34.27.05a11.51,11.51,0,0,1,2,3.22,6.31,6.31,0,0,0-.11.7c.07,1.68-.22,3.57.8,5l-.33.4.25.76.59,0,.15.23c0,.48-1.18,1.21-1.53,1.4a10,10,0,0,0,2.42-.45c.73.2,1.58.37,2.27.64.87.35,1.54,4.5,3.56,4a6.21,6.21,0,0,0,1.78.76l.35.5a2.21,2.21,0,0,1,1.66.32s.26,0,.28,0a13,13,0,0,0,2.82,1.16c.51.11,1.1.1,1.59.25a5.47,5.47,0,0,1,.55.38,2.72,2.72,0,0,1,1.76-.17c.15.2.7.86,1,.89l.34-.42c.08,0,.49.11.55.14.5.27.94.7,1.44,1,.71.39,1.66.61,2.33,1.05.07,0,1.06,1.13,1.18,1.26,1.33.8,2.87.83,4,1.67,1.44,1,3.93,3.55,5.68,4.14.45.15,1,.13,1.44.27a26.92,26.92,0,0,1,7.67,4.37c.09.09.26.49.39.65a6.12,6.12,0,0,1,2.16,1l.12.23-.27.06-1-.42a.63.63,0,0,0,.1.51,9.31,9.31,0,0,0,1.64,1.56c.43.25,1,.28,1.4.49a24.21,24.21,0,0,1,3.06,1.9l.09.35-.53,1.08.19.27.54-.27.08-.73H131c3.26,3,4.13,2.62,7.88,4.07a5.5,5.5,0,0,0,.62.08,4.59,4.59,0,0,1,.8,1.35,5.32,5.32,0,0,0,2.76,1.14c.12.5,0,2.27.32,2.47l.68.31.17.29a13.72,13.72,0,0,0,1.8,2.81c.28.28.7.49,1,.78.4.44.57,1,1,1.45,1.08.09,1.73,1.43,3.35,1.39l.17.32a1.55,1.55,0,0,1,1.21-.3c.39.13.75.44,1.14.57a2.08,2.08,0,0,0,.36.06c.57.1,1,.33,1.53.45.92.22,3.32.46,4,.94.08.05.5.5.59.58a9,9,0,0,0,1.72.9c.53,1.09,2.42,1.6,3.54,1.36l.23.22c.64,4.36,5.11,7.69,8,10.6a5.7,5.7,0,0,0,1.29,1.49,1.47,1.47,0,0,1,1-.46,2.66,2.66,0,0,1,.24.23,11.44,11.44,0,0,0,1.44,2.7,13.37,13.37,0,0,0,1.79,1.41c.49.3,1.21.37,1.73.63.82.41,1.26,1.26,2.06,1.7.24.13.54.18.79.3,0,0,.12.14.15.17h.29c.64.66.32,2,.07,2.74a20.39,20.39,0,0,0-.27,4.35,15.85,15.85,0,0,1,.64,1.64c.16.78.25,2.62-.27,3.33l-.6.45-.19.55c.55.52-.22,2.22-.28,2.86a7.12,7.12,0,0,0-2,2.16l1.27,1,.85-.64c1,.21,3.94-1.65,4.74-2.07a1.39,1.39,0,0,1,1.06.4l1.88,2.25c2.62,3.13.85,3.73,1.29,7.09a24.36,24.36,0,0,0,.6,2.49c.08.32.4.65.49,1a14.89,14.89,0,0,0,.46,2.17c.25.49.67.92.94,1.41s.4,1.06.75,1.58l.12-.27,1-.3a3.09,3.09,0,0,1-.23-.31c-1.59-5.14-2.62-7.75-.09-12.64.32-.62,1.19-1.86,1.9-2s1.26-.33,1.85-.39c1-.1,3.29.31,3.61,1.43.15.51.65,3.2.82,3.4.49.6,1.23,1.12,1.67,1.75a15.26,15.26,0,0,1,.64,1.55,14.72,14.72,0,0,0,2.25,3.25c1.92.27,2.76,2.41,3.4,4,.18.45-.13.84-.12,1.27v0s0,0,0,0a14,14,0,0,1-.85,3.36,9.54,9.54,0,0,0-.63,4.12c0,1,.13,4,.13,4.75s1.37,3.5,1.62,4.13.88,4.12,1.88,6a8.49,8.49,0,0,1,.37,6,11.2,11.2,0,0,0-.75,4.12,5,5,0,0,1-.5,2.88,7.55,7.55,0,0,0-.5,4,3.28,3.28,0,0,1-.75,2.62c-.5.5-.87,3.5-.87,4.13s-.75,4.87-.75,4.87l-2,3.25a22.29,22.29,0,0,0,0,3c.12.75,0,1.25.5,1.38s6.25,1.75,6.25,1.75,2,0,2.87-.13,1.38,1.38,1.63,2.13a2.17,2.17,0,0,1-.88,2.25c-.75.62-.37,1.75-.12,2.62s2,1.25,2.75,1.5.87,1.13.12,2,0,1.25.5,2.13-.5,1.25-1.62,1.37S219.37,228.41,219.62,228.91Z" />
        </g>
    </g>
</svg>