<svg xmlns="http://www.w3.org/2000/svg" viewBox="0 0 224.43 281.96">
    <defs>
        <style>
            .cls-1 {
                fill: #fefee9;
                stroke: #0978ab;
                stroke-linejoin: round;
                stroke-width: 1.42px;
                fill-rule: evenodd;
            }
        </style>
    </defs>
    <title>Sumatera Barat</title>
    <g id="Layer_2" data-name="Layer 2">
        <g id="SUmatera_Barat" data-name="SUmatera Barat">
            <path class="cls-1"
                d="M222.22,170a4.31,4.31,0,0,0-.62,2.62s-2.13,2.13-2.75,2.63a3.16,3.16,0,0,1-2,.62,3.55,3.55,0,0,0-2,.38,4.67,4.67,0,0,1-2.63,1c-1.12,0-2.62,1-2.62,1.62s-1.5,2-1.5,2l-.38,1.88a21.69,21.69,0,0,0,1.63,3.87c.75,1.13-.25,3.38-1,3.63s-.63,1-.25,1.62a1.53,1.53,0,0,0,1.5,1c1,.13.62,1.75-.13,2.13s-1,2-1.25,2.62a7.71,7.71,0,0,1-1.5,2.38,7.35,7.35,0,0,1-2.75,1c-.62,0-1.37,1-1.87,1.75a8.55,8.55,0,0,1-3.25,2.12c-.63.13-2.38,2.38-4,3.25S192,212,191.6,213.46s-1.25,1.5-2.38,1.5-3.37,0-4.12-.88-1.25-.25-2.5.25-4.13,0-4.5.5-2.63.5-3.75.5a8,8,0,0,0-3.75,1,2.23,2.23,0,0,1-3.38-1.37c-.62-1.63-1.62-1.25-1.87-.5s-.75,1.75-2.5.37-2.38,1.63-2.38,2.75,1.13,13.75,1.13,13.75l3,5a41.74,41.74,0,0,0,3.62,4.63,7,7,0,0,0,2.5,1.37s2.75,7,3.13,8.13a63.83,63.83,0,0,1,1.87,7.37c.25,1.88-.86,6.13-.86,6.13s-2.39,3.75-2.89,4.25a6.42,6.42,0,0,1-2.25,1,10.3,10.3,0,0,0-2.87,2.37,3.17,3.17,0,0,1-2,.75l-9.25,6.38-3.35,2.54c-.47-.58-.92-1.17-1.38-1.74s-.7-1.81-1.15-2.27-1.08-.85-1.54-1.33c-.63-.67-1.18-1.43-1.83-2.08-.82-.83-1.76-1.56-2.58-2.39s-1.47-1.66-2.19-2.47a9.58,9.58,0,0,1-2-4.72c-.1-.62.28-1.43.18-2.11a9.24,9.24,0,0,0-1.38-2.48c-.81-1.27-1.95-2.5-2.88-3.7-.69-.89-.24-2.36,0-3.31.06-.26,3.81-2.84,4.64-7.1.28-1.42-.37-3.8-.66-5.24-.15-.78-.16-1.57-.29-2.35-.6-3.66-2.37-6.31-4.62-9.21-.6-.77-2.43-2.23-2.66-2.54-.86-1.16-2-4.05-2.91-5.46-.26-.43-.7-.8-1-1.21a25,25,0,0,0-2.82-3.62.79.79,0,0,0-.16-.53,14,14,0,0,0-4.25-5.14c-.67-1.19-.23-2.26-.85-3.35a18.71,18.71,0,0,0-.13-2.32c-.32-1-1.18-1.47-1.21-2.8,0-.7.57-1.32.18-2l-.19-.32-.53.15-.3-.27-.88.07a13.37,13.37,0,0,0-1-1.83c-.1-.12-.6-.36-.7-.48-.39-.5-.53-1.39-1.14-1.73l.15-.49c.71,0,1.51-1.37,1.33-1.71l-.2-.17-.36.25-.49-.44-.48.11-.26-.76.31-.44c.74-.31,1.53-.18,2.23-.52l0-.25-.41-.55-.42-.08-.11-.68-.28-.27-.83.36-.34-.58c.1-.17.68-.29.85-.31l0-.67-.14-.21-.47-.15-.17-.4.37-.67a4,4,0,0,0-2.18-2.42,1.57,1.57,0,0,0-1,.22l-.48-.25c-1,.24-1.42-.19-2.2-.69-.1-.06-.63-.34-.68-.39-.46-.49-2.13-3-2.93-2.94-.74.58-1.69.57-2.26,1.38l-.13-.21.08-.32-.28-.39-.26.06-.44.42-.36-.29-.45.15-.33-.08-.2-.25a4,4,0,0,0,1.12-1.23l-.43-.53.06-.36.21-.21c.36-.17.84,0,1.2.12a1,1,0,0,1,.19.74l.45.52.25,0,.36-.87-.24-.37.37-.39V178l-.18-.25-.46,0-.45-.46.67-.42a1.65,1.65,0,0,0-.36-1,.93.93,0,0,1,.4-.55.85.85,0,0,0-.51-.4,1,1,0,0,1-1.22-.1l-.61-.06-.39-.46.11-.4-.17-.28H99.52l-.28-.49.13-.17a1.42,1.42,0,0,0-.37-.9c.2-.1.36-.58.4-.78l-.09-.41-.34-.06-.39.54a1.91,1.91,0,0,0-1.53,1.23l-.34-.13c.16-1,1.31-1.77,1.09-2.81l-.21-.27.12-.45,1-.19.51.19.28-.11a2.12,2.12,0,0,0-.22-1.16l-.64-.5-.83-2.26.15-.19.53-.15.59-.7.28.06.34.31.07.66.27.05.51-.82.39.32.18-.09.29.24.25-.11-.3-.47.34-.53-.26-.57.29-.72c-.08-.33-.83-.89-1.09-1.05l-.32,0a3.86,3.86,0,0,1-.85,1.07c-.16-.11-.56-.48-.57-.69a3.56,3.56,0,0,0,.75-1.84l-.28-.72.08-.42-.27-.57-.58.09c-.14.21-.57.71-.85.72l-.21-.23,0-1c-.61-.64-.64-1.47-1.32-2.1a6.93,6.93,0,0,0-.52-4.79c1-1.64-1.73-5.28-2.84-6.23-.29-.24-.66-.37-1-.66a.91.91,0,0,0-.33-.69l-.06-.38-.6-.38c-.83-2.13-2.71-3.35-4.29-4.83-.5-.47-.87-1.22-1.39-1.64-1.67-1.37-3.51-2.71-5-4.23-.56-.56-1-1.28-1.57-1.87l-1-1.07c-.79-1.32-1.13-3-1.84-4.38-.19-.37-.5-.71-.68-1.08s-.17-.75-.33-1.07a10.55,10.55,0,0,0-1.93-2.12c-.21-.23-.33-.61-.53-.85a22.33,22.33,0,0,0-1.76-2c-1.56-1.5-3.38-2.76-5-4.22-1.1-1-3.49-4.15-5.11-3.85a1.33,1.33,0,0,1,0-.88c-.54-2.18-3-3.66-4.71-4.88A20,20,0,0,0,53.54,102c-.72-.4-1.3-.4-1.84-1.13a3.5,3.5,0,0,0-.56-1.56A3.57,3.57,0,0,0,51,97.33c.83-1.36,0-1.08.33-2.24-1.12-2.45-3.37-4.43-4.11-7l.17-.31L47,87.19a3.71,3.71,0,0,1,1.14-1.55l-.07-.3.09-.23L48.4,85l.15-.38a11.65,11.65,0,0,0-2.17-5c-2-3.07-3.85-2.7-4.36-3.44-1.27-1.84.08-1.66-2.67-3.88-.62-.49-2.41-1.19-2.66-1.91a24,24,0,0,1-5.34-2.81l-.13.26-1.15-.51-.15-.72-.18-.17-.31,0-.15.53L29.1,67c-.08-.06-.88-.76-.91-.77-2.35-.88-7-3.14-9.78-2.74a2.28,2.28,0,0,1-.88-2.89l-.16-.17-.52.1a1.52,1.52,0,0,1-.85-.59l0-.4.32-.42v-.22c-.3-.85-1.24-.64-1.45-1l-.08-.25.17-.59-.19-.28a13.35,13.35,0,0,0-4.37-.54l-.87.65-.23,0-.43-.62-.08.37a2.2,2.2,0,0,1-1.54,1.24l-.19.87-.21.09A5.49,5.49,0,0,0,5.18,58c0,.18-.22.69-.44.76l-.24-.61-.19,0-.62.29a2.45,2.45,0,0,1-1.47-.63l-.57-1.22-.6-.41L1,55.93l.14-.36-.06-.25-.19-.15-.15,0a44.35,44.35,0,0,1,3-4.63c.75-.75,2.25-2.5,3.13-2.5s2.62-.38,3.62-.38,3.13-.75,3.13-1.5A3.9,3.9,0,0,1,15,43.71c.75-.62.88-2.5,1.13-3s2-3.5,2.87-3.75a9.91,9.91,0,0,0,2.25-1.25s2.75-2.62,3.25-3a22,22,0,0,0,1.88-2s1.37-1.12,1.75-.25a5.42,5.42,0,0,0,1.62,1.75l5.5.5a8.42,8.42,0,0,0,2.13-1.5,1.06,1.06,0,0,1,1.5-.5c.62.38,1.87,1.38,1.87,1.38l-.5,1.37,1.88,1.13-.5,2.12,4,1.38s1.12-.13,1.5-.63a3.87,3.87,0,0,1,2.5-1.12c.87,0,2.37.12,2.37.12l3,1.38a5.72,5.72,0,0,1,2.13-.5A23.66,23.66,0,0,0,60.72,37a29.61,29.61,0,0,1,3.5-3.62,1.62,1.62,0,0,0,1-1.63c0-.75.25-2.62-.25-3a36.59,36.59,0,0,1-2.62-3.25,11.73,11.73,0,0,1-.5-2.62c0-1,0-3.25-.88-3.38s-4.62-.5-4.62-.5a20.29,20.29,0,0,1-1.5-2c-.25-.5-1.13-2.87-.13-3.5s1.38-1.5,1.13-2.12S56,8.46,55.6,7.71s-.13-1.25-.38-2.12a28.13,28.13,0,0,1-.5-2.88l2.88-2,2.5.88a16.71,16.71,0,0,1,3.12.25,3.24,3.24,0,0,1,2,1.37c.38.75.88,1.88,2,2.13a21.79,21.79,0,0,1,3.5,1.5,10.9,10.9,0,0,1,2.38,2s5.5,1.5,6.5,2.25a15.55,15.55,0,0,0,3,1.5l1.75.25c.18-.06,2.41-.73,3.25-.38l1.62.5a4,4,0,0,1,.5,1.38c0,.5-.25,2.12-.25,2.12l-1.75,2.38a28.49,28.49,0,0,1-3,3.5c-.75.5-.37,1.62-.37,1.62l.87,2A12,12,0,0,0,88,27.34c1.5.5.63,1.75-.5,2.37s-.12,1.75.63,2.13.62,1.75.5,2.37-.25.88-.5,2.13,1.25,2.5,1.75,2.62.75.5,1.25.88A14.93,14.93,0,0,1,93,41.34a5.78,5.78,0,0,1,1.13,2.12c.25.63,1,.25,1.62,0a19,19,0,0,1,2.75-.5l1.25-1s1.63-1.75,2.25-2.25,1-.37,2.13-.37a4.79,4.79,0,0,1,2,.37c.87.25.37,1.5.25,2.25s.37,1.88.37,2.75a4.07,4.07,0,0,0,.5,1.75,15.25,15.25,0,0,0,1.88,2.63c.62.5,1.25.37,2.12.37a2.17,2.17,0,0,1,2,.88c.38.62,1,.62,2,.62s1.38.13,1.75.63a6.92,6.92,0,0,1,1.13,2.62,2.17,2.17,0,0,0,.62,1.25s1.13,1.38,1.5,1.88a18.27,18.27,0,0,1,2.13,2.25c.5.87,3.37,0,3.37,0s1.13-1,1.63-1.38A5.17,5.17,0,0,1,129.47,57c.88-.12,1.5-.25,1.75-.87s1-.5,2.38-.5.87,1.12,1.25,1.75a5.19,5.19,0,0,1,.62,2.37c0,.75-1.25,1.75-1.87,2s-.88,1.5-1.38,2.88a2.62,2.62,0,0,0,.25,2.37l2.5.62c.5.13.88,1.25,1.13,1.88a29.88,29.88,0,0,0,2,2.5c.5.75-.13,2.62-.75,3.25A7.64,7.64,0,0,0,136,77.08c-.25.5-1.75,1.13-3.75-.12s-1.75.37-2.75,1,.25,2,.25,3.5a10.47,10.47,0,0,0,.63,3.87c.5,1.5.25,2.88,1,4a4.15,4.15,0,0,1,.75,3.25c-.13,1.5,0,2,.87,2.63s1.38.75,1.63,1.75-.13,1.25,1.25,1.62,1.87,1,1.75,2.38.12,2.87,1.5,2.87a3.85,3.85,0,0,1,3.5,1.5c.87,1.25,2.37,1.75,2.37-.87s1-2.5,1.5-2.5a11.28,11.28,0,0,0,2.5.25,4.19,4.19,0,0,1,3.63,1c1.25,1.12,3,3.25,1.62,4.12s-1.25,1.38-.62,2.38a7,7,0,0,1,.62,2.87,41,41,0,0,0,2.13,4c.25.5.12.75,1.75.75s2.25.13,2.87,1,.5.75,1.75,1a5.61,5.61,0,0,1,3,2.13c.38.62.88,2.12,1.88,2.12a5.69,5.69,0,0,1,3.62,2.5c.75,1.25.63,1.38,2,1.38s2-.38,2.75.5,1.75,2,3,2,2.5.12,1.5.87-.5,2.25,1,2.38,3.5,1.62,2.75,2.62-.5,1,.5,1,1.38.63,2.38,1.38a23.42,23.42,0,0,0,3.12,2.12c.63.25,1.13,1.13,1.5,1.75s1.25.25,2.5.63,2,.5,2.63,1.5a2.86,2.86,0,0,0,2,1.12,8,8,0,0,1,2.12,2.13c.5,1,3.25,3.62,3.5,4.25a5.61,5.61,0,0,0,4,2.25c2.13.25,3.25-.25,3.5.62s.75.88,1.63.88a12.29,12.29,0,0,0,2.12,0c.5-.13.75-.25,1.63.37a2.34,2.34,0,0,0,.89.37l0,3.26a17.24,17.24,0,0,0,.63,2.37,4.78,4.78,0,0,1,0,3.25c-.5,1,1.25,1.75,2,2a1.81,1.81,0,0,0,2-.5c.75-.62.87.25.87.88A5.53,5.53,0,0,1,222.22,170Z" />
        </g>
    </g>
</svg>