<svg xmlns="http://www.w3.org/2000/svg" viewBox="0 0 333.87 273.28">
    <defs>
        <style>
            .cls-1 {
                fill: #fefee9;
                stroke: #0978ab;
                stroke-linejoin: round;
                stroke-width: 1.42px;
                fill-rule: evenodd;
            }
        </style>
    </defs>
    <title>Sumatera Selatan</title>
    <g id="Layer_2" data-name="Layer 2">
        <g id="Sumatera_Selatan" data-name="Sumatera Selatan">
            <path class="cls-1"
                d="M333.16,132.63c-1.27,3-3.41,3.2-5.78,4.94l-.69,0a4.28,4.28,0,0,1-1.76,1l-.4.47a10.8,10.8,0,0,1-1.73-2.54l-.57-.22c-.12.32,1.6,2.63,1.86,3a4.31,4.31,0,0,0-1.46,1.42l-.55.1a18.66,18.66,0,0,0-1.55,1.79l-.47.23a28.4,28.4,0,0,0-1.61,2.38c-.4.74-.26,1.46-1,2.18l-1.34,0-1-.62c.5.6,1.23,1.25,1.3,2.06a8.77,8.77,0,0,1-.94,2c-.37.92-.63,2-.94,2.9l-.4.3-1.61,5.55c-.08.29-.32.58-.4.87s0,.63-.07.91a21.51,21.51,0,0,1-.64,2.75c-.1.32-.32.63-.4.94a4.63,4.63,0,0,0,0,1.74,20.57,20.57,0,0,0,.15,3.07,23.87,23.87,0,0,0,0,2.54l.59,1.28c.2.25,1.58,1.22,2.1,1.82a2.51,2.51,0,0,0,.22,1l.37.23.3-.08,0-.45.23-.22c.84,0,5.36,2,5.82,3a11.16,11.16,0,0,0,1.79,3.16c.37.72-.56,2-.34,2.51l-1.26,1.83,0,.56a10.69,10.69,0,0,1-1.28,2.58c-.16.23-.47.41-.63.65-.45.64-1.88,3.9-2.61,4-.12.16,0,.68,0,.84l-.19.31a15.65,15.65,0,0,0-.9,1.44c-.23.48-.27,1.42-.76,1.73a18,18,0,0,1-.43,1.92c-.65,1.86-1.27,2.73-1.12,4.64a6.32,6.32,0,0,0,0,2.37l-1.06.83a1,1,0,0,1-.53-.32v0a5.59,5.59,0,0,1-.6-.83l0,0h0a3.56,3.56,0,0,0-2.07-1.51c-1.5-.45-1.57-.38-1.35.67s-.22,1.57-1.79,1.57-1.79.23-3.14-.45-1.34-.67-.44-1.79-.9-2.62-.9-2.62-.6-.9-1.72.22-1.13.45-1.57-.44a2.4,2.4,0,0,1,.22-2.69c.67-1.12-2.24-.23-3.59.22s0-2.24.9-3.07.45-1.57-.45-2.46a3.62,3.62,0,0,1-.89-3.59c.44-1.12-.9-2.17-2.18-1.34s-2-.38-1.34-1.5-1.35-2.69-2.47-1.57-1.57-1.8-.89-3.36-3.07-1.13-3.07-1.13a14,14,0,0,0-3.59-.82c-1.34,0-.89-1.35-.45-2.69s-.89-1.35-2-1.57-2.62.9-4,1.57-1.57-.45-1.79-3.14-1.12-2.17-2-1.57A3.78,3.78,0,0,0,268.9,177a3.94,3.94,0,0,1-1.35,2.92c-.89.67-.22,2.4-.22,2.4v2.46l-1.8,2.47s-2,1.79-2.46.67-1.57-.9-2.62-.9-2.92,1.35-2.92,2.25-.22,1.94-1.34,1.94-.9,2.69-.9,2.69-1.57,3.59-1.34,4.87-.45,2-1.5,1.79-2,1.12-2,1.12-2,3.14-2,4-1.34,2-2.24,3.14-1.12,1.57-4.19,1.35-3.36,2-4.48,2-4.19,2.4-4.19,2.4-1.79,2-3.36,2-3.52,2.24-4.42,1.34-2.24-.67-3.36-.67h-5.31a5.35,5.35,0,0,1-2.91-.9,3.84,3.84,0,0,0-2.85,0,24.56,24.56,0,0,1-3.58,1.35c-1.12.22-4.42,3.36-4.42,3.36s-2.24,1.5-3.36,1.28-2.84,1.34-2.84,1.34a3.31,3.31,0,0,1-2.69,1.57c-1.8,0-2.69,2.24-2.69,2.24a26.71,26.71,0,0,1-2.4,4.86c-1.05,1.35-.9,3.82-.9,4.71a48.35,48.35,0,0,0,1.06,5.09l-.16,4s-.67,3.14-2,4.26a4.91,4.91,0,0,0-1.34,3.36l1.12,2.62.9,2.25,2.84,2.46,1.12,3.74a35.36,35.36,0,0,1-1.79,3.14c-.9,1.35-2.4,2.17-3.07,1.35s-3.59,0-3.59,0-2,.6-2.62-.67-1.57-.9-2.91-.9-1.12,2.84-1.12,2.84l-2.69,2a18.68,18.68,0,0,1-2.85-.22,6.51,6.51,0,0,1-3.81-1.35,2.47,2.47,0,0,0-3.29.23s-3.36.22-4.48.22a7.22,7.22,0,0,1-2.85-1.12s-2.69-.83-4.26-1.5-1.79-.67-2-1.57a4.47,4.47,0,0,0-2.18-2.69c-1.05-.45-1.12-1.12-1.56-2.24s-1.35-.67-2.69-.45-2-1.27-2-1.27l-1.5-2.92-2.92-1.12-3.36.22s1.35-1.12,2.24-1.79.68-1.12.23-2.62-2.92-5.38-4-5.83-.89-.45-2-1.72-2.47-.9-3.59-.67a17.36,17.36,0,0,1-4.86-.45,18.06,18.06,0,0,0-3.59,0l-1.57-1.12a22.08,22.08,0,0,0-1.94-3.36c-.9-1.13,0-3.75.89-4.87s-.67-2.24-.67-2.24a14,14,0,0,0-2.69-2.39c-1.35-.83-.9-2.69-.9-3.82s1.57-2,1.57-2l1.8-1.12a26.66,26.66,0,0,0-4.71-.9,29.85,29.85,0,0,1-4-.6s-2.46-1.35-2.91-2.69-1.12-1.13-2-1.13a14.08,14.08,0,0,1-4-.89c-1.13-.45-3.14-.67-4.64-1.8a9.47,9.47,0,0,0-5.16-1.5,17.47,17.47,0,0,1-4.41-1.34l-2.69-2.24s-2.92-1.12-3.74-1.57a13.8,13.8,0,0,1-3.59-2.47c-.67-.89-1.57-2-1.34-3.07s.44-3.81,1.12-5.08,0-2-1.12-3.36a1.64,1.64,0,0,0-2.47,0L68,195.26l-2.24-.45s-2-.9-3.14-1.35-2.17-.44-2.4-2.24-2.91-3.29-3.81-3.74-1.56-2-3.13-2.69-1.28-1.57-2-2.69-.45-1-2.92-1.95-2.24-1.34-1.12-1.79,5.61-2.91,5.61-2.91l2.62-1.57a8.94,8.94,0,0,0,1.12-3.74c0-1.8,2.46-3.37,4.26-4S62,163.71,62,162.81a20.73,20.73,0,0,0-.23-4.93c-.44-2.92,2.47-.38,3.59.22s2.91,3.14,4.19,4.93,2,.68,2,.68,2.69-4.94,3.81-5.61a6.7,6.7,0,0,0,2-2.62s1.56-8,1.56-8.89.45-2.69-.89-3.37-5.31.23-6.43.9-2.85-.22-2.85-1.35a16.46,16.46,0,0,0-.22-2.39H64.19c-1.57,0-2-.67-2.47-2.69s-2.84-1.12-4-.23a7.56,7.56,0,0,1-4.48,1.35c-1.57,0-1.73,1.12-2.85,2.69s-4.26.83-4.71,0-4-3.14-4-3.14-3.55-2.67-4.17-3.3a3.09,3.09,0,0,1-.75-2.37c.12-.5.87-1.25-.38-2.38s-.12-3.75-.12-3.75L36,122.19l-1.5-1.25s-.25-1.38-.75-1.75-4-1.88-4.75-2.25a4.87,4.87,0,0,0-2.5.12s-2.87,1.25-3.5,1.5-1.87-.37-2.37-1.25-1.88-1-3.13-1-1.62-2.12-1.62-2.12l-1.13-1.75a14.07,14.07,0,0,1-.62-3.88c0-2-2.13-1.75-2.88-2.37s-3.37-2.13-4-2.63a4.17,4.17,0,0,1-1-1.37l-.12-2.63s-1.63-2-3.13-2.37A3.15,3.15,0,0,1,.71,94.44h0s2.12,0,2.5-.5.87-2.37,2.37-3,5-2.5,5.75-2.37a13.71,13.71,0,0,0,3.25-.63s.63-1.62.25-2.25,0-2.12.88-3,.62-1.12,2.12-.87a3.68,3.68,0,0,1,2.25,1.12c.5.38,2.63,1.75,3.38,1.13a1.93,1.93,0,0,1,2.62.5,9.24,9.24,0,0,0,1.38,1.75A33.69,33.69,0,0,0,31,87.93c.87.25,4.62.5,5.37.63s1-.38,1.5-.88a4.23,4.23,0,0,1,3-1.37,7.76,7.76,0,0,1,3,.75s2.88-1,2.5-1.75a4.57,4.57,0,0,1-.25-2l1.75-1.88a4.93,4.93,0,0,1,1.5-.37c.63,0,1.5,0,1.88-.5s1.5-1.63,2-1.63,1-.62,1.25-1.12-.25-1.63.87-.63,1.75.75,2.25.5,2.38-1.5,2.88-1.87.5-1.75.5-1.75,1.62-1.25,1.62-1.88a10,10,0,0,1,1.5-3.37c.5-.63,2.25-2.5,2.75-3s1.25-1.5.5-2.25a18.74,18.74,0,0,0-1.75-1.63c-.62-.5-.5-1,.5-2.25A22.78,22.78,0,0,0,68,56.81s2.37-.25,2.75.25-.5.5,2.5.5,4,.62,4.87,1.25a2.85,2.85,0,0,0,2.25.62c.63-.12.5-1,.13-1.5s-.25-1.12.75-1.12,2.5.75,2.62,1.5.75.87,2.38,1,2.37,1.12,3.12.37A7.32,7.32,0,0,1,92,58.18c.5-.12,1.87-1,2.37-1.12s.5-.88.5-1.75.25-2.75-.62-3.38-2.38-1.25-2.38-2.25a3.86,3.86,0,0,1,.5-2.12c.38-.75,2.38-2.88,2.88-2.88s.5-.37.62-1.25A1.87,1.87,0,0,1,98,41.81c1.12.25,2.12.37,2.62,1.25s1.5,3.37,1.5,3.37a3.86,3.86,0,0,1,.13,1.88c-.25.62.62,1.5,1.5,1.62s1.25.25,1.37,1.13.75,1.25,1.5,2,3.88,3.25,4.5,4.37,2.25,1.75,3.13,2.25,1.62.13,1.37-1a5,5,0,0,1-.25-2.62c.25-.75.25-6-.12-6.75s-.5-4.25,1.25-4.13a15.2,15.2,0,0,0,3.87-.37A37.11,37.11,0,0,0,124,42.56c.5-.5.37-1-.5-1.38a5.22,5.22,0,0,1-2.63-3c-.25-1.25,1.38-2.37,2.38-3.12a3.39,3.39,0,0,0,1.12-2.63c0-.5-.37-3.12-1-3.25s-8-4.5-8.5-4.87-.25-1,.25-1.75.38-1.75,1.63-2a12.78,12.78,0,0,0,3.75-2.13,14.37,14.37,0,0,0,2.25-2.5c.37-.62,3.25-1.87,4.37-1.75s5.13.5,5.13.5a24,24,0,0,1,4.25-.87c1.25,0,7.12.25,7.87.25s3,.37,3.25-1.38a3.34,3.34,0,0,1,2.75-3c1.25-.12,3-.12,3.5.25l2.5,1.88,8.5.12c.63,0,2.88.88,3.88.88a26.26,26.26,0,0,0,5.25-1c1-.38,3.62-2.13,4.25-2.25a4,4,0,0,1,3.37-.25,4.53,4.53,0,0,0,3.75-.5s3.38-.38,4.13-.38,1.62-.87,1.37-1.5a9.24,9.24,0,0,1,0-4.12,4.42,4.42,0,0,1,2.25-1.75c.75-.13,2.13-.63,3.13-.13a33.7,33.7,0,0,0,3.37,1.25l2.24,1.21h0c.19.3.53.62.76.95.41.63,2.13,2.89,2.08,3.6.27.42,0,1.13.46,1.55a5.27,5.27,0,0,1-.22,1.73c-.11.57.17.75.17,1a5,5,0,0,1-.57,2.3l-.77.51L202.37,15c0,1-1.9,1.8-2,3.17l-1,.67a1.74,1.74,0,0,0,0,1.29l.64.6,0,.56.13.25a6.3,6.3,0,0,1-.45,1.35l-.57.15-.46.47c.3.3-.48,1.58.66,2.73a3.1,3.1,0,0,0-.07-1.9,1.11,1.11,0,0,1,.4-.72,2.3,2.3,0,0,1,1.32.51c.23.39.82,1.63.65,2.11l-.16.21a7,7,0,0,0,.86,1.94l.45.09c0-1.08-1.59-2.25-.15-3.57a1.24,1.24,0,0,1,1.23.23,1.85,1.85,0,0,1,.28,1.37l.38-.2-.17-.25.25-1.21h-.33l-.29-.21.05-.3.91-1-.87.28-.29-.08c0-.63,1.54-2.63,1.63-4.13l.2-.16c.54-.23,2.22.49,2.65.76.13.07,1,1.08,1.08,1.12l3.23,1.6a2,2,0,0,1,1.17,1.56c-.35,1.46-.44.81-1.3,1.54-.49.42-.95,1.2-1.5,1.69a2.72,2.72,0,0,1,.5,1.77,1.63,1.63,0,0,1-.74.5l-.06.94-.51.52,1,.15c.63-.93,1.26-1.87,1.83-2.83a3.39,3.39,0,0,1,2.37-.16l1.11,1.79a15.26,15.26,0,0,0,.11,3.24c.27-.45.57-.9.82-1.36l1.43-.26c.09-.3.43-1,.76-1.18h.19a7.77,7.77,0,0,0,2.4-.25c.52-.08,1,.18,1.43.17a5.75,5.75,0,0,1,2.06-.1c.47.28.77.46,1.23.19a2,2,0,0,0,1,.25,11,11,0,0,0,2.34,1.71c.58.45.59,1.09.91,1.67.11.21.38.37.49.57.35.63.64,1.36.95,2,0,0,0,.29,0,.36.25.87.85,2.67.38,3.51l.66,1.53-.19,1.1.3.3c.22,1,0,.9-.26,1.68a7.25,7.25,0,0,1-.49,1.54,13.91,13.91,0,0,0-1.76,2.18c-.2.46-.32,1.25-.7,1.6A56,56,0,0,1,226,54.71c-1.5,1-2.77,1.63-3.27,3.38a6,6,0,0,1-1.16,2.78c-.53.11-1.85-1.24-2.7-1.29-1.27-.08-2.34.69-3.5.62l-.25.36.1.4a2.85,2.85,0,0,1-1.68,1,1.66,1.66,0,0,1-.37.94c1.41.25,3.06-1,4.24-1.61a10.68,10.68,0,0,1,2.93,1.35c.39.29.42,3.21.46,3.78l-.09.18a12.6,12.6,0,0,1,.58,2.12c.08,1.46-1.37,3.31-1.37,4.85,0,1.21.16,2.48.23,3.69,0,.1.2.58.24.72a5.72,5.72,0,0,1,0,1.17l.82.64c.62-.78.7-4,.94-5.08a27.17,27.17,0,0,0,1.09-6c0-1-.09-2.06-.13-3.08,0-.3-.21-.4,0-.82l1-.67c2.28-1.42,4.66-3.18,5.92-5.53a8.83,8.83,0,0,0,.45-2.77,3.62,3.62,0,0,1,.17-.56l.59-.36c1.25.36,1.95-.57,3.1.44a3,3,0,0,1,1.51.25c1.06,1.07-.48,3.66-.23,5.16l.54-.76a17.9,17.9,0,0,1,1.71-.83,15.83,15.83,0,0,1,1.71-.51,12.15,12.15,0,0,1,4.83.83c.63.39,1.25.94,1.85,1.38,0,0,.34.74.36.79a28,28,0,0,1,3.55-.54,15.72,15.72,0,0,1,1.89.36l.29.24a14.86,14.86,0,0,0,4.57-1.25c1-.46,3.52-2.19,4.71-1.78.42.21.61.59,1,.82,4.87,2.82,4.49,1.83,9.74,2.93.7,0,1.43,0,2,.08.82.13,1.64.48,2.46.6a19,19,0,0,0,2.14.1c.27,0,.75-.29,1.17-.23s.94.43,1.44.23l.87.51a22.74,22.74,0,0,1,5.14.3l.21.19a1.2,1.2,0,0,1,1.38.55,1.65,1.65,0,0,1-.51.4c-.42-.06-1.94,0-1.91.7,1.53-.1,4.41.09,5.3-1.5l1-.37.47-.64.45.07.61.76c-.08,1.23.54,1.48.58,2.23l-.18.32c.27.93-.88,3.64-1.16,4.49s-.35,1.65-.63,2.45c.18.46-.17.8-.13,1.24a23.77,23.77,0,0,0,.65,5.06c.83,2.31,2.49,5.29,4.8,6.46.9.45,1.95.8,2.89,1.19a2.53,2.53,0,0,0,1.08.23c.57-.12.91.21,1.34.3a4.6,4.6,0,0,0,3.07-.61l.59.27c.79,1,1.26,4.59,1,5.85l.11.17-.11.42c.67,1.55-1,3.48-.54,4.38a9.55,9.55,0,0,0,.23,2.81c0,.13-.07.27-.05.39a10,10,0,0,0,1,3,1.19,1.19,0,0,0,.16.23,15.4,15.4,0,0,0,6.47,5.13,3.71,3.71,0,0,0,2.54-.18c1.91,0,2.27.6,3.82-1.1h.32a7,7,0,0,0,1.59,1.53c1.69.68,5.93,1.31,6.41,3.53-.38,1.43,0,1.15.24,2.41.22,1,.33,2.06.49,3.07.2,1.23-.86,2.25-.87,3.42a13.45,13.45,0,0,0,.19,1.89,12.85,12.85,0,0,0,1.26,3.19A27.11,27.11,0,0,1,333.16,132.63Z" />
        </g>
    </g>
</svg>