<svg id="Layer_1" data-name="Layer 1" xmlns="http://www.w3.org/2000/svg" viewBox="0 0 258.22 290.82"><defs><style>.cls-1{fill:#fefee9;stroke:#0978ab;stroke-linejoin:round;stroke-width:1.42px;fill-rule:evenodd;}</style></defs><title>Aceh</title><g id="Aceh"><path class="cls-1" d="M312.3,158.2a12.66,12.66,0,0,1,.6,2.8,3.77,3.77,0,0,0-.7,2.1l-.6.5c0-.1,0-.1-.1.1,0,0-3.4.4-4.3,0s-1.3-.5-1.8,0a2.21,2.21,0,0,1-1.8.6,1.34,1.34,0,0,0-1.4,1.1,1.54,1.54,0,0,1-1.6,1.4c-1.1,0-1.1,1-3.3.1s-1.8,1.6-1.8,1.6a11.38,11.38,0,0,1,1.8,1.9c.5.8-.4,2.4-2,2.3s-.9,1.8-.4,2.6.3,2.1-.9,2.1-1,3-1,3.5a14.76,14.76,0,0,0,.3,4c.4,1,.8,2-.8,2.9s-.4,1.8-.6,3.1-2,1.8-3.3,1.8a3.09,3.09,0,0,0-1.9.5,17,17,0,0,0-1.4,2.4c-.3.8-1,2.4-2.3,2.6s-2.1-1.5-2.1-3.5-1.6-.8-1.6-.8a44.65,44.65,0,0,1-2.9,3.5c-1.5,1.6-.8,3.4-.9,4.1s-1.1,1.6-1.8,2.4a8.12,8.12,0,0,1-3.5,2.4c-1.2.3-.6,2.9-.6,2.9a7.92,7.92,0,0,1,1.9,1.9c.5.9,2.4,3.5,2.6,4.1a5.75,5.75,0,0,1,.6,2.5,3.09,3.09,0,0,0,1,1.9l4.6,6.5s1.8,2.8,2.4,3.8.1,4.6-.3,5.8.5,1.5,1.3,2,1.6,2.8,2.3,3.6,3.6,2.6,4.3,3.1,0,2-.3,2.5-3,3.3-3,3.3l-2.1.8a6.57,6.57,0,0,1-2.4,1.5c-.9.1-.6,1.8-.4,2.3s1.5,3.4,1.6,4,3,3.9,3.8,4.8.1,1.5,0,2.3-1.4,1.6-2,1.6a3.29,3.29,0,0,0-2.6,1.6c-.5,1.1-.3,2,.5,3.8s.3,1.8-1,2.6-1.4,3-1.5,4a3.28,3.28,0,0,0,.5,1.9,17.16,17.16,0,0,1,4,.8,5.41,5.41,0,0,0,3,.3c.6-.1,1.3.8,1.9,1.3a15.41,15.41,0,0,1,1.8,2.9h3.1a12.89,12.89,0,0,0,1.3,1.9,1.93,1.93,0,0,1,.4,1.4,17.25,17.25,0,0,1-1.4,2.4c-.9,1.3.8,4.3.9,4.9a17.81,17.81,0,0,0,1.6,2.9,1.6,1.6,0,0,1-1,1.3,2.76,2.76,0,0,0-1.6,2c0,.5,0,.9-1,2.3s-.3,4.6-.3,5.6a17.59,17.59,0,0,0,.4,2.8,23.58,23.58,0,0,1,1.8,2c.5.7.9,4,.9,4a7.69,7.69,0,0,0,2.4.5c1.5.1.8,1.1.8,1.9a9.32,9.32,0,0,0,2.1,4.4c1,.9.5,3.4.5,4.9s0,2.9-1.1,3.9,0,2.5-.6,3.5a17.6,17.6,0,0,0-1.2,3.4,18.62,18.62,0,0,0-3.8-2.9c-1.3-.7-2.5-1.4-3.7-2-.6-.3-1.3-.5-1.9-.8-1.8-1-3.5-2.3-5.5-2.9-.1,0-.7.1-.8,0-.7,0-1.3-.4-2-.1-1.6,1.3-2.2,4.1-4.5,2.1l-.2.2h-.5c-1.4-.7-2.3-2.3-4-2.4-.8.5-.5,1.9-1.2,2.4l-.2.1a3.51,3.51,0,0,0-.8-.5c-.2-.8-1-1.1-1.6-1.6-1.2-1.1-1.2-2-1.7-3.4a12.44,12.44,0,0,0-2.3-3.2c-.1-.1-.2-.3-.3-.4-1-1.1-2.2-2.2-3.1-3.4s-.7-6.3-.7-8.1c0-.8-.2-1.5-.2-2.3s.1-1.4.1-2.1c0-1-.2-2-.3-3v-.3c.3-6.1-1-11.9-2.6-17.8a30.88,30.88,0,0,0-1.8-5.9c-.3-.6-1.7-2.1-2.5-2.2a1.49,1.49,0,0,1-.7.3l-.5-.3c-.3-.1-1.2.4-1.5.6l-1.5-.6c-.1-.2-.5-1.2-.7-1.2l-.5.2c-1.5-1.5-2.2-.6-4.3-.8-.1,0-1.6-.5-1.7-.5-.9-.3-4.3-3.6-5-4.4-.4-.5-.7-1.2-1.1-1.8-1.2-1.6-2.4-3.1-3.5-4.7,0-.1-.1-.6-.1-.7l-.3-.1-.2-.6.3-.4v-.3a1.79,1.79,0,0,0-.7-.5c-.1-.2-.6-1.2-.5-1.5l.6-.2v-.3l-.3-.3-.4.1c-.3,0-.9-1.7-1-2.2l.3-.3c-.9-.9-1.5-5.7-3.8-7.3-.4-.2-1.1.1-1.5.3l-.4-.3-.1-.7c-1.4-.8-1.5.1-2.5-1.5l-.5.5h-.4l-.3.3c-.7-.4-.6-.8-1-1.3-.1-.1-.4-.3-.5-.4s-.1-.5-.2-.6a5.72,5.72,0,0,0-.7-.8c-.5-.7-.4-2.2-1.8-2.4V247a1.19,1.19,0,0,1-.5-.9c.7-1.5-.5-1.5-1.2-2.5-.9-1.2-1.1-2.1-1.8-3a8.7,8.7,0,0,1-.9-1.1c0-.1-.3-.9-.3-1l-.7-.5.2-.7a2.38,2.38,0,0,1-.6-1.1l-.7-.2v-.7c-.6-1.3-2.6-2.8-2.5-4.3-1.6-1-1.3-2.2-1.7-2.5h-.4c-.6-1.3-3.7-1.7-4.8-2.3l-.6-.6c-1.5-1.1-1.7-.7-2.6-2.6l-.3-.6c.6-.9-.5-3.5-1-4.4a8.2,8.2,0,0,0-2.4-2.5c-1.1-.6-3.5-.9-4.1-2.2l-.6-.1-.3.3a5,5,0,0,0-4.1-1.2l-.3-.3.1-.5c-.2-.1-.7-.4-1-.3l-.1.3.4.4v.2l-2.6.1c-.3-.1-.5-.8-.4-1.1l-.5.4-.7.2c.2,0,.7.1.8.4l-.2.1c-.2,0-2.6-.3-2.7-.3s-.5.3-.7.3a5.65,5.65,0,0,1-1.3,0c-.5.1-1,.5-1.4.5a9.7,9.7,0,0,1-1.7.1,14.7,14.7,0,0,0-2.1,0,10.89,10.89,0,0,1-2.6.5,5.7,5.7,0,0,1-1.3-.1c-2.1-.5-6.5-4.9-8.3-6.6a20.62,20.62,0,0,1-2.6-2.5l-1.8-2.4a7.64,7.64,0,0,1-.9-.9c-.2-.2-.2-.5-.3-.7-.4-.5-.9-1-1.3-1.6-.8-1.1-1.4-2.4-2.1-3.6-.4-.7-1-1-1.5-1.6a14.31,14.31,0,0,0-1.1-1.5l-.3-.3c-.2-.3-.3-.8-.5-1.1a22.58,22.58,0,0,0-2.5-2.9c-.1-.1-.4-.3-.6-.5a.37.37,0,0,0-.2-.3,30.12,30.12,0,0,0-6.9-6.9h-.6c-.4.1-.8.7-1,1h-.4c-.3-.3-.2-.7-.4-1a26.58,26.58,0,0,0-3.2-3.5c-.5-.5-2.6-2.9-3.5-1.8l-.7.8-.2.1c-.8-.3-.5-.7-.8-1.2a6.62,6.62,0,0,0-1.5-1.9c-.6-.5-2.1-1.7-2.3-2.4l-.3.1c-.8-.9-1.7-1.8-2.5-2.7-.2-.2-.3-.6-.5-.8l-3.9-4.4a60.17,60.17,0,0,0-5.1-5,8,8,0,0,1-2.1-2l.3-.2-.8-.2a36.94,36.94,0,0,0-6.6-6.5v-.4h-.6c-.8-1.1-3.4-3.6-4.8-4l.1-.4a15.93,15.93,0,0,0-1.3-1.3l-.3.1-.3-.1a4.74,4.74,0,0,0-1.4-1.7,20.36,20.36,0,0,1-2.2-.9l-.3.2v.4l-.3.1-.3-.5-.5-.1-.1-.3H88v-.8c.3,0,.8-.4,1.1-.6l-.9-.9h-.5l-.5-.3a2.84,2.84,0,0,0-.6.9l-.3.2-.5-.2-.3.2a1.76,1.76,0,0,1,.2-1.4c-.8-.4-1.3-2.8-3.1-3.5l.9-.3c-.3-.5-.7-1-1-1.6-.3,0-.6-.5-.7-.7l.1-.4a4.18,4.18,0,0,1-1.1-1.5,11,11,0,0,1-2.5-1.7l.2-.4-.8-1.4a1.42,1.42,0,0,0-1.1.1l-.5-.3a1.19,1.19,0,0,0-.5-.9l-.6-.1-.1-.2,1-.2.2-.4c.3-1.1-1.5-2.9-2.3-3.3-.2-.6.4-1.2.2-1.7s-1.2-2.6-2-2.6l-.5-2.2a2.19,2.19,0,0,1,1-.9,4.19,4.19,0,0,0-.9-1.4l.1-.3c-.5-.5-.2-1.2-1.3-1.8l-.2-.9.7-.2V107l-1.5-2.1-.4-.2-.4.2a3.07,3.07,0,0,1-.5-1.3c-.4-.4-1.3-1.6-1.9-1.6l.2-.2h.7a4.33,4.33,0,0,0-1.3-2.5l-.3.4-.5-.9-.5-.2.1-.5a1.47,1.47,0,0,1,.6-.5l.6.2.7-.9-.2-.2c-.4-.7.8-2.8-.7-4.5-2-.6-2.6-.9-3.4-2.7l-1.5-.3.2-.4a2.77,2.77,0,0,0,.9-.1,4.24,4.24,0,0,0-.6-1.9l-.4-.3-.3.5-.1-.8.9-.5c-.3-.9-.6-1-1.3-1.5,0,.4-.5.9-.8,1.1l-.5-.2-.1-.5a2.35,2.35,0,0,0,.5-1.3,1.78,1.78,0,0,1-.4-1l.6-.5-.3-.6.3-.2.8.3.4-.3-.2-.5-.3-.1-.1-.6-.3-.1-.1-.4.3-.3.1-.9.4-.2-.1,1.3.5.4.2-1.7.6-.6a16.84,16.84,0,0,0-.6-4.5l-1-.5.8-.8a3.77,3.77,0,0,0-1-3.9l.2-.7a3.26,3.26,0,0,0-1.8-.8l-1.5-1.7a7.82,7.82,0,0,0,1.8-3.2,3,3,0,0,0,.8-.8,1.15,1.15,0,0,1,1-.1l.5.6-.1.4.5.7a3.86,3.86,0,0,0,2.8-.2l.3.2.2-.3v-.6l3.4-2.3.4.3a4.19,4.19,0,0,0,1.6-.4l.3.2c1.7-1.2,2.7-2.9,4.2-4.3a17.1,17.1,0,0,1,2.3-1.3h.2c1.4.4,2.4.5,3.2,1.9.1.1.2.7.3.8a17.11,17.11,0,0,0,1.8,2,15.52,15.52,0,0,0,2.1.4l.5-.2V57l1,.2.4-.5,1.6.2c.3-.4,1.3-.3,1.7-.5.6-.2,1.1-.6,1.7-.8a2.49,2.49,0,0,1,.8.1l.3.4v.7h.3a35,35,0,0,1,4.2,2.4c1.1.6,2.7.6,3.8.9,1.4.4,2.5,1.3,3.8,1.8a6.37,6.37,0,0,0,.7.2l1.3.4c.4.2,1,.6,1.4.8a12.5,12.5,0,0,1,1.9.3c.8.3,1.7,1,2.5,1.4.2.2.7.2,1,.4,1.3.6,1.4,1.6,1.9,2.8-.1.3-.6,1.6-.4,1.9a3,3,0,0,0,1.3,1.2l.2.7-.2.2.5.1a10,10,0,0,1,1.4,1.5l.1.5.8-.1c3.4,2.7,5,4.2,8.8,6.1l.4.3c2.1,3.7,2.5,3.2,6.7,3.8.7.1,1.2.7,1.8.9a11.14,11.14,0,0,0,5.1.5l3.7.1,4.1,2.1a25.57,25.57,0,0,0,2.7.7c1.5.5,3.4,1.4,5,1.3.3,0,.8-.3,1.1-.3a2.77,2.77,0,0,0,.9-.1c.9-.4,1.9-1,2.8-1.5h.3c1.3,0,.4,3.1,3.7,3,2.1,0,3.9-.7,5.9-1a28.1,28.1,0,0,0,2.9-.1,32.84,32.84,0,0,0,6.7-2.2,22.47,22.47,0,0,1,2.1-1.2c1.2-.5,3.9,0,4.5-.7.5,0,2.5-.2,2.8-.8l.3.1a7.31,7.31,0,0,1,3.6-.4l.1.2-.2.2a4.88,4.88,0,0,0-1.7-.1l-.3.2a3.72,3.72,0,0,1,2.3.5l.3-.2h.4c2.7,3,5.8-.4,9,.1.5.1,1.1.2,1.5.3a4.35,4.35,0,0,0,.7.4c.9.3,1.8.5,2.6.8,2.4,1.5,3.6.8,5.5,2l.3.5a5.73,5.73,0,0,1,1.4.4c2.4,1.3,1.8.5,2.8,2.7.1.4-.6,1.2-.9,1.5a4.28,4.28,0,0,1,1.3.9c1.3.9,4,.3,5.4.1a8.26,8.26,0,0,0,2.2-.8c.4-.2.7-.7,1.2-.9.2.1.5-.2.8-.2a2.72,2.72,0,0,0,.9,0c.9-.2,1.5-1,2.3-1.4a11.63,11.63,0,0,1,1.8-.4h.4l2-.7h.5a3.51,3.51,0,0,0,.8-.5c.5-.2.9-.2,1.4-.4,1.2-.4,2.4-.9,3.6-1.2,0,0,.2-.1.2-.2.8.2,1.7-1,2.6-.9.1-.3,1.6-.9,1.9-1,1.6.3,3.3,2.9,3.8,2.7.1.2.4.5.4.7-.5.2-1.3-.2-1.6,0l-.1.5.2.1.4-.3a5.28,5.28,0,0,1,2.9,1.4l.1.2-.4.4a1.53,1.53,0,0,1,.3,1.8l-.5.2c.4.1,1.3.7,1.4,1.1l-.7.6.3.2.2-.1a2.28,2.28,0,0,1,.9-.8c.7-.1,1.6.9,2.1,1.3-.3.2-.7.7-.6,1l.3.3.3-.7c.7-.1,2.6-.3,3.1.2a4.48,4.48,0,0,1,0,2.3l-.4-.8-.3.1a3.08,3.08,0,0,0-.1.9c.2,1.3.9,1.6,2.1,2.2l.3.8a8.18,8.18,0,0,1,2.5,2c1.3,1,2.3,2.1,3.5,3.2.9.8,1.8,1.5,2.7,2.3a25,25,0,0,0,2.3,2.3c.3.2.7.4,1,.6,1.2.8,2.3,2,3.7,2.5a29.92,29.92,0,0,0,3.2.8,43.66,43.66,0,0,1,1.9,4.8c.2.6.6,1.1.8,1.7s.7,2.9.8,3.1l.8,1.9-.1.4.8,1.3a6.53,6.53,0,0,1-.6,2.4,3.29,3.29,0,0,0,.7,1.6l-.2.5.1.3a13.08,13.08,0,0,1,2.3,2.4l.3.1.2.3-.1,1.4a3.7,3.7,0,0,1,.5,1.1l.2-.4-.4-1.3.2-.3,1.3.7.1.5a7.81,7.81,0,0,0-1.6,2.1c-.1.1-.6.5-.7.6a7.6,7.6,0,0,1-.4,1.1l-.8.5-.1.4.3.6c.2.8-1.4,1-1.4,1.5v.3h.2l.4-.4a1.23,1.23,0,0,0,.8-.4,1.27,1.27,0,0,1,.4-.7l.3.9c.3,0,.8.4,1.1.6a2.45,2.45,0,0,1,1.7-1.1,3.09,3.09,0,0,1,1.4-.7l-.4,1.2c-.4.2-1.5,1-1.5,1.5l.4.9.2.1h.4c.1.1.2.3.3.4l-.2.2.6-.5-.1-.3-.4-.4H291l-.2-.2c-.1-.4.6-1.2,1-1.4h.9c.8-.3,1.4-1.3,1.9-2l.4-.1c.5.3.6.9,1.1,1.2l.1.3a3.15,3.15,0,0,0-.8,1.5,1.76,1.76,0,0,1-1.4-.2,1.57,1.57,0,0,0,.4,1.3l.2-.1.1-.4.2-.2h.6a4,4,0,0,0,.8,1.6,5.63,5.63,0,0,0,0,1.3l.2-.1.3-.4-.1-.4.2-.2c.1-.4-.5-1.1-.7-1.3v-.3l.3-.5v-.8l.3-.4,1.3.1.7.6.5-.3a2.25,2.25,0,0,1,2,.9l1.1.1c.9.4,2.3,1.6,2.4,2.8.3,0,1.1-.3,1.3-.2l2.7,1.8c.1,0,.1.1.2.2l-.1.3-.2.2-.2.9c.5.5,1.4.4,2,1l.4.9-.2.6.8-.1.3-.3-.5-.2a2.45,2.45,0,0,0-.4-1.2c.3-.2,1.1.1,1.3.3v.4l-.2.3.1.2,1-.6.3.1a6.08,6.08,0,0,0-.9,1.8l-.3-.1c-.2.2-.1,1-.1,1.3Z" transform="translate(-55.89 -52.59)"/></g></svg>