<svg id="Layer_1" data-name="Layer 1" xmlns="http://www.w3.org/2000/svg" viewBox="0 0 230.22 220.52"><defs><style>.cls-1{fill:#fefee9;stroke:#0978ab;stroke-linejoin:round;stroke-width:1.42px;fill-rule:evenodd;}</style></defs><title>Bengkulu</title><g id="Bengkulu"><path class="cls-1" d="M767.6,917.3a6.86,6.86,0,0,1-3.8,1.2c-1.3,0-1.6,1.8-2.9,2.7s-1.8,1.8-2.9,2-2.4,1.8-4,2.2a3.78,3.78,0,0,0-2,2.3h-.3c-.6,0-1.3.4-2,.4-1.1,0-2-1-3.2-.9-3-4.3-1.9-2.8-6.6-4.2-.3.3-1.3-.2-2.7.8l-.5-.1c-.3-.2-1-.8-1-1.3l.4-1.1a1,1,0,0,0-.1-.3c-1.1-1.7-1.6-2.9-3.7-3.3a1.66,1.66,0,0,0-1.2,0l-.2.2v.6l-.4.4h-.4a7.1,7.1,0,0,1-2.2-2.4l.1-.4.6-.3c0-1.5-1.1-1.8-2-2.8-.6-.7-.7-1.8-1.3-2.3-.4-.3-1.2-.6-1.5-1-.1-.1-.6-1.1-.7-1.3l-.1-.4a9.38,9.38,0,0,0-1.2-.9c-.2-.2-.4-.6-.6-.8-.4-.4-.9-.6-1.3-1l-1-1c-.3-.2-.7-.3-1-.5a12.58,12.58,0,0,1-3.2-2.9c-1.6-.3-2.5-2.1-4.2-1.8-.7-.7-1.6-.8-2.4-1.3s-1.5-1.2-2.3-1.6a41.41,41.41,0,0,0-5.9-2.1,8.43,8.43,0,0,0-1.4-.6h-.8c-1.5-.3-3-.7-3.9-2,1-2.9-4.5-6.2-6.2-7.9-.7-.6-1.2-1.6-1.8-2.2a31.94,31.94,0,0,0-3.8-2.6c-2.2-1.5-2.2-2.3-3.8-3.8-1.3-1.2-6.9-4.7-8.6-5.9-.6-.4-1-1-1.6-1.4l-1.5-.9c-.7-.6-1.3-1.2-2.1-1.8-1.7-1.3-3.6-2.3-5.3-3.5-.3-.2-.5-.5-.8-.7s-.9-.5-1.4-.8c-2-1.4-3.8-2.9-5.8-4.3a45,45,0,0,1-5.1-3.8l-.2-.6c-.7-.6-1.5-.3-2.5-1.7s-.8-3.5-1.9-5a1.44,1.44,0,0,0,1-1,2.85,2.85,0,0,0,1.9-1.8l.3-.1.2.3v.5c-.7,1.3-2,1.6-2.2,2v.3l.5.5a2.84,2.84,0,0,0,1.2-.4c.4-.5,1.3-2.4,1-3.1l-1-2a5.85,5.85,0,0,0-1-1.7v-.2c-.2-.3-.5-.4-.7-.6-1.2-1.2-.6-1-2.3-1.8-.3-.1-.5-.5-.7-.8.1-.4,1-1.1,1.3-1.3.1-2.3-1.4-3.2-2.1-5.1l.1-.3.4-.3.2-.6a30.49,30.49,0,0,0-1.9-3,12.49,12.49,0,0,0-1.2-.9c-.3-.3-.5-.7-.8-1a21.16,21.16,0,0,0-2-1.2,13.08,13.08,0,0,1-2.4-2.3,11.35,11.35,0,0,0-1.9-1.2c-1-.5-1.5-1.6-2.5-2.2-1.2-.8-2.5-1.4-3.7-2.1a.35.35,0,0,1-.1-.2c-1,.1-3.6-1.9-4.4-1.7-.7-.6-4.6-3.1-5.5-2.8l-.1-.3.2-.4-.1-.6c-1-.8-1-2-2.2-2.7-.3-.2-.6-.2-.9-.4-1.1-.6-2.1-1.4-3.2-2s-2.1-1.1-3.1-1.8c-.2-.1-.4-.1-.6-.2a11.32,11.32,0,0,1-1.3-1c-.3-.3-.5-.6-.8-.9a37.13,37.13,0,0,0-4.1-2.8c-1.1-.7-2-1.5-3.1-2.2a10.91,10.91,0,0,1-1.1-.6,9,9,0,0,1-1-.9c-1.4-1.1-2.9-2.2-4.4-3.3-.2-.2-1.6-2.1-1.8-2.4-1.9-2.5-3.4-5.5-5.7-7.5a1.81,1.81,0,0,0,.1-1.6c-.8-2.6-3.2-2.3-2.8-4.9l-.2-.4.1-.3-.2-.4c-1.1-.3-7-8.3-7.7-9.8-.6-1.3-.9-2.8-1.5-4.2l-.1-.2c-.5-1-1.1-2-1.5-3-.3-.7-.5-1.5-.8-2.2a23.26,23.26,0,0,1-1.7-2.6,5.09,5.09,0,0,0-.7-1.7l-.3-.5a17.68,17.68,0,0,0-3.2-2.1,28.17,28.17,0,0,0-3.8-2.1c-3-1.1-4.3-1.5-6.7-3.8a25.81,25.81,0,0,1-3.5-4.5c-.5-.7-1.1-1.3-1.6-2a7.46,7.46,0,0,0-.9-1.5c-.9-1.2-2.2-2.1-3.1-3.2a10.63,10.63,0,0,1-.9-1.1l3.4-2.5,9.3-6.4a3,3,0,0,0,2-.8,9.55,9.55,0,0,1,2.9-2.4,7.15,7.15,0,0,0,2.3-1c.5-.5,2.9-4.3,2.9-4.3l21.9,14.1s-.3,5.9-.4,6.9a26.18,26.18,0,0,0,0,2.9,3,3,0,0,0,1.5-1.1c.5-.9-.9-1.4,1.6-1.1s2.8,1.4,4.4-.3,2.3-1.4,2.8-.6,2.4,4,3.4,4.6,3.1,4,4.6,4.8,2.9,1.6,3.1,2.1,3.3,2.6,3.4,3.1a5.69,5.69,0,0,0,3.1,2.1c1,.1,2.8.5,4.1,0s3.4-1.5,4.1-.6,1.9,2.5,2.6,2.6,3.1.1,3.3,1.1h0a3.25,3.25,0,0,0,2.3,2.8c1.5.4,3.1,2.4,3.1,2.4l.1,2.6a4.5,4.5,0,0,0,1,1.4c.6.5,3.3,2,4,2.6s2.9.4,2.9,2.4a14.73,14.73,0,0,0,.6,3.9l1.1,1.8s.4,2.1,1.6,2.1,2.6.1,3.1,1a2.61,2.61,0,0,0,2.4,1.3c.6-.3,3.5-1.5,3.5-1.5s1.8-.5,2.5-.1,4.3,1.9,4.8,2.3a4.25,4.25,0,0,1,.8,1.8l1.5,1.3.4,4.4s-1.1,2.6.1,3.8.5,1.9.4,2.4a3,3,0,0,0,.8,2.4c.6.6,4.2,3.3,4.2,3.3s3.5,2.3,4,3.1,3.6,1.6,4.7,0,1.3-2.7,2.8-2.7a7.47,7.47,0,0,0,4.5-1.3c1.1-.9,3.5-1.8,4,.2s.9,2.7,2.5,2.7h4.3a18.72,18.72,0,0,1,.2,2.4c0,1.1,1.7,2,2.9,1.3s5.1-1.6,6.4-.9.9,2.5.9,3.4-1.6,8.9-1.6,8.9a6.8,6.8,0,0,1-1.9,2.6c-1.1.7-3.8,5.6-3.8,5.6s-.8,1.1-2-.7-3.1-4.3-4.2-4.9-4-3.1-3.6-.2a17.44,17.44,0,0,1,.2,4.9c0,.9.7,2.6-1,3.3s-4.3,2.2-4.3,4a8.71,8.71,0,0,1-1.1,3.7l-2.6,1.6s-4.5,2.5-5.6,2.9-1.3.9,1.1,1.8,2.3.8,2.9,2,.4,2,1.9,2.7,2.2,2.2,3.1,2.7,3.6,1.9,3.8,3.7,1.3,1.8,2.4,2.2,3.1,1.3,3.1,1.3l2.2.5,1.5-1.1a1.7,1.7,0,0,1,2.5,0c1.1,1.3,1.8,2.1,1.1,3.4s-.9,4-1.1,5.1.7,2.2,1.3,3.1a16.67,16.67,0,0,0,3.6,2.5,37.18,37.18,0,0,0,3.7,1.6l2.7,2.2a18.33,18.33,0,0,0,4.4,1.3,9.65,9.65,0,0,1,5.2,1.5c1.5,1.1,3.5,1.3,4.6,1.8a12.67,12.67,0,0,0,4,.9c.9,0,1.6-.2,2,1.1s2.9,2.7,2.9,2.7a24.78,24.78,0,0,0,4,.6,23.7,23.7,0,0,1,4.7.9l-1.8,1.1s-1.6.9-1.6,2-.5,3,.9,3.8a14.84,14.84,0,0,1,2.7,2.4s1.6,1.1.7,2.2-1.8,3.7-.9,4.9a18.88,18.88,0,0,1,1.9,3.4l1.6,1.1a20.88,20.88,0,0,1,3.6,0,18.93,18.93,0,0,0,4.9.5c1.1-.2,2.5-.6,3.6.7s1,1.3,2,1.7,3.5,4.3,4,5.8.7,2-.2,2.6-2.2,1.8-2.2,1.8l3.4-.2,2.9,1.1,1.5,2.9C766.4,916.2,766.8,917,767.6,917.3Z" transform="translate(-538.09 -708.29)"/></g></svg>