<svg id="Layer_1" data-name="Layer 1" xmlns="http://www.w3.org/2000/svg" viewBox="0 0 281.02 168.42"><defs><style>.cls-1{fill:#fefee9;stroke:#0978ab;stroke-linejoin:round;stroke-width:1.42px;fill-rule:evenodd;}</style></defs><title>Jambi</title><g id="Jambi"><path class="cls-1" d="M825.8,658l-2.2-.6s-2.4-.8-3.4-1.3-2.4,0-3.1.1a4.09,4.09,0,0,0-2.3,1.8,8.14,8.14,0,0,0,0,4.1c.3.6-.6,1.5-1.4,1.5s-4.1.4-4.1.4a4.7,4.7,0,0,1-3.8.5,3.81,3.81,0,0,0-3.4.3c-.6.1-3.3,1.9-4.3,2.3a24.74,24.74,0,0,1-5.3,1c-1,0-3.3-.9-3.9-.9l-8.5-.1s-2-1.5-2.5-1.9-2.3-.4-3.5-.3a3.4,3.4,0,0,0-2.8,3c-.3,1.7-2.5,1.4-3.3,1.4s-6.6-.3-7.9-.3a23.07,23.07,0,0,0-4.3.9l-5.1-.5c-1.1-.1-4,1.1-4.4,1.8a18.44,18.44,0,0,1-2.3,2.5,11.17,11.17,0,0,1-3.8,2.1c-1.3.2-1.1,1.3-1.6,2s-.8,1.4-.3,1.8,7.9,4.8,8.5,4.9,1,2.8,1,3.3a3.24,3.24,0,0,1-1.1,2.6c-1,.7-2.6,1.9-2.4,3.1s1.8,2.6,2.6,3,1,.9.5,1.4a39.42,39.42,0,0,1-3.6,2.3,16.06,16.06,0,0,1-3.9.4c-1.8-.1-1.6,3.4-1.3,4.1s.4,6,.1,6.8,0,1.5.3,2.6-.5,1.5-1.4,1-2.5-1.1-3.1-2.3-3.8-3.6-4.5-4.4-1.4-1.1-1.5-2-.5-1-1.4-1.1-1.8-1-1.5-1.6a3.52,3.52,0,0,0-.1-1.9s-1-2.5-1.5-3.4-1.5-1-2.6-1.3a1.84,1.84,0,0,0-2.1,1.6c-.1.9-.1,1.3-.6,1.3s-2.5,2.1-2.9,2.9a3.64,3.64,0,0,0-.5,2.1c0,1,1.5,1.6,2.4,2.3s.6,2.5.6,3.4,0,1.6-.5,1.8-1.9,1-2.4,1.1a7.14,7.14,0,0,0-2.6,1.5c-.7.7-1.5-.3-3.1-.4s-2.3-.3-2.4-1-1.6-1.5-2.6-1.5-1.1.6-.8,1.1.5,1.4-.1,1.5a3.18,3.18,0,0,1-2.3-.6c-.9-.6-1.9-1.3-4.9-1.3s-2.1,0-2.5-.5-2.8-.3-2.8-.3a28.29,28.29,0,0,1-1.9,2.9c-1,1.3-1.1,1.8-.5,2.3s1,.9,1.8,1.6,0,1.8-.5,2.3-2.3,2.4-2.8,3a10.13,10.13,0,0,0-1.5,3.4c0,.6-1.6,1.9-1.6,1.9s0,1.4-.5,1.8-2.4,1.6-2.9,1.9-1.1.5-2.3-.5-.6.1-.9.6-.8,1.1-1.3,1.1-1.6,1.1-2,1.6-1.3.5-1.9.5a4.82,4.82,0,0,0-1.5.4l-1.8,1.9a4.37,4.37,0,0,0,.3,2c.4.8-2.5,1.8-2.5,1.8a7.39,7.39,0,0,0-3-.8,4.24,4.24,0,0,0-3,1.4c-.5.5-.8,1-1.5.9s-4.5-.4-5.4-.6-3.5-1.6-3.5-1.6a9.1,9.1,0,0,1-1.4-1.8,1.9,1.9,0,0,0-2.6-.5c-.8.6-2.9-.8-3.4-1.1a3.47,3.47,0,0,0-2.3-1.1c-1.5-.2-1.3,0-2.1.9s-1.3,2.4-.9,3-.3,2.3-.3,2.3a10.79,10.79,0,0,1-3.3.6c-.8-.1-4.3,1.8-5.8,2.4s-2,2.5-2.4,3-2.5.5-2.5.5c-.1-1-2.5-1-3.3-1.1s-1.9-1.8-2.6-2.6-2.8.1-4.1.6a9.4,9.4,0,0,1-4.1,0,5.69,5.69,0,0,1-3.1-2.1c-.1-.5-3.1-2.6-3.4-3.1a8.86,8.86,0,0,0-3.1-2.1c-1.5-.7-3.6-4.1-4.6-4.8s-2.9-3.9-3.4-4.6-1.1-1-2.8.6-1.9.5-4.4.3-1.1.3-1.6,1.1a2.41,2.41,0,0,1-1.5,1.1,26.18,26.18,0,0,1,0-2.9c.1-1,.4-6.9.4-6.9l-21.5-13.9h0s1.1-4.3.9-6.1a65.47,65.47,0,0,0-1.9-7.4c-.4-1.1-3.1-8.1-3.1-8.1a7.08,7.08,0,0,1-2.5-1.4,43.94,43.94,0,0,1-3.6-4.6l-3-5s-1.1-12.6-1.1-13.8.6-4.1,2.4-2.8,2.3.4,2.5-.4,1.3-1.1,1.9.5a2.29,2.29,0,0,0,3.4,1.4,8.62,8.62,0,0,1,3.8-1c1.1,0,3.4,0,3.8-.5s3.3,0,4.5-.5,1.8-1.1,2.5-.3,3,.9,4.1.9,2,0,2.4-1.5,1.6-4.5,3.3-5.4,3.4-3.1,4-3.3a9.2,9.2,0,0,0,3.3-2.1c.5-.7,1.3-1.8,1.9-1.8a7.26,7.26,0,0,0,2.8-1,7.48,7.48,0,0,0,1.5-2.4c.3-.6.5-2.3,1.3-2.6s1.1-2,.1-2.1-1.1-.4-1.5-1-.5-1.4.3-1.6,1.8-2.5,1-3.6a17.41,17.41,0,0,1-1.6-3.9l.4-1.9s1.5-1.4,1.5-2,1.5-1.6,2.6-1.6a4.45,4.45,0,0,0,2.6-1,3.44,3.44,0,0,1,2-.4,3.12,3.12,0,0,0,2-.6c.6-.5,2.8-2.6,2.8-2.6a4.51,4.51,0,0,1,.6-2.6,5.28,5.28,0,0,0,1.5-2.5c0-.6-.1-1.5-.9-.9s-1.3.8-2,.5-2.5-1-2-2a4.63,4.63,0,0,0,0-3.3,11.71,11.71,0,0,1-.6-2.4v-3.3a8.94,8.94,0,0,0,2.2.3,1.85,1.85,0,0,1,1.5-.8c1,0,3.4-.9,3.6-1.8s1-3.5,2.6-3.4,1.8-.6,3.9-1.9,2.8-1,3.4-.4,1.3,1.4,2,1.1a1.79,1.79,0,0,1,2.3.4c1,.9,4.3,2.4,4.8,1.4s1.1-1.3,2.6-.6,1.6.8,1.6,1.6,1.8,2.3,2.8,2.1,1.4-1.4,2.1-1.6,2.4-.9,3-1.1a2,2,0,0,1,2.3,1,10,10,0,0,0,1.1,2.1,1.84,1.84,0,0,0,1.6.5,4.9,4.9,0,0,1,2.6,1.3c.9.6,1.9,1.1,1.3,1.9s-1.8,1.3-1.1,1.8a3.36,3.36,0,0,0,3,.5c1.5-.3,2.1-.1,2.6.4a4.88,4.88,0,0,1,1.8,2.3c.3,1.1,1.9,2.4,2.6,2a4.71,4.71,0,0,1,3.5.1,15.75,15.75,0,0,0,4.4.6c.9,0,1.3-.3,1.9.6s1.1,1.4,2.4.9a8.28,8.28,0,0,0,3.1-1.9,4.93,4.93,0,0,1,2.9-1.9c1.3-.1,2.9-2.1,2.9-2.1a9.48,9.48,0,0,1,1.8-3,16.75,16.75,0,0,1,2.9-2.5c1-.5,3.1-2.4,3.8-2.6a49.09,49.09,0,0,0,5.3-4c.5-.6,2.6-4.3,3.1-4.9s4-6.9,4-6.9,8.4-.1,9.4-.1a36.29,36.29,0,0,1,4.4.8s14,2.6,14.8,2.8,1,.5,2.1,0,3.6-1.6,3.6-1.6l3.5-1.2c.2.1.5.2.7.3,1,.4.9,2,.8,2.9,1.7,1,3.4,1.7,5.1,2.7,0,.8.8,1.3.6,2.1l-.2.2a4.36,4.36,0,0,1,1.6,1.7l-.1.7a2.39,2.39,0,0,0,1.4-.5c.8-.1,1.2,1.7,1.3,2.2a3.22,3.22,0,0,1,1.8,1.2l.7-.1c.2,0,.4.3.5.5l.9.3.2.4.6-.1,1.5,2c2.3-.5,1.7-.3,3.2.6a5.17,5.17,0,0,1,1.3.6c.4.5.6,1,1.3,1.2.2.2.1.8,0,1.1l.5.9c.1-.2.4-1.1.6-1.2l1.2.2.2-.1.3.4,1.2.4c1-.6,4.1,0,4.9.1a3.19,3.19,0,0,0,1.4-.3,3.87,3.87,0,0,0,1.2-.3,5.52,5.52,0,0,0,1.3-.8c3.6-1.1,4,.6,6-.1a5.39,5.39,0,0,1,1.3.7c1,.5,1,.2,1.7.3a10.34,10.34,0,0,1,2.6,1.2c.9-.3,2.7,1.5,3.9,1.6.9.1,2-.3,2.9.2l.5.8c1.7,0,4.3-.4,5.7.9l.3.5,1.6-.2c1.4-.2,2.6-1.2,3.9-1.3,1.6-.1,3,.2,4.5-.4l.5.1.2.2.7-.6.9-.1a2.81,2.81,0,0,0,1-1.4l.9.5,1.2,2c.2.4-.2,2.7.5,3.8.3.4,1.6,2.1,1.5,2.7a3.18,3.18,0,0,0-.3.9c-.1.3.1.6-.1,1a15.3,15.3,0,0,0-1.4,4.1c0,.1.3,1,.3,1.1v.8c.7,1.4,1.3,2.9,2.1,4.2.5.9,2.3,2.3,2.3,3.4l-.2.4c.4.8.9,2.3.5,3.2l-.2.2.6,1.4c-.2.5.3,1.4,0,2-.2.4-.4.7-.6,1.1a13.17,13.17,0,0,0-.8,4.4c0,.5.4.9.4,1.4l.6,2.2a12.16,12.16,0,0,0,0,3.3l-.1.3a4.49,4.49,0,0,1,.5,1.9l.3.1-.1.5a15.14,15.14,0,0,0,1.8,4.4c.2.3.6.5.8.8C825.7,657.7,825.7,657.9,825.8,658Z" transform="translate(-545.49 -582.39)"/></g></svg>