<svg id="Layer_1" data-name="Layer 1" xmlns="http://www.w3.org/2000/svg" viewBox="0 0 193.72 184.49"><defs><style>.cls-1{fill:#fefee9;stroke:#0978ab;stroke-linejoin:round;stroke-width:1.42px;fill-rule:evenodd;}</style></defs><title>Lampung</title><g id="Lampung"><path class="cls-1" d="M942,926.6c.5.7.9,1.7,1.4,2.4l-.1.2a2,2,0,0,1-.9.5c-.3.8-1.8.7-2.4,2.4-.1.3,0,.7-.1,1-.3.8-1,1.5-1.1,2.3a30.26,30.26,0,0,0-.1,8.5c0,.5.3.8.4,1.3s-.2,2.4-.2,3.1c0,.3.2.7.2,1,0,1.2-.2,2.5-.1,3.7,0,.8.6,1.9,0,2.6a13.13,13.13,0,0,0-2.8,4.5,4.33,4.33,0,0,0-.1.5,40.21,40.21,0,0,0-.3,6c0,.5.3,1,.3,1.5s-.1,1.3,0,2a4.51,4.51,0,0,0,.3,1.1v.4c-.1.9-.1,2-.3,3-.4,1.7-1.7,3.9-1,5.7,2.5,1.9.5,3.7,1.1,4.8-.5.9-.2,1.1-.3,1.7,0,.1-.1.2-.1.3a9.29,9.29,0,0,1-.5,1c-.1.4-.2.9-.3,1.3-.4,1.5-1.5,2.8-2,4.3,0,.5.5.9.6,1.3a10.32,10.32,0,0,1-.3,3.9,1.62,1.62,0,0,0,.5.9,2.28,2.28,0,0,0-.8.9h-.2a2,2,0,0,1-.4.8v.3l-.3.2-.1.3.2.4-.3.8-.4.2c0,.6-.5.8-.7,1.2-.6,1-.4,1.7-1.8,2.1-.2.3-.7,1.2-.6,1.6l-.2.2h-.6l-.2.1-.2.5-.2-.3a4.48,4.48,0,0,0,.4-2c-.3-1.3-.3-2.8-1.9-2.9a1.73,1.73,0,0,0-1,.1l-.3-.3h-.3l-.3-.5-.4.1-.3-.2c-.6,0-1.2-.1-1.8-.1s-1,.4-1.5-.1c-1.6.3-1.7-.9-2.2-.9a2.39,2.39,0,0,1-.3-.9l-.6-.4a1.94,1.94,0,0,1-.2-1.5l-.4-.7c.2-.8-.2-2.7.6-3.2v-.9c-.1-.2-3-3.5-3-3.7l.6-.5-.1-.4.1-.4.2-.1-.3-.4-.4.2-.2.6-.5-.1-.2-.2.1-.3-.1-.2-.2-.1-.3.2c-.1.4-.5,1.9-.8,2a1,1,0,0,0-.9-.2l-.1-.2.1-.3-.2-.1-.6-1a2.5,2.5,0,0,1-1.8-.8,1.23,1.23,0,0,1-.8-.4l-.2.1-.3-.1.1-.4-.1-.2h-.8l-.7-.5-.2-.4-.3-.2c-1.6.2-2.4-1.2-2.9-1.2a26.06,26.06,0,0,0-2.7-3.1l.1-.3c-.2-.8-1.1-1.3-1.2-1.8l.2-.6c-.3-.8-2.3-3.7-3-3.9a10.42,10.42,0,0,0-1-1.8.85.85,0,0,1-.3-.5l.1-.6-1-1.3c-.3-.3-.8-.2-1.2-.5a4.71,4.71,0,0,0-1.6.4c-.3.6-.6.5-1,.8a1.16,1.16,0,0,1-.5.7c-.1.3.4,2.2.2,2.7l1,1.6v.3h-.5l-.4.2-.4-.9h-.2l-.1.4.2.5v.4l.2.1a1.08,1.08,0,0,0-.2.8l-.2.1.4.4.5-.5h.2v.2l-.5.5a2.3,2.3,0,0,1-.4,1.4c-.1-.1-.3-.4-.5-.4l-.2.2-.1.3.3.2h.4v.4l-.6.3.6.2-.2.4h-.4l-.7.4h-.3c-1-1-1.8-1.8-2.9-.3-.4.2-1.3-.2-1.7-.3l-.2.1-.1.4.2.5-.1.7a8.65,8.65,0,0,0,.7,1l.3.1a2,2,0,0,1,.7.9l-.1.2.3.4a3.58,3.58,0,0,0-.4,1.1l.3.1a1.24,1.24,0,0,0,.8-.6h.2l.3.3-.2.5a4.46,4.46,0,0,1-2.3,1.3v.2l1.1.7.1.6-.6.1.2.3.4.2-.2.4.2.2v.4a.6.6,0,0,0,.4.1l.5-.2.4.4.7.1.4,1a1.21,1.21,0,0,1-.7.7h-.2l-.1-.4-.5-.3a1.59,1.59,0,0,0-1.2.4l-.5-.2-.3.2-.4,1.1a2.66,2.66,0,0,0-1.1,1h-.2l-.3.2.8.5.2.4-.2.5.1.3,1,.5c.2-.2.6-.7.9-.7a2.84,2.84,0,0,1,1.3.4l.2-.1.1-.3h.5l.7.7-.2.9h-.2l-.2-.2h-.9l-.1.2.2.3a1.61,1.61,0,0,1-.4.7,6.2,6.2,0,0,1-2.3.4l-.3.3h-1.3l-.1-.3-.3-.2-.3.1-.2-.2-.5.1-.1-.2.3-.2-.2-.4h-.3l-.2.2h-.3l-.3.2.2-.4c0-.2.4-.6.5-.7l-.4-.5c-.4-.1-.7-.1-1.1-.2-.6.2-.8,1.2-1.6,1.5l-.3-.1.1-.3.4-.2-.1-.5.1-.3.5-.4h.6l.1-.2-.2-.2h-.7l-.4.4h-.3l-.1-.2.2-.3.4-.2v-.3l-.5-.2a1.27,1.27,0,0,0-.4-.7l-.7.1-.2.2-.4.1-.3.6h-.3l-.1-.9a1.49,1.49,0,0,0-.9-.4l-.4.3-.3-.3c-.1.1-.6,0-.8-.1l-.3.2-.2-.1V996l-.4-.2-.1-.2.9-.5.2-.3v-.4h-1a3,3,0,0,1-.7.5l-.3-.1-.1-.4-.4-.2c-.4.1-.9.4-1.3.2l-.1-.2v-.3l.3-.3-.1-.2-.5.1-.4-.2-.5.2-.2-.3.1-.8-.7-.8h-.2l-.2.3.1,1-.4.2c-.5.1-.9-.5-1.7-.4l-.1-.8-.6.3-.2-.2v-.3c-.2-.3-.6-.6-.9-.5l-.2-.3.1-.3a1.72,1.72,0,0,0-.6-.6l-.4-1.1c-1.7.8-3.4-1.1-4.7-1.9-.6-.4-1.5-.6-1.9-1.3-.6.1-.9-.4-1.5-.7a9.36,9.36,0,0,0-1.6-.4l-.4.3-.4-.1-.2-.7c-1.1-.5-1-2.4-3.7-3.5-.4-.3-.1-1.2-.5-1.6a10.77,10.77,0,0,0-2.4-1.8c-2.9-.9-3,.4-6-1.7-.9.2-1.6-.3-2.2-.1a12.15,12.15,0,0,0-2,.9c-.3.1-.8.2-1.1.3-.6.3-1.3.7-1.9,1l-.2.2a4.23,4.23,0,0,1-.4,1.2c1,1,1.6.8,2.2,2.2l-.1.7.9,1a4.94,4.94,0,0,0,.5,1.6c.6.7,1.4,1.3,2,2s1.4,1.7,2.2,2.5c.3.3.8.5,1,.9,0,0,1.4,2.3,1.6,2.6a8.43,8.43,0,0,1,.6,1.4l-.2.4-.8.3-.1.3c-.1.8.8,1.3,1.1,1.8.2.2.2.6.3.8.4.6,1,1,1.4,1.5.1.2.2.5.3.7a13.62,13.62,0,0,1,2.5,3.9l-1.3,2.3c-.3,1.4,1.8,2.2,2.4,3.4v1l.2.2a.71.71,0,0,1,.6.3v.3c-.7.7-1.9.4-2.8.4s-1.8.2-2.7.2a4.33,4.33,0,0,0-.5-.1c-1.2,0-2.5.2-3.7.3a7.84,7.84,0,0,1-2.1-.2l-.8.5-.6-.2-.4-.6a2.45,2.45,0,0,1-1.2-.4l-.3-.5.1-.8c.1-.3.8-.5,1-.5l.2-.3v-1.5a4.88,4.88,0,0,1-.3-.7c-1.3-2.7-4.1-4.5-6.5-6.1-.6-.4-1-1.5-1.5-2l-1.3-1a3.17,3.17,0,0,1-.6-.5c-.5-.6-.4-1.9-2-2.6-.1-.6-.2-1.5-.8-1.9-.4-.2-5.4-3.8-6-3.6-.7-.7-3.4-1.4-3.8-2v-.8l.3-.3.2.1.2.4h.4a1.58,1.58,0,0,0,.7-.7c1-3.5-6.1-7.6-8.3-8.3l-.1-.3v-.4c-.1-.5-.9-1.1-1.3-1.3a27.5,27.5,0,0,0-2.8-1.9c-.8-.4-1.8-.6-2.6-1-.4-.2-.7-.7-1.3-.7-.6-.7-1-2.3-1.5-2.6l-2.3-1.5a3.7,3.7,0,0,0-.5-1.1v-.3c-.3-.1-.4-.6-.6-.7a15.45,15.45,0,0,1-2.4-1.9l.3-.9c-.4-1.8-1.7-1.4-2.9-2.2l-.2-.5.1-.4a2.77,2.77,0,0,0,1.1-2.4c-2.4-2.7-4.6-2.2-6-3.7l-1.9.2a2.47,2.47,0,0,1-1.2-1.8c3.2-1.4,1.8-1.7,2.9-3.1.3-1.1-1.1-3.1-1.8-3.8-.1-.1-1.6-1-1.7-1.1-.4-.2-.9-.3-1.4-.5s-.8-1.2-1.5-1.2a5.38,5.38,0,0,0-.9-1.2c.1-.9-1.3-1.9-1.9-2.3-.3.1-1.4-.8-2.4-.7l-.3-.2-.1-.5-.4-.3h-1.2c-1.4,2-1.9.7-2.5-.9l.8-.6a5.23,5.23,0,0,0,.3-1.8,2.73,2.73,0,0,0-1.4-1.4c-.9-1.3-2.3-2-3.8-1.2-.1.8-1.1,1.3-1.2,2.1l-.3.2c-.2,0-.8.1-1-.1l-.2-.9.5-1.2a2.27,2.27,0,0,0-1.1-1.6c-.2-1.3-2.8-2.1-3.9-2.1.2-.4.9-2,2.3-2.3,1.6-.4,2.9-1.9,4-2.2s1.6-1.1,2.9-2,1.6-2.7,2.9-2.7a6.61,6.61,0,0,0,3.8-1.2,2.2,2.2,0,0,0,.8.1c1.3-.2,2.2-.7,2.7.5s.5,1.8,1.6,2.2a4.42,4.42,0,0,1,2.2,2.7c.2.9.4.9,2,1.6s4.3,1.5,4.3,1.5a7.07,7.07,0,0,0,2.9,1.1c1.2,0,4.5-.2,4.5-.2a2.42,2.42,0,0,1,3.3-.2c1.8,1.4,2.7,1.1,3.8,1.4a20.9,20.9,0,0,0,2.9.2l2.7-2s-.2-2.8,1.1-2.8,2.3-.4,2.9.9,2.6.7,2.6.7,2.9-.8,3.6,0,2.2,0,3.1-1.4a30.44,30.44,0,0,0,1.8-3.1l-1.1-3.7-2.8-2.5-.9-2.3-1.1-2.6a5.2,5.2,0,0,1,1.3-3.4c1.4-1.1,2-4.3,2-4.3l.2-4a47.09,47.09,0,0,1-1.1-5.1c0-.9-.1-3.4.9-4.7a29,29,0,0,0,2.4-4.9s.9-2.2,2.7-2.2a3.31,3.31,0,0,0,2.7-1.6s1.7-1.6,2.8-1.3,3.4-1.3,3.4-1.3,3.3-3.1,4.4-3.4a25.13,25.13,0,0,0,3.6-1.3,3.78,3.78,0,0,1,2.9,0,5.11,5.11,0,0,0,2.9.9h5.3c1.1,0,2.5-.2,3.4.7s2.9-1.3,4.4-1.3,3.4-2,3.4-2,3.1-2.4,4.2-2.4,1.4-2.2,4.5-2,3.3-.2,4.2-1.3,2.2-2.3,2.2-3.1,2-4,2-4,1-1.3,2-1.1,1.7-.5,1.5-1.8,1.3-4.9,1.3-4.9-.2-2.7.9-2.7,1.3-1,1.3-1.9,1.9-2.3,2.9-2.3,2.2-.2,2.6.9,2.5-.7,2.5-.7l1.8-2.5v-2.5s-.7-1.7.2-2.4a4,4,0,0,0,1.4-2.9,3.74,3.74,0,0,1,1.3-2.9c.9-.6,1.8-1.1,2,1.6s.5,3.8,1.8,3.1,2.9-1.8,4-1.6,2.5.2,2,1.6-.9,2.7.4,2.7a13.84,13.84,0,0,1,3.6.8s3.7-.4,3.1,1.1-.2,4.5.9,3.4,3.1.5,2.5,1.6.1,2.3,1.3,1.5,2.6.2,2.2,1.3a3.52,3.52,0,0,0,.9,3.6c.9.9,1.3,1.6.4,2.5s-2.2,3.5-.9,3.1,4.3-1.3,3.6-.2a2.28,2.28,0,0,0-.2,2.7c.4.9.4,1.6,1.6.4s1.7-.2,1.7-.2,1.8,1.5.9,2.6-.9,1.1.4,1.8,1.6.5,3.1.5,2-.5,1.8-1.6-.2-1.1,1.3-.7a3.48,3.48,0,0,1,2.1,1.5h0l-.4.5a6.6,6.6,0,0,0,.9,2.8c.2.3.5.5.5.8s.1.9-.2,1.2l.1.2v.6a25.6,25.6,0,0,0-.5,5.5c0,.1.1.2.1.3.1,2.1,0,4.6,1.6,6.3a8.08,8.08,0,0,1,1.6,1.6c.4,2-1.6,2-2.4,2.7a3.75,3.75,0,0,0,2.1,0c1.9-.3,2.5,2,2.6,3.3a.35.35,0,0,0,.1.2l.4.1.9-.5.1.2c-1.1,2.7.2,5.3-.1,8-.1.9-.8,1.4-1.3,2.1a3,3,0,0,0-.3,1.6l-.1,1.8.9,2.9a10.59,10.59,0,0,0,1,1.2l.6-.3.3.2.1.3c-.2.3-.6,1.3-1,1.4a1.67,1.67,0,0,0-1.2-.1l-.2-.1a11.74,11.74,0,0,1-2.6.1v.3l.2.2,1.3.1.3.6a32.38,32.38,0,0,1-1.3,4.1c0,.1.1.5.1.6,0,.5-.2.9-.2,1.4-.1,2.3.6,8.8,1.9,10.8C941.2,926.1,941.9,926.4,942,926.6Z" transform="translate(-751.29 -828.42)"/></g></svg>