<svg id="Layer_1" data-name="Layer 1" xmlns="http://www.w3.org/2000/svg" viewBox="0 0 313.14 302.72"><defs><style>.cls-1{fill:#fefee9;stroke:#0978ab;stroke-linejoin:round;stroke-width:1.42px;fill-rule:evenodd;}</style></defs><title>Riau</title><g id="Riau"><path class="cls-1" d="M769.6,520.5l-.6.4v.5a5.24,5.24,0,0,1-2.5.3l-.6.4c-2.2-.7-6.1,1.7-8.9.7l-.6.2a4.57,4.57,0,0,0,1.4,2c0,.2-.3.4-.5.5l-1.6-1.2-.6-1.6-.5.2c0,1,.8,1.7,1.1,2.7a2.81,2.81,0,0,1-2.5-.9c-.1-.1-.1-.4-.2-.5-.4-.4-1.1-.6-1.3-1.2l-.9.3-.2-.1c.8,1.4.9,2.6-.7,3.4.3,1.4.3,1.7,1.4,2.5l-.1.3-2.7,1.5c-1.6,1.4-5.1-.3-7,.3a4.35,4.35,0,0,1,2,1.3l.2.9-.3.9a5.38,5.38,0,0,1-2.5.9l-1.2,1.3-.3,2.4a15.05,15.05,0,0,1,5.6-.5,21.16,21.16,0,0,1,2.1,1.1h.3a7.89,7.89,0,0,1,3,.5l.3-.1.6.4c1-.1,1.9.4,2.8.1l.5.4.1.3-.4.9c1,.4,2,.8,3,1.1.1,0,.4-.1.5-.1.5.1,1.1.4,1.6.5l1.2-.3.6.2a18.71,18.71,0,0,0,3.5,2.8c1.2,1.1,1.6,1.7,1.6,3.2l-.1.2a2.89,2.89,0,0,1-2.7.3,18.44,18.44,0,0,1-4.1.6,26.93,26.93,0,0,1-3.8,1.8s-.1.2-.2.2c-.7.3-2.1.6-2.6,1.2h-.4l-.5-.5-1.5-.2-.1,2.2,1.4,1c.2.4-.2,1.6-.3,1.9l-.7.5h-.2l-.3.3c-.7.6-1.4,1.4-2.2,2-.3.2-1.2.3-1.4.7l-.1.5a3.49,3.49,0,0,1-1.7.6l-.4-.3-.3.7-.5.2c-.3,0-1.9-.4-2-.4l-.6.4a1.08,1.08,0,0,1-1.1,0,8,8,0,0,1-3.2.9c.3,3.3.5,4.8-2,7.1h-.2a3.84,3.84,0,0,1,1.1,1.1c.1,1-1.7,1.9-2.3,2.7l.8.2a2.84,2.84,0,0,1,.4,1.3l-1.3,2.6.1.2a5,5,0,0,0,.2,1.7,3.29,3.29,0,0,0,1.3.7l.3.4c.7.4,1.5,0,2.2.2a3.33,3.33,0,0,0,.6.3,12.67,12.67,0,0,0,2.3.8l-3.5,1.2s-2.5,1.1-3.6,1.6-1.4.1-2.1,0-14.8-2.8-14.8-2.8a36.29,36.29,0,0,0-4.4-.8c-1,0-9.4.1-9.4.1s-3.5,6.3-4,6.9-2.6,4.3-3.1,4.9a33.5,33.5,0,0,1-5.3,4c-.6.3-2.8,2.1-3.8,2.6s-2,1.8-2.9,2.5a10.72,10.72,0,0,0-1.8,3s-1.6,2-2.9,2.1a4.93,4.93,0,0,0-2.9,1.9,10.41,10.41,0,0,1-3.1,1.9c-1.2.5-1.8,0-2.4-.9s-1-.6-1.9-.6a15.75,15.75,0,0,1-4.4-.6,4.69,4.69,0,0,0-3.5-.1c-.8.4-2.4-.9-2.6-2a5.45,5.45,0,0,0-1.8-2.3c-.5-.5-1.1-.6-2.6-.4a3.71,3.71,0,0,1-3-.5c-.6-.5.5-1,1.1-1.8s-.4-1.3-1.3-1.9a6.3,6.3,0,0,0-2.6-1.3,1.84,1.84,0,0,1-1.6-.5c-.5-.5-.6-1.3-1.1-2.1a2,2,0,0,0-2.3-1,26.54,26.54,0,0,1-3,1.1c-.7.2-1.1,1.5-2.1,1.6s-2.8-1.3-2.8-2.1-.1-1-1.6-1.6-2.1-.4-2.6.6-3.8-.5-4.8-1.4-1.5-.6-2.3-.4-1.4-.5-2-1.1-1.3-.9-3.4.4-2.3,2-3.9,1.9-2.4,2.5-2.6,3.4-2.6,1.8-3.6,1.8a1.85,1.85,0,0,0-1.5.8s-2.3,0-3.1-.6-1.1-.5-1.6-.4a14.55,14.55,0,0,1-2.1,0c-.9,0-1.4,0-1.6-.9s-1.4-.4-3.5-.6-3.8-1.6-4-2.3-3-3.3-3.5-4.3a7.8,7.8,0,0,0-2.1-2.1,2.77,2.77,0,0,1-2-1.1c-.6-1-1.4-1.1-2.6-1.5s-2.1,0-2.5-.6a5.35,5.35,0,0,0-1.5-1.8c-.6-.3-2.1-1.4-3.1-2.1s-1.4-1.4-2.4-1.4-1.3,0-.5-1-1.3-2.5-2.8-2.6-2-1.6-1-2.4-.3-.9-1.5-.9-2.3-1.1-3-2-1.4-.5-2.8-.5-1.3-.1-2-1.4a5.37,5.37,0,0,0-3.6-2.5c-1,0-1.5-1.5-1.9-2.1a5.79,5.79,0,0,0-3-2.1c-1.2-.2-1.1-.1-1.8-1s-1.3-1-2.9-1-1.5-.3-1.8-.8a30.47,30.47,0,0,1-2.1-4,7.12,7.12,0,0,0-.6-2.9c-.6-1-.8-1.5.6-2.4s-.4-3-1.6-4.1a4.39,4.39,0,0,0-3.6-1,12,12,0,0,1-2.5-.3c-.5,0-1.5-.1-1.5,2.5s-1.5,2.1-2.4.9a3.73,3.73,0,0,0-3.5-1.5c-1.4,0-1.6-1.5-1.5-2.9s-.4-2-1.8-2.4-1-.6-1.3-1.6-.8-1.1-1.6-1.8-1-1.1-.9-2.6a4.24,4.24,0,0,0-.8-3.3c-.8-1.1-.5-2.5-1-4a10.59,10.59,0,0,1-.6-3.9c0-1.5-1.3-2.9-.3-3.5s.8-2.3,2.8-1,3.5.6,3.8.1a10.16,10.16,0,0,1,1.4-1.9c.6-.6,1.3-2.5.8-3.3s-1.8-1.9-2-2.5-.6-1.8-1.1-1.9-2.5-.6-2.5-.6a2.59,2.59,0,0,1-.3-2.4c.5-1.4.8-2.6,1.4-2.9s1.9-1.3,1.9-2a6.53,6.53,0,0,0-.6-2.4c-.4-.6.1-1.8-1.3-1.8s-2.1-.1-2.4.5-.9.8-1.8.9a4.44,4.44,0,0,0-2.1,1.3c-.5.4-1.6,1.4-1.6,1.4s-2.9.9-3.4,0-1.8-1.8-2.1-2.3l-1.5-1.9a2.14,2.14,0,0,1-.6-1.3,8.49,8.49,0,0,0-1.1-2.6c-.4-.5-.8-.6-1.8-.6s-1.6,0-2-.6a2.26,2.26,0,0,0-2-.9c-.9,0-1.5.1-2.1-.4a17.72,17.72,0,0,1-1.9-2.6,4.3,4.3,0,0,1-.5-1.8c0-.9-.5-2-.4-2.8s.6-2-.3-2.3a4.21,4.21,0,0,0-2-.4c-1.1,0-1.5-.1-2.1.4s-2.3,2.3-2.3,2.3l-1.3,1s-2.1.3-2.8.5-1.4.6-1.6,0a7.09,7.09,0,0,0-1.1-2.1,20.5,20.5,0,0,0-1.9-1.5c-.5-.4-.8-.8-1.3-.9s-2-1.4-1.8-2.6.4-1.5.5-2.1.3-2-.5-2.4-1.8-1.5-.6-2.1,2-1.9.5-2.4a12.61,12.61,0,0,1-2.8-1.4l-.9-2s-.4-1.1.4-1.6a24.63,24.63,0,0,0,3-3.5l1.8-2.4a20.58,20.58,0,0,0,.3-2.1,4.17,4.17,0,0,0-.5-1.4l-1.6-.5a7.82,7.82,0,0,0-3.3.4c-.2-.2-2.4-2.5-3.3-3.3s-3-1-2.9-2.5,1.1-1.9,1.1-2.8.1-3.9.1-3.9a5.87,5.87,0,0,1-2.4-.3c-.6-.4-1.4-.6-.3-1.3a9.29,9.29,0,0,0,1.9-1.4s-.8-2.9,1-2.9a12,12,0,0,0,3.5-.6,16.22,16.22,0,0,1-2.9-1.5,18.73,18.73,0,0,1-1.4-1.8l-.4-2.9-1.5-.3s-1.1-2.4.4-2.9,2.8-1.6,3.3-1.6a13,13,0,0,0,1.8-.3,13.56,13.56,0,0,0-1.8-3,20.92,20.92,0,0,1-2.1-2.3c-.4-.5-1.3-3.3-1-4.1s-.1-1.9-.6-3.1a17.09,17.09,0,0,1-1.3-3.8c0-.6-.4-1.8-1-1.8a1.88,1.88,0,0,1-2-1.1c-.5-1.1-.6-2.8,1-2.9s5.8-.1,6.8-.1a25.93,25.93,0,0,0,3.6-.6,1,1,0,0,1,1.4.1c.6.8,2.3-.1,2.9-.8a3.58,3.58,0,0,1,3.1-1,21.23,21.23,0,0,0,3.8-.4c.6-.3.9-1-.4-1.5a9.17,9.17,0,0,1-2.6-1.8s.4-1.8,1.3-1.6,1.4.1,1.6.9a2.27,2.27,0,0,0,1.9,1.4,8.21,8.21,0,0,0,3-.5c.8-.4,2.5-1.9,3.3-2.4a2.14,2.14,0,0,0,.4-2.6c-.4-.6-1.5-3.4-1.8-3.9s.6-4.1,1.8-4.3,2.1-.5,1.6-1.4-1.3-1.3-.5-2.1.6-1.8-.1-2-2.5-.6-2.8-1.5-.6-2,.1-2.6a2.21,2.21,0,0,0,.9-2.3c-.2-.8-.8-2.3-1.6-2.1s-2.9.1-2.9.1-5.8-1.6-6.3-1.8-.4-.6-.5-1.4a28.82,28.82,0,0,1,0-3l2-3.3s.8-4.3.8-4.9.4-3.6.9-4.1a3.53,3.53,0,0,0,.8-2.6,8.19,8.19,0,0,1,.5-4,5.39,5.39,0,0,0,.5-2.9,11.75,11.75,0,0,1,.8-4.1,8.52,8.52,0,0,0-.4-6c-1-1.9-1.6-5.4-1.9-6a20.5,20.5,0,0,1-1.6-4.1c0-.7-.1-3.8-.1-4.8a10.15,10.15,0,0,1,.6-4.1,10.66,10.66,0,0,0,.8-3.4,5.57,5.57,0,0,0,.9,1.9,9,9,0,0,1,.8,2.3c.3,1.7,0,2.2,1.1,3.7-.4,2,.7,3.2,1.7,4.8a15.36,15.36,0,0,1,1.1,3c.2.6,1,1,1.4,1.5.6.8,1,1.8,1.6,2.6a9.34,9.34,0,0,0,1.8,1.6c.2.2.2.6.4.7.6.5,3.3,3,3.4,3.6,2.3,1,3.8,3.3,6,4.5,1,.5,2.2.5,3.2.9s1.9.8,2.8,1.2l.1.2-.2.8.2.4a3.36,3.36,0,0,1,.5-1.4l2.2.2c.2,0,3.1,2.1,3.7,2.5,1.7.9,4.8,1.1,6.1,2.7,1,1.2,1.9,2.4,3,3.6.5.6,1.3,1.1,1.8,1.8a20.13,20.13,0,0,1,1.4,2.5.76.76,0,0,1,.2.4,20.36,20.36,0,0,1,1,3.9,5.73,5.73,0,0,1,.4,1.4c.1,1.1-1.2,2.4,1.2,3.2l.3.5,1.6.7c.4,0,1.1-.7,1.4-1a2.86,2.86,0,0,0-1.3-2.8c-.2,0-.8,0-1-.2a6.84,6.84,0,0,1-.6-2.9c0-.1-.7-1-.7-1.2a10.73,10.73,0,0,0-.9-3.4c-.2-1.2-.2-2.3-.5-3.5a6.47,6.47,0,0,0-.4-1.3c-.4-.7-1.1-.8-1.5-1.4a17,17,0,0,0-2.2-2.4c-1.2-.9-2.5-1.2-3.5-2.3a29.24,29.24,0,0,1-1-4c0-.4.3-1.4.1-1.8-.3-.8-1.8-2.6-1.2-3.5,1.7-.8,2.5-4.6,6-5s6.8-.8,10.1-.9c.8,0,1.9.5,3.1.5l.2.2c.9,0,2.1.3,2.9-.3h.4l1.4,1.2a5,5,0,0,0,0,2.1c.1.3.4.6.5.9a10.89,10.89,0,0,0,1,2.5c1.3.4,3.6,2.7,4.6,3.6v.2c.7.6,3.7,2.8,4,3.5.5,0,.9.4,1.3.7a23.77,23.77,0,0,0,5.1,2.4,7.84,7.84,0,0,1,1.5,1c0,.4.4.8.6,1.1,3,2,1.6,2.2,3.3,4.8,0,.3-.3,1.6-.3,1.7a10.26,10.26,0,0,0,.4,1.4c.2,1.1.1,2.1.3,3.2,0,.3.2.7,0,1l.3.7a15.36,15.36,0,0,1,1.1,3,5.85,5.85,0,0,0,.2,1.3c.4.5,1.1,1,1.1,1.7v.4c-1,2.8-.8,3.8.8,6.3.2.3.5.5.7.8a5.54,5.54,0,0,0,1.2,1.9c.5,1,.8,1,1.6,1.6,2.5,1.8,3.5.2,6.1,1.5.5.3,1,1.3,1.4,1.5a14.3,14.3,0,0,0,3.8,1.7,14.77,14.77,0,0,0,5.1-.3,19.83,19.83,0,0,1,2-1.1c.8-.3,1.9-.3,2.5-.9.5.1.9-.2,1.3-.2s.9.1,1.3.1,1.2-.4,1.8-.5l1.3.3c.1,0,.6-.1.7,0,1.1.3,1.3.8,2.1,1.5a10.91,10.91,0,0,0,1.1.6l.2.1a20.67,20.67,0,0,0,4,3.8c.4.3.7.9,1.2,1.2s1,.4,1.4.6c.2.2.4.6.7.7a4.49,4.49,0,0,0,1.2.6c.3.2.5.6.9.8a49.41,49.41,0,0,1,6.1,5.2,37.89,37.89,0,0,0,7.4,5.8c1.2.7,2.5,1.5,3.8,2.1,1.8.9,4.7,1,4.3,3.9l-.8,6.3c0,.2,1,3.2,1.1,3.4l1,.4.1-.3.3-.1,1,.8c0,.3.3.5.5.7,1.8,2,.7,4.4.1,6.6a18.75,18.75,0,0,0-.6,3.1,17.53,17.53,0,0,0,1.1,3.5,25.32,25.32,0,0,1,1.2,2.3,8,8,0,0,1,.3,1.5,3.51,3.51,0,0,0,.5.8,1,1,0,0,1,.6.5c1.1,1.5,2.1,3,3.8,3.8s1.3.1,2.6,1.8c0,.1,2.2,1.5,2.4,1.7s.5,1.1.6,1.3c.4.5,1,1,1.4,1.5,2.5,3.2,1.7,3,5,5.6.1.1.2.2.3.2a12.9,12.9,0,0,1,1.6.9c.1.1.4.4.5.4s1.1.3,1.3.4c.5.3.9.9,1.5,1.3s1.3.6,1.8.9h.5l.3.2a9.65,9.65,0,0,0,1.7,0l.3.2c.8-.1,1.9.7,2.9.8l.1-.2c.7-.2,1.4.2,2,.1s1.7-.6,2.5-.8a14.68,14.68,0,0,1,2.9-.5c.1,0,.2-.2.3-.2a12.49,12.49,0,0,1,4.7.7c2.1,1,1.7,1.3,4.2,1.3a1,1,0,0,0,.3-.1,35.14,35.14,0,0,1,5.3-.7c2.1.1,2.8.2,4.5,1.5l1.2,1a12.23,12.23,0,0,1,1.2,1.9c.4.5.9.9,1.3,1.4.6.7,1.1,1.5,1.7,2.2s1.5,1.3,2.2,2c.4.4.6,1,1,1.4a16,16,0,0,1,1.6,1.9c.3.5.2,1.1.3,1.3l1.1,2.7c.1,0,.2.1.3.1a5.24,5.24,0,0,0,1,1.1c.6.6,1.5.6,2.2,1,1.2.6,1.8,2.9,2,4l-.3.7-.5.3h-.3a22.5,22.5,0,0,1-2.4.8,26.94,26.94,0,0,0-2.9,1.6c-.1.1-.2.1-.3.2-.7.5-2.8,2.2-3.7,2.1,0,0-.1.2-.2.2-.9.5-1.9.6-2.8,1-1.9,1-1.5,2.5-3.8,3.2a3.33,3.33,0,0,1-1.4.1,12.24,12.24,0,0,0-2.3,1h-.2c-.4.1-2,.7-2.2.8a9.14,9.14,0,0,0-1.4.7c-1.6,1.1-2,2-3.9,2.7h-.3a14.25,14.25,0,0,1-2.8,1.3c-.3.1-.8-.1-1,.1-.6.3-1.2.7-1.8,1l-.1.2.3,1.9c.4.3,3.1-.1,3.7-.3,1.2-.4,2.4-1,3.7-1.4,1.3-2.2,3.1-1.1,4.9-.4a14.31,14.31,0,0,0,4.3-2.1c.1,0,.3-.3.3-.4a25.15,25.15,0,0,0,2.9-1.2,6,6,0,0,1,1.1-.6c.2-.1.5,0,.6-.1.3-.1.5-.4.8-.5s.5-.1.7-.2a21.74,21.74,0,0,0,3.7-3.1,1,1,0,0,1,.8-.2c.7-.5,1.3-.9,2-1.4l.3.1c1.2-1.6,5-1.6,6.8-2.1a9.41,9.41,0,0,0,3.6-3.8,22.91,22.91,0,0,0,.7-2.8c.1-.4,1.2-.9,1.6-1.1a20.74,20.74,0,0,0,2.1-.8c.3-.2.6-.5,1-.8.9-.6,2.4-.4,3.4-.2a6.87,6.87,0,0,0,2.1-1.6c.3-.3,1.1-2.3,1.8-2,1.7.7,5.2.5,6.5,1.5l1,1c1.1.8,2.1,1.5,3,2.3,1.1.9,1.9,1.9,3.1,2.8.6.5,1.4.5,2,.9l.3.3c.1.1.7.2.8.3.8.6,1.4,1.4,2.2,2,.6.5,1.5.6,2,1.3a12.81,12.81,0,0,1,1.4,3.7c.4.2.9.1,1.2.2s.5.3.8.3l.3.1a6.53,6.53,0,0,1,1.4,0c1.4.3,2.8,1.7,3.9,2.6.1.1.1.2.2.3,3.4,3,4.3,4.5,5.9,9a1.73,1.73,0,0,1-.1,1c0,.4.1.9.1,1.3,0,.7.2,1.2.2,1.8a19.27,19.27,0,0,0,.1,2.4,6.15,6.15,0,0,1,.3,1.1,5.65,5.65,0,0,0,0,1.3c0,.2,1.4,4.6,1.4,4.6A32.61,32.61,0,0,0,769.6,520.5Z" transform="translate(-457.17 -310.79)"/></g></svg>