<svg id="Layer_1" data-name="Layer 1" xmlns="http://www.w3.org/2000/svg" viewBox="0 0 223.9 341.66"><defs><style>.cls-1{fill:#fefee9;stroke:#0978ab;stroke-linejoin:round;stroke-width:1.42px;fill-rule:evenodd;}</style></defs><title>Sumatera Utara</title><g id="Sumatera_Utara" data-name="Sumatera Utara"><path class="cls-1" d="M488.7,391.6c.3.5,1.4,3.3,1.8,3.9a2.14,2.14,0,0,1-.4,2.6c-.8.5-2.5,2-3.3,2.4a8.56,8.56,0,0,1-3,.5,2.4,2.4,0,0,1-1.9-1.4c-.3-.8-.8-.8-1.6-.9s-1.3,1.6-1.3,1.6a11.2,11.2,0,0,0,2.6,1.8c1.2.5,1,1.3.4,1.5a20.39,20.39,0,0,1-3.8.4,3.48,3.48,0,0,0-3.1,1c-.6.6-2.3,1.5-2.9.8a.94.94,0,0,0-1.4-.1,25.93,25.93,0,0,1-3.6.6c-1,0-5.1,0-6.8.1s-1.5,1.8-1,2.9a1.88,1.88,0,0,0,2,1.1c.6,0,1,1.1,1,1.8a21.34,21.34,0,0,0,1.3,3.8c.5,1.3.9,2.3.6,3.1s.6,3.6,1,4.1,1.5,1.6,2.1,2.3a19.25,19.25,0,0,1,1.8,3,13,13,0,0,1-1.8.3c-.5,0-1.8,1.1-3.3,1.6s-.4,2.9-.4,2.9l1.5.3.4,2.9a18.73,18.73,0,0,0,1.4,1.8,16.22,16.22,0,0,0,2.9,1.5,12.87,12.87,0,0,1-3.5.6c-1.7,0-1,2.9-1,2.9a9.29,9.29,0,0,1-1.9,1.4c-1.1.6-.4.9.3,1.3a5.87,5.87,0,0,0,2.4.3s-.1,3-.1,3.9-1,1.3-1.1,2.8,2,1.8,2.9,2.5,3,3,3.3,3.3l-1.8-.3a19.47,19.47,0,0,1-3-1.5c-1-.7-6.5-2.3-6.5-2.3a11.53,11.53,0,0,0-2.4-2,18.45,18.45,0,0,0-3.5-1.5c-1.1-.3-1.6-1.4-2-2.1a3.52,3.52,0,0,0-2-1.4,13.61,13.61,0,0,0-3.1-.3l-2.5-.9-2.9,2s.3,2,.5,2.9,0,1.4.4,2.1,0,3,.3,3.6-.1,1.5-1.1,2.1-.1,3,.1,3.5a14.55,14.55,0,0,0,1.5,2s3.8.4,4.6.5.9,2.4.9,3.4a11.46,11.46,0,0,0,.5,2.6,40,40,0,0,0,2.6,3.3c.5.4.3,2.3.3,3a1.62,1.62,0,0,1-1,1.6c-.8.4-3.5,3.6-3.5,3.6a26,26,0,0,1-3.6.4,6.37,6.37,0,0,0-2.1.5l-3-1.4s-1.5-.1-2.4-.1a3.88,3.88,0,0,0-2.5,1.1,2.64,2.64,0,0,1-1.5.6l-4-1.4.5-2.1-1.9-1.1.5-1.4s-1.3-1-1.9-1.4a1,1,0,0,0-1.5.5c-.2.5-2.1,1.5-2.1,1.5l-5.5-.5a4.87,4.87,0,0,1-1.6-1.8c-.4-.9-1.8.3-1.8.3s-1.4,1.6-1.9,2-3.3,3-3.3,3a12,12,0,0,1-2.3,1.3c-.9.3-2.6,3.3-2.9,3.8s-.4,2.4-1.1,3a3.78,3.78,0,0,0-1.4,2.5c0,.7-2.1,1.5-3.1,1.5s-2.8.4-3.6.4-2.4,1.8-3.1,2.5a46,46,0,0,0-3,4.6h0a2.93,2.93,0,0,0-.8.4l.2.3-.3,1-.7.3c-.4-1.4-.6-2.2-2.2-2.1l-.3-.5.2-.5.3-.2h.6l.5-.3c1-1.2-.1-3.8-.6-5.2a6.49,6.49,0,0,1-2.7-.8c-.2-.1-.3-.5-.7-.5v-.3a1.13,1.13,0,0,0,.8-.1c-.1-1.3,1.1-1.5,1.4-2.9.1-.4,0-.8.1-1.2.3-2.7.5-1.8-.1-4.2a9,9,0,0,0-.3-1.6,8.62,8.62,0,0,0-1.1-1.9c-.2-.5-.1-1.1-.4-1.6l-.4-.3h-.4a1.37,1.37,0,0,1-.8.5c-.1-.8-.7-1.8-.5-2.3l.2-.2.4.3h.4c.4-.2.8-1.6.9-2.1l-.1-.7a17.17,17.17,0,0,0-1.8-4.2c-.2-.3-1-.3-1.2-.3l.1-.6h-.8l-.6.5h-.5l-.3-.2-.3-1.2.1-.4h.4l.3.3.2-.3-.1-.3.2-.3.5-.3.1-.2a2,2,0,0,0-.6-.7l-.9-.1c.1-.8,1-1,1-1.7s-.6-1.6-.5-1.9a1.47,1.47,0,0,0,.5-.6c-.3-.8,0-1.5-.4-2.2a15.05,15.05,0,0,1-1-1.7c-.6-1.3.1-1.5-1.7-2.5l-.7-1.8-.5-.3c-2.1.3-1-.8-1.9-1.3l-.5-.1a2.29,2.29,0,0,1-.7-1h1.1l.1-.3a17.48,17.48,0,0,0-.3-2.4c-.1-.5-.4-.9-.5-1.3s0-1.2-.1-1.8a15.46,15.46,0,0,0-.7-2.3,6,6,0,0,0-.6-1.1c-.3-.8-.5-1.7-.8-2.5a6.72,6.72,0,0,1-.6-1.2c-.7-2-1.2-4.1-1.7-6.1,0-.1-.1-.3-.1-.4-.5-3.6-2.1-6-3.8-9.2-.2-.3-.7-1.3-.6-1.6l.2-.1.1-.3c-.1-.6-1.7-3.8-2-4.6l.3-.4c-.1-.2-.5-1.1-.4-1.3.2.2.5.7.7.8l.2-.2-.3-.7a1.4,1.4,0,0,0,.3-1.5c-1.6-3.4-2.9-6.1-5.8-8.6,0,0-.2-.2-.2-.3a1.7,1.7,0,0,1,1,0,2.62,2.62,0,0,0-.9-.5l-.2-.5c.4-.4.2-1.1.1-1.6a6,6,0,0,0-1.6-3.6c-.3-.2-.7-.3-.9-.6-.1-.1-.3-.6-.4-.7s-.5-.4-.7-.6c-.7-.7-.3-2.1-1.5-2.8a2.2,2.2,0,0,1,.1-.8,2.46,2.46,0,0,1,1.2-.1c.4.8,1.6,2.8,2.5,3.2h.3l.4-.3v-.5l.3-.3a1.4,1.4,0,0,0,.9.3,2,2,0,0,1-.8-1.9l.9-1.5a3,3,0,0,1,.8.8,1.42,1.42,0,0,0,1.1.1l.5-.4-.1-.3a1.13,1.13,0,0,0-.8-.1l-.4-.3a4.19,4.19,0,0,1,.4-1.6,2.23,2.23,0,0,1,1.4,0l.4-.2.7.8c.1-.2-.1-.7-.3-.9-.1-1.6,1.9-2.4.2-4.3l-.8-.4.5-.2.2-.3a6.53,6.53,0,0,0-1.3-1.6,5,5,0,0,1-2.1-.1l-.1-.7-.5-.5v-.2l.3-.3-.8-1,.1-.3h1.2l-.6-.7h-.4c-1.2-1.1-1.1-2.2-1.7-2.8l-1-.1c-.2-.2-.7-1.2-1-1.3l-1.1.5a2.63,2.63,0,0,0-1.4-.9l-.8.3-.3.5c-.7.2-1.2-.6-1.8-.6v.2l.3.2v.2H345c-.2.1-.3.3-.4.4l.3.3h.6l.5-.5a3,3,0,0,0,1.3.2c.5.1,1.1.8,1.4,1.2.3,0,.9-.8,1.1-1,.4,1.3-.2,2.3,0,2.9h.7l-.6,1.2h-.8c-.5-.3-2.5-1.6-3-1.5-.2-.2-1.7-1.8-1.8-1.9-.5-.9-.8-2-1.4-2.9a7.58,7.58,0,0,0-1.7-1.6c-1.1-1.3-1.9-3-3.1-4.2-.4-.5-1-.7-1.3-1.3l-.5-.1a12.67,12.67,0,0,1-1.1-1.3c-.1-.2-.1-.5-.2-.7s-2.9-2.4-3.4-2.9h-.3l-.5.3-.3-.1.4-.5c-1.3-2.6-3.4-3.6-5.9-5.1-.4-.3-2.4.3-3.3-.2l-.4-.4a1.7,1.7,0,0,0-1,0l-.9,1.1h-.3a3.69,3.69,0,0,0,.7-1.4,5.37,5.37,0,0,0-1.9-2.3,3.07,3.07,0,0,1-2.1.2c-.4.2-.4.5-.5.8-.6.1-1-.7-1.6-.8l-1,.3-.1.2.1.7c-.2.2-.8.2-1,.2l-.2-.2.5-.3c.4-2-.6-2.2-1.8-3.3a9.09,9.09,0,0,0-3-2.4c-.4-.2-.9-.3-1.2-.5a13.93,13.93,0,0,1-1.9-1.5,10,10,0,0,0-1-1.1,17.39,17.39,0,0,0-1.8-1.1l-1-1a17.6,17.6,0,0,1,1.2-3.4c.6-1-.5-2.5.6-3.5s1.1-2.4,1.1-3.9.5-4-.5-4.9a9.32,9.32,0,0,1-2.1-4.4c0-.8.8-1.8-.8-1.9a7.69,7.69,0,0,1-2.4-.5s-.4-3.3-.9-4a23.58,23.58,0,0,0-1.8-2,17.59,17.59,0,0,1-.4-2.8c0-1-.8-4.3.3-5.6s1-1.8,1-2.3a2.83,2.83,0,0,1,1.6-2,1.6,1.6,0,0,0,1-1.3,17.81,17.81,0,0,1-1.6-2.9c-.1-.6-1.8-3.6-.9-4.9a17.25,17.25,0,0,0,1.4-2.4,1.93,1.93,0,0,0-.4-1.4,12.89,12.89,0,0,1-1.3-1.9h-3.1a11.44,11.44,0,0,0-1.8-2.9c-.6-.5-1.3-1.4-1.9-1.3a4.63,4.63,0,0,1-3-.3,17.16,17.16,0,0,0-4-.8,3.28,3.28,0,0,1-.5-1.9c.1-1,.3-3.1,1.5-4s1.8-.9,1-2.6-1-2.6-.5-3.8a3.29,3.29,0,0,1,2.6-1.6,2.71,2.71,0,0,0,2-1.6c.1-.8.8-1.4,0-2.3s-3.6-4.1-3.8-4.8-1.4-3.5-1.6-4-.5-2.1.4-2.3a6.57,6.57,0,0,0,2.4-1.5l2.1-.8a35,35,0,0,0,3-3.3c.2-.5.9-2,.3-2.5a50.63,50.63,0,0,1-4.3-3.1c-.6-.9-1.5-3.1-2.3-3.6s-1.6-.9-1.3-2,.9-4.8.3-5.8-2.4-3.8-2.4-3.8l-4.6-6.5a3.09,3.09,0,0,1-1-1.9,7.63,7.63,0,0,0-.6-2.5c-.3-.6-2.1-3.3-2.6-4.1a7.92,7.92,0,0,0-1.9-1.9s-.6-2.6.6-2.9a8.12,8.12,0,0,0,3.5-2.4c.6-.8,1.6-1.6,1.8-2.4s-.6-2.5.9-4.1a44.65,44.65,0,0,0,2.9-3.5s1.6-1.3,1.6.8.9,3.8,2.1,3.5,2-1.9,2.3-2.6a26.37,26.37,0,0,1,1.4-2.4,3.09,3.09,0,0,1,1.9-.5c1.3,0,3-.4,3.3-1.8s-.9-2.3.6-3.1,1.1-1.9.8-2.9a14.76,14.76,0,0,1-.3-4c0-.5-.1-3.5,1-3.5s1.4-1.3.9-2.1-1.3-2.8.4-2.6,2.5-1.5,2-2.3a11.38,11.38,0,0,0-1.8-1.9s-.4-2.5,1.8-1.6,2.1-.1,3.3-.1a1.54,1.54,0,0,0,1.6-1.4,1.34,1.34,0,0,1,1.4-1.1,2.21,2.21,0,0,0,1.8-.6c.5-.5.9-.4,1.8,0s4.3,0,4.3,0c-.3.9-1.5,4-2.2,4.3a1.61,1.61,0,0,0-.9.3l.6.2.3-.1.5.4c.4,1.1-.4,2.5-.1,3.7.1.5.6.8.6,1.4l-.4.6a7.34,7.34,0,0,0-2,.5c-1.1.3-.8-.1-2.1.7a2.05,2.05,0,0,1-1.1,0,6.14,6.14,0,0,1-1.9,1.7l-1,.2c-.4-.4-.1-1.8-.9-2.4l-.2.9.6,1.6a5.54,5.54,0,0,0,2.2,1c-.6,1-.1,2.6-.5,3.4-.2.5-.7.8-.9,1.3a1.86,1.86,0,0,0-1.2.9l.3.2.3-.3,1.4.6v-.3l-.5-.6c-.1-.4,1.5-2.2,2.1-2.5h.4l.1.3.2.1a4.05,4.05,0,0,1,3.3-2,9.46,9.46,0,0,1,1.8.5c.3.1.7-.1,1,.1.8.5,1,1,2.1,1.3a4.45,4.45,0,0,1,1,2.9l.3.1c1.1-.5,3.5-.9,4.4.1h.3c.3-.4,1.3-.6,1.7-.7.6.1,2.7,2.1,3.2,2.6.1.1.1.4.4.6l.4-.2h.4l.2.4c-.2.4.2.9.4,1.2h.4l-.5-1.2.2-.3a8.36,8.36,0,0,1,3.1.8c-.5,1.6.3,2.6.2,3-.1.2-.6.7-.6.9l.8-.4a5,5,0,0,0,.2-1.7,7.84,7.84,0,0,0,2.2-.2,3.4,3.4,0,0,1,1.9,2l-.2.5a1.14,1.14,0,0,1-.8.3l-.3-.4-.3.1a27.81,27.81,0,0,0-2.4,2.8c.3.3,1,1,1.4,1l.2.4,1.2-.5c.2.1,1,.5,1.2.4l-.3-.5.1-.3,1.3-.5.5.2.8-.5.8,1.1-.1.2a2.23,2.23,0,0,0-1.3.6c.5.2,1-.3,1.5-.2l.3.3.4-.2.4.1a1.28,1.28,0,0,1,.5.7l1,.3.5-.2.4.4c.5-1,2-.5,2.8-.2l.2.4v.2l.5.1.4-.3.3.1a10.43,10.43,0,0,1,1.9,3.2c0,.1-.1.6-.1.7.1,1.7-.2,3.6.8,5l-.3.4.3.8h.6l.2.2c0,.5-1.2,1.2-1.5,1.4a15,15,0,0,0,2.4-.4c.7.2,1.6.4,2.3.6.9.4,1.5,4.5,3.6,4a9.82,9.82,0,0,0,1.8.8l.3.5a2.49,2.49,0,0,1,1.7.3h.3a13.9,13.9,0,0,0,2.8,1.2,9,9,0,0,1,1.6.3s.5.3.5.4a3,3,0,0,1,1.8-.2c.1.2.7.9,1,.9l.3-.4a4.33,4.33,0,0,1,.5.1c.5.3.9.7,1.4,1a16.27,16.27,0,0,1,2.3,1.1,7.69,7.69,0,0,1,1.2,1.3c1.3.8,2.9.8,4,1.7,1.4,1,3.9,3.5,5.7,4.1a7,7,0,0,1,1.4.3,24.77,24.77,0,0,1,7.7,4.4,4.35,4.35,0,0,1,.4.7c.4-.1,1.8.8,2.2,1l.1.2-.3.1-1-.4c-.1.2,0,.5.1.5a12.09,12.09,0,0,0,1.6,1.6c.4.3,1,.3,1.4.5a23.24,23.24,0,0,1,3.1,1.9l.1.3-.5,1.1.2.3.5-.3.1-.7h.4c3.3,3,4.1,2.6,7.9,4.1.1,0,.5.1.6.1a3.92,3.92,0,0,1,.8,1.4,4.64,4.64,0,0,0,2.8,1.1c.1.5,0,2.3.3,2.5l.7.3.2.3a10.31,10.31,0,0,0,1.8,2.8c.3.3.7.5,1,.8s.6,1,1,1.5c1.1.1,1.7,1.4,3.4,1.4l.2.3a1.8,1.8,0,0,1,1.2-.3,3.88,3.88,0,0,1,1.1.6.76.76,0,0,1,.4.1,6.61,6.61,0,0,1,1.5.5,23.47,23.47,0,0,1,4,.9c.1,0,.5.5.6.6a9.15,9.15,0,0,0,1.7.9c.5,1.1,2.4,1.6,3.5,1.4l.2.2c.6,4.4,5.1,7.7,8,10.6a6.67,6.67,0,0,0,1.3,1.5,1.39,1.39,0,0,1,1-.5l.2.2a11.48,11.48,0,0,0,1.4,2.7,11,11,0,0,0,1.8,1.4,11.5,11.5,0,0,0,1.7.6c.8.4,1.3,1.3,2.1,1.7a6.89,6.89,0,0,0,.8.3l.2.2h.3c.6.7.3,2,.1,2.7a19.81,19.81,0,0,0-.3,4.3,10.41,10.41,0,0,1,.6,1.6c.2.8.3,2.6-.3,3.3l-.6.4-.2.6c.5.5-.2,2.2-.3,2.9a7,7,0,0,0-2,2.2l1.3,1,.8-.6c1,.2,3.9-1.6,4.7-2.1a2.1,2.1,0,0,1,1.1.4l1.9,2.3c2.6,3.1.9,3.7,1.3,7.1a22.68,22.68,0,0,0,.6,2.5,9.29,9.29,0,0,1,.5,1,17.42,17.42,0,0,0,.5,2.2,11,11,0,0,1,.9,1.4,11.94,11.94,0,0,0,.8,1.6l.1-.3,1-.3-.2-.3c-1.6-5.1-2.6-7.8-.1-12.6.3-.6,1.2-1.9,1.9-2s1.3-.3,1.8-.4c1-.1,3.3.3,3.6,1.4a24.44,24.44,0,0,0,.8,3.4c.5.6,1.2,1.1,1.7,1.8a7.58,7.58,0,0,1,.6,1.6,17.83,17.83,0,0,0,2.3,3.3c1.9.3,2.8,2.4,3.4,4,.2.4-.1.8-.1,1.3h0a15,15,0,0,1-.8,3.4,8.63,8.63,0,0,0-.6,4.1c0,1,.1,4,.1,4.8s1.4,3.5,1.6,4.1.9,4.1,1.9,6a8.52,8.52,0,0,1,.4,6,11.75,11.75,0,0,0-.8,4.1,5.39,5.39,0,0,1-.5,2.9,7.17,7.17,0,0,0-.5,4,3.15,3.15,0,0,1-.8,2.6c-.5.5-.9,3.5-.9,4.1s-.8,4.9-.8,4.9l-2,3.3a29.1,29.1,0,0,0,0,3c.1.8,0,1.3.5,1.4s6.3,1.8,6.3,1.8,2,0,2.9-.1,1.4,1.4,1.6,2.1a2.34,2.34,0,0,1-.9,2.3c-.8.6-.4,1.8-.1,2.6s2,1.3,2.8,1.5.9,1.1.1,2,0,1.3.5,2.1-.5,1.3-1.6,1.4C489.3,387.5,488.4,391.1,488.7,391.6Z" transform="translate(-268.94 -162.05)"/></g></svg>