<svg id="Layer_1" data-name="Layer 1" xmlns="http://www.w3.org/2000/svg" viewBox="0 0 334.12 274.34"><defs><style>.cls-1{fill:#fefee9;stroke:#0978ab;stroke-linejoin:round;stroke-width:1.42px;fill-rule:evenodd;}</style></defs><title>Sumatera Selatan</title><g id="Sumatera_Selatan" data-name="Sumatera Selatan"><path class="cls-1" d="M957.6,788.2c-1.3,3-3.4,3.2-5.8,4.9h-.7a4,4,0,0,1-1.8,1l-.4.5c-.4-.5-1.7-2-1.7-2.5l-.6-.2c-.1.3,1.6,2.6,1.9,3a5,5,0,0,0-1.5,1.4l-.5.1a23.2,23.2,0,0,0-1.6,1.8l-.5.2c-.5.8-1.2,1.6-1.6,2.4s-.3,1.5-1,2.2h-1.3l-1-.6a4.65,4.65,0,0,1,1.3,2.1,7.48,7.48,0,0,1-.9,2c-.4.9-.6,2-.9,2.9l-.4.3-1.6,5.5c-.1.3-.3.6-.4.9s0,.6-.1.9c-.2.9-.4,1.9-.6,2.8-.1.3-.3.6-.4.9a3.26,3.26,0,0,0,0,1.7,16.15,16.15,0,0,0,.2,3.1,20.83,20.83,0,0,0,0,2.5l.6,1.3c.2.3,1.6,1.2,2.1,1.8a3.55,3.55,0,0,0,.2,1l.4.2.3-.1v-.5l.2-.2c.8,0,5.4,2,5.8,3a11.07,11.07,0,0,0,1.8,3.2c.4.7-.6,2-.3,2.5l-1.3,1.8v.6a10.53,10.53,0,0,1-1.3,2.6c-.2.2-.5.4-.6.7-.5.6-1.9,3.9-2.6,4a2.13,2.13,0,0,0,0,.8l-.2.3c-.3.5-.7,1-.9,1.4s-.3,1.4-.8,1.7c0,.1-.4,1.7-.4,1.9-.7,1.9-1.3,2.7-1.1,4.6a6.46,6.46,0,0,0,0,2.4l-1.1.8a.85.85,0,0,1-.5-.3h0a5.55,5.55,0,0,0-.6-.8h0a3.48,3.48,0,0,0-2.1-1.5c-1.5-.4-1.6-.4-1.3.7s-.2,1.6-1.8,1.6-1.8.2-3.1-.5-1.3-.7-.4-1.8-.9-2.6-.9-2.6-.6-.9-1.7.2-1.1.5-1.6-.4a2.28,2.28,0,0,1,.2-2.7c.7-1.1-2.2-.2-3.6.2s0-2.2.9-3.1.5-1.6-.4-2.5a3.75,3.75,0,0,1-.9-3.6c.4-1.1-.9-2.2-2.2-1.3s-2-.4-1.3-1.5-1.3-2.7-2.5-1.6-1.6-1.8-.9-3.4-3.1-1.1-3.1-1.1a13.84,13.84,0,0,0-3.6-.8c-1.3,0-.9-1.3-.4-2.7s-.9-1.3-2-1.6-2.6.9-4,1.6-1.6-.4-1.8-3.1-1.1-2.2-2-1.6a3.74,3.74,0,0,0-1.3,2.9,3.85,3.85,0,0,1-1.4,2.9c-.9.7-.2,2.4-.2,2.4v2.5l-1.8,2.5s-2,1.8-2.5.7-1.6-.9-2.6-.9-2.9,1.3-2.9,2.3-.2,1.9-1.3,1.9-.9,2.7-.9,2.7-1.6,3.6-1.3,4.9-.5,2-1.5,1.8-2,1.1-2,1.1-2,3.1-2,4-1.3,2-2.2,3.1-1.1,1.6-4.2,1.3-3.4,2-4.5,2-4.2,2.4-4.2,2.4-1.8,2-3.4,2-3.5,2.2-4.4,1.3-2.2-.7-3.4-.7h-5.3a5.11,5.11,0,0,1-2.9-.9c-1.1-.7-2.9,0-2.9,0a25.13,25.13,0,0,1-3.6,1.3c-1.1.2-4.4,3.4-4.4,3.4s-2.2,1.5-3.4,1.3-2.8,1.3-2.8,1.3a3.31,3.31,0,0,1-2.7,1.6c-1.8,0-2.7,2.2-2.7,2.2a33.3,33.3,0,0,1-2.4,4.9c-1,1.3-.9,3.8-.9,4.7a47.09,47.09,0,0,0,1.1,5.1l-.2,4s-.7,3.1-2,4.3-1.3,3.4-1.3,3.4l1.1,2.6.9,2.3,2.8,2.5,1.1,3.7a30.44,30.44,0,0,1-1.8,3.1c-.9,1.4-2.4,2.2-3.1,1.4s-3.6,0-3.6,0-2,.6-2.6-.7-1.6-.9-2.9-.9-1.1,2.8-1.1,2.8l-2.7,2a21.76,21.76,0,0,1-2.9-.2,6.12,6.12,0,0,1-3.8-1.4,2.54,2.54,0,0,0-3.3.2s-3.4.2-4.5.2a7.79,7.79,0,0,1-2.9-1.1s-2.7-.8-4.3-1.5-1.8-.7-2-1.6a4.42,4.42,0,0,0-2.2-2.7c-1-.5-1.1-1.1-1.6-2.2s-1.3-.7-2.7-.5-2-1.3-2-1.3l-1.5-2.9L762,912l-3.4.2s1.4-1.1,2.2-1.8.7-1.1.2-2.6-2.9-5.4-4-5.8-.9-.5-2-1.7-2.5-.9-3.6-.7a15.71,15.71,0,0,1-4.9-.5,20.88,20.88,0,0,0-3.6,0l-1.6-1.1a23.23,23.23,0,0,0-1.9-3.4c-.9-1.1,0-3.8.9-4.9s-.7-2.2-.7-2.2a14.84,14.84,0,0,0-2.7-2.4c-1.4-.8-.9-2.7-.9-3.8s1.6-2,1.6-2l1.8-1.1a25.79,25.79,0,0,0-4.7-.9,24.78,24.78,0,0,1-4-.6s-2.5-1.4-2.9-2.7-1.1-1.1-2-1.1a13.29,13.29,0,0,1-4-.9c-1.1-.5-3.1-.7-4.6-1.8a9.65,9.65,0,0,0-5.2-1.5,18.33,18.33,0,0,1-4.4-1.3l-2.7-2.2a37.18,37.18,0,0,1-3.7-1.6,13.76,13.76,0,0,1-3.6-2.5c-.7-.9-1.6-2-1.3-3.1s.4-3.8,1.1-5.1,0-2-1.1-3.4-2.5,0-2.5,0l-1.5,1.1-2.2-.5s-2-.9-3.1-1.3-2.2-.4-2.4-2.2-2.9-3.3-3.8-3.7-1.6-2-3.1-2.7-1.3-1.6-1.9-2.7-.5-1-2.9-2-2.2-1.3-1.1-1.8,5.6-2.9,5.6-2.9l2.6-1.6a9.34,9.34,0,0,0,1.1-3.7c0-1.8,2.5-3.4,4.3-4s1-2.4,1-3.3a22.88,22.88,0,0,0-.2-4.9c-.4-2.9,2.5-.4,3.6.2s2.9,3.1,4.2,4.9,2,.7,2,.7,2.7-4.9,3.8-5.6a6.8,6.8,0,0,0,1.9-2.6s1.6-8,1.6-8.9.4-2.7-.9-3.4-5.3.2-6.4.9-2.9-.2-2.9-1.3a18.72,18.72,0,0,0-.2-2.4h-4.3c-1.6,0-2-.7-2.5-2.7s-2.8-1.1-4-.2a7.47,7.47,0,0,1-4.5,1.3c-1.6,0-1.7,1.1-2.8,2.7s-4.3.8-4.7,0-4-3.1-4-3.1-3.5-2.7-4.2-3.3a3.46,3.46,0,0,1-.8-2.4c.1-.5.9-1.3-.4-2.4s-.1-3.8-.1-3.8l-.4-4.4-1.5-1.3a4.25,4.25,0,0,0-.8-1.8c-.5-.4-4-1.9-4.8-2.3a4.66,4.66,0,0,0-2.5.1s-2.9,1.3-3.5,1.5-1.9-.4-2.4-1.3-1.9-1-3.1-1-1.6-2.1-1.6-2.1l-1.1-1.8a14.73,14.73,0,0,1-.6-3.9c0-2-2.1-1.8-2.9-2.4s-3.4-2.1-4-2.6a4.5,4.5,0,0,1-1-1.4l-.1-2.6s-1.6-2-3.1-2.4a3.4,3.4,0,0,1-2.3-2.8h0s2.1,0,2.5-.5.9-2.4,2.4-3,5-2.5,5.8-2.4a15.12,15.12,0,0,0,3.3-.6s.6-1.6.3-2.3,0-2.1.9-3,.6-1.1,2.1-.9a4,4,0,0,1,2.3,1.1c.5.4,2.6,1.8,3.4,1.1a1.86,1.86,0,0,1,2.6.5,9.1,9.1,0,0,0,1.4,1.8,24.92,24.92,0,0,0,3.5,1.6,52.44,52.44,0,0,0,5.4.6c.8.1,1-.4,1.5-.9a4.24,4.24,0,0,1,3-1.4,7.39,7.39,0,0,1,3,.8s2.9-1,2.5-1.8a4.5,4.5,0,0,1-.3-2l1.8-1.9a4.82,4.82,0,0,1,1.5-.4c.6,0,1.5,0,1.9-.5s1.5-1.6,2-1.6,1-.6,1.3-1.1-.3-1.6.9-.6,1.8.8,2.3.5,2.4-1.5,2.9-1.9.5-1.8.5-1.8,1.6-1.3,1.6-1.9a10.13,10.13,0,0,1,1.5-3.4c.5-.6,2.3-2.5,2.8-3s1.3-1.5.5-2.3a12.19,12.19,0,0,0-1.8-1.6c-.6-.5-.5-1,.5-2.3a28.29,28.29,0,0,0,1.9-2.9s2.4-.3,2.8.3-.5.5,2.5.5,4,.6,4.9,1.3a2.7,2.7,0,0,0,2.3.6c.6-.1.5-1,.1-1.5s-.3-1.1.8-1.1,2.5.8,2.6,1.5.8.9,2.4,1,2.4,1.1,3.1.4a7.14,7.14,0,0,1,2.6-1.5c.5-.1,1.9-1,2.4-1.1s.5-.9.5-1.8.3-2.8-.6-3.4-2.4-1.3-2.4-2.3a3.46,3.46,0,0,1,.5-2.1c.4-.8,2.4-2.9,2.9-2.9s.5-.4.6-1.3a1.78,1.78,0,0,1,2.1-1.6c1.1.3,2.1.4,2.6,1.3s1.5,3.4,1.5,3.4a3.52,3.52,0,0,1,.1,1.9c-.3.6.6,1.5,1.5,1.6s1.3.3,1.4,1.1.8,1.3,1.5,2,3.9,3.3,4.5,4.4,2.3,1.8,3.1,2.3,1.6.1,1.4-1a5.07,5.07,0,0,1-.3-2.6c.2-.7.3-6-.1-6.8s-.5-4.3,1.3-4.1a16.06,16.06,0,0,0,3.9-.4,39.42,39.42,0,0,0,3.6-2.3c.5-.5.4-1-.5-1.4a5.18,5.18,0,0,1-2.6-3c-.2-1.2,1.4-2.4,2.4-3.1a3.24,3.24,0,0,0,1.1-2.6c0-.5-.4-3.1-1-3.3s-8-4.5-8.5-4.9-.3-1,.3-1.8.4-1.8,1.6-2,3.3-1.8,3.8-2.1a18.44,18.44,0,0,0,2.3-2.5,8.39,8.39,0,0,1,4.4-1.8l5.1.5a23.07,23.07,0,0,1,4.3-.9c1.3,0,7.1.3,7.9.3s3,.4,3.3-1.4a3.3,3.3,0,0,1,2.8-3c1.3-.1,3-.1,3.5.3s2.5,1.9,2.5,1.9l8.5.1c.6,0,2.9.9,3.9.9a24.74,24.74,0,0,0,5.3-1c1-.4,3.6-2.1,4.3-2.3a4.2,4.2,0,0,1,3.4-.3,4.7,4.7,0,0,0,3.8-.5s3.4-.4,4.1-.4,1.6-.9,1.4-1.5a8.14,8.14,0,0,1,0-4.1,5.17,5.17,0,0,1,2.3-1.8c.8-.1,2.1-.6,3.1-.1s3.4,1.3,3.4,1.3l2.2,1.2h0c.2.3.5.6.8,1,.4.6,2.1,2.9,2.1,3.6.3.4,0,1.1.5,1.5a4.68,4.68,0,0,1-.2,1.7c-.1.6.2.8.2,1a4.65,4.65,0,0,1-.6,2.3l-.8.5-1.4-.1c0,1-1.9,1.8-2,3.2l-1,.7a1.93,1.93,0,0,0,0,1.3l.6.6v.6l.1.3a7.84,7.84,0,0,1-.5,1.4l-.6.1L823,679c.3.3-.5,1.6.7,2.7a3.05,3.05,0,0,0-.1-1.9,1,1,0,0,1,.4-.7,3,3,0,0,1,1.3.5,5.22,5.22,0,0,1,.7,2.1l-.2.2a4.75,4.75,0,0,0,.9,1.9l.4.1c0-1.1-1.6-2.3-.1-3.6a1.28,1.28,0,0,1,1.2.2,2.23,2.23,0,0,1,.3,1.4l.4-.2-.2-.3.3-1.2h-.3l-.3-.2v-.3l.9-1-.9.3-.3-.1c0-.6,1.5-2.6,1.6-4.1l.2-.2c.5-.2,2.2.5,2.7.8a11.41,11.41,0,0,0,1.1,1.1l3.2,1.6a2,2,0,0,1,1.2,1.6c-.3,1.5-.4.8-1.3,1.5-.5.4-1,1.2-1.5,1.7a2.9,2.9,0,0,1,.5,1.8c-.1.2-.6.4-.7.5l-.1.9-.5.5,1,.1c.6-.9,1.3-1.9,1.8-2.8a3.3,3.3,0,0,1,2.4-.2l1.1,1.8a16.86,16.86,0,0,0,.1,3.2,10,10,0,0,0,.8-1.4l1.4-.3a2.33,2.33,0,0,1,.8-1.2h.2a6.34,6.34,0,0,0,2.4-.3c.5-.1,1,.2,1.4.2.8,0,1.3-.3,2.1-.1.5.3.8.5,1.2.2a1.93,1.93,0,0,0,1,.3c.6.8,1.6,1.1,2.3,1.7s.6,1.1.9,1.7c.1.2.4.4.5.6.4.6.6,1.4,1,2v.4c.3.9.9,2.7.4,3.5l.7,1.5-.2,1.1.3.3c.2,1,0,.9-.3,1.7a8.8,8.8,0,0,1-.5,1.5,17.41,17.41,0,0,0-1.8,2.2c-.2.5-.3,1.3-.7,1.6a40.79,40.79,0,0,1-4.4,4c-1.5,1-2.8,1.6-3.3,3.4-.3.9-.4,2.1-1.2,2.8-.5.1-1.8-1.2-2.7-1.3-1.3-.1-2.3.7-3.5.6l-.3.4.1.4a3.67,3.67,0,0,1-1.7,1,1.49,1.49,0,0,1-.4.9c1.4.3,3.1-1,4.2-1.6a8.53,8.53,0,0,1,2.9,1.4c.4.3.4,3.2.5,3.8l-.1.2a16.55,16.55,0,0,1,.6,2.1c.1,1.5-1.4,3.3-1.4,4.9,0,1.2.2,2.5.2,3.7,0,.1.2.6.2.7a4.8,4.8,0,0,1,0,1.2l.8.6c.6-.8.7-4,.9-5.1a30.22,30.22,0,0,0,1.1-6c0-1-.1-2.1-.1-3.1,0-.3-.2-.4,0-.8l1-.7c2.3-1.4,4.7-3.2,5.9-5.5a8.68,8.68,0,0,0,.5-2.8,1.42,1.42,0,0,1,.2-.6l.6-.4c1.3.4,2-.6,3.1.4a2.54,2.54,0,0,1,1.5.3c1.1,1.1-.5,3.7-.2,5.2l.5-.8c.6-.2,1.2-.7,1.7-.8a10.93,10.93,0,0,1,1.7-.5,11.3,11.3,0,0,1,4.8.8,23.07,23.07,0,0,1,1.9,1.4,5.9,5.9,0,0,0,.4.8,22.68,22.68,0,0,1,3.5-.5,12.86,12.86,0,0,1,1.9.4l.3.2a15.08,15.08,0,0,0,4.6-1.3c1-.5,3.5-2.2,4.7-1.8.4.2.6.6,1,.8,4.9,2.8,4.5,1.8,9.7,2.9a12.75,12.75,0,0,1,2,.1c.8.1,1.6.5,2.5.6a15.48,15.48,0,0,0,2.1.1c.3,0,.8-.3,1.2-.2s.9.4,1.4.2l.9.5a21.86,21.86,0,0,1,5.1.3l.2.2c.5-.1,1.2,0,1.4.5a1,1,0,0,1-.5.4c-.4-.1-1.9.1-1.9.7,1.5-.1,4.4.1,5.3-1.5l1-.4.5-.6.5.1.6.8c-.1,1.2.5,1.5.6,2.2l-.2.3c.3.9-.9,3.6-1.2,4.5s-.3,1.7-.6,2.5c.2.5-.2.8-.1,1.2.2,1.6.1,3.6.7,5.1.8,2.3,2.5,5.3,4.8,6.5.9.5,2,.8,2.9,1.2a2.15,2.15,0,0,0,1.1.2c.6-.1.9.2,1.3.3a4.72,4.72,0,0,0,3.1-.6l.6.3c.8,1,1.3,4.6,1,5.8l.1.2-.1.4c.7,1.5-1,3.5-.5,4.4a12.3,12.3,0,0,0,.2,2.8c0,.1-.1.3,0,.4a10.6,10.6,0,0,0,1,3,.22.22,0,0,0,.2.2,15.45,15.45,0,0,0,6.5,5.1,3.46,3.46,0,0,0,2.5-.2c1.9,0,2.3.6,3.8-1.1h.3c.3.3,1.2,1.4,1.6,1.5,1.7.7,5.9,1.3,6.4,3.5-.4,1.4,0,1.1.2,2.4.2,1,.3,2.1.5,3.1.2,1.2-.9,2.3-.9,3.4a12.25,12.25,0,0,0,.2,1.9,12.66,12.66,0,0,0,1.3,3.2A28.79,28.79,0,0,1,957.6,788.2Z" transform="translate(-624.19 -654.47)"/></g></svg>