<svg id="Layer_1" data-name="Layer 1" xmlns="http://www.w3.org/2000/svg" viewBox="0 0 224.89 282.42"><defs><style>.cls-1{fill:#fefee9;stroke:#0978ab;stroke-linejoin:round;stroke-width:1.42px;fill-rule:evenodd;}</style></defs><title>Sumatera Barat</title><g id="SUmatera_Barat" data-name="SUmatera Barat"><path class="cls-1" d="M609,615.3a3.88,3.88,0,0,0-.6,2.6s-2.1,2.1-2.8,2.6a3.12,3.12,0,0,1-2,.6,3.44,3.44,0,0,0-2,.4,4.45,4.45,0,0,1-2.6,1c-1.1,0-2.6,1-2.6,1.6s-1.5,2-1.5,2l-.4,1.9a24.45,24.45,0,0,0,1.6,3.9c.8,1.1-.3,3.4-1,3.6s-.6,1-.3,1.6.5.9,1.5,1,.6,1.8-.1,2.1-1,2-1.3,2.6a9.74,9.74,0,0,1-1.5,2.4,6.72,6.72,0,0,1-2.8,1c-.6,0-1.4,1-1.9,1.8a7.43,7.43,0,0,1-3.3,2.1c-.6.1-2.4,2.4-4,3.3s-2.9,3.9-3.3,5.4-1.3,1.5-2.4,1.5-3.4,0-4.1-.9-1.3-.3-2.5.3-4.1,0-4.5.5-2.6.5-3.8.5a9,9,0,0,0-3.8,1,2.24,2.24,0,0,1-3.4-1.4c-.6-1.6-1.6-1.3-1.9-.5s-.8,1.8-2.5.4-2.4,1.6-2.4,2.8,1.1,13.8,1.1,13.8l3,5a43.94,43.94,0,0,0,3.6,4.6,7.08,7.08,0,0,0,2.5,1.4s2.8,7,3.1,8.1a65.47,65.47,0,0,1,1.9,7.4c.3,1.9-.9,6.1-.9,6.1s-2.4,3.8-2.9,4.3a7.15,7.15,0,0,1-2.3,1,10.92,10.92,0,0,0-2.9,2.4,3.12,3.12,0,0,1-2,.8l-9.3,6.4-3.4,2.5c-.5-.6-.9-1.2-1.4-1.7-.5-.7-.7-1.8-1.1-2.3s-1.1-.8-1.5-1.3l-1.8-2.1c-.8-.8-1.8-1.6-2.6-2.4s-1.5-1.7-2.2-2.5a10.35,10.35,0,0,1-2-4.7c-.1-.6.3-1.4.2-2.1a8.87,8.87,0,0,0-1.4-2.5,33.66,33.66,0,0,0-2.9-3.7c-.7-.9-.2-2.4,0-3.3.1-.3,3.8-2.8,4.6-7.1.3-1.4-.4-3.8-.7-5.2l-.3-2.4c-.6-3.7-2.4-6.3-4.6-9.2a27.35,27.35,0,0,0-2.7-2.5c-.9-1.2-2-4-2.9-5.5-.3-.4-.7-.8-1-1.2a24.76,24.76,0,0,0-2.8-3.6.76.76,0,0,0-.2-.5,13.23,13.23,0,0,0-4.3-5.1c-.7-1.2-.2-2.3-.8-3.4,0-.4-.1-2.2-.1-2.3-.3-1-1.2-1.5-1.2-2.8,0-.7.6-1.3.2-2l-.2-.3-.5.2-.3-.3-.9.1a10.42,10.42,0,0,0-1-1.8c-.1-.1-.6-.4-.7-.5-.4-.5-.5-1.4-1.1-1.7l.2-.5c.7,0,1.5-1.4,1.3-1.7l-.2-.2-.4.3-.5-.4-.5.1-.3-.8.3-.4c.7-.3,1.5-.2,2.2-.5v-.3l-.4-.5-.4-.1-.1-.7-.3-.3-.8.4-.3-.6c.1-.2.7-.3.9-.3v-.7l-.1-.2-.5-.2-.2-.4.4-.7a4,4,0,0,0-2.2-2.4,1.64,1.64,0,0,0-1,.2l-.5-.3c-1,.2-1.4-.2-2.2-.7-.1-.1-.6-.3-.7-.4-.5-.5-2.1-3-2.9-2.9-.7.6-1.7.6-2.3,1.4l-.1-.2.1-.3-.3-.4-.3.1-.4.4-.4-.3-.5.1-.3-.1-.2-.3c.3-.3,1-.8,1.1-1.2l-.4-.5.1-.4.2-.2c.4-.2.8,0,1.2.1.2.1.2.6.2.7l.5.5h.3l.4-.9-.2-.4.4-.4v-.3l-.2-.3h-.5l-.5-.5.7-.4c.1-.3-.2-.8-.4-1,0-.2.2-.5.4-.5a.66.66,0,0,0-.5-.4c-.4.2-.9.3-1.2-.1l-.6-.1-.4-.5.1-.4-.2-.3h-1.1l-.3-.5.1-.2a1.49,1.49,0,0,0-.4-.9,1.23,1.23,0,0,0,.4-.8l-.1-.4-.3-.1-.4.5a1.72,1.72,0,0,0-1.5,1.2l-.3-.1c.2-1,1.3-1.8,1.1-2.8l-.2-.3.1-.4,1-.2.5.2.3-.1a2.54,2.54,0,0,0-.2-1.2l-.6-.5-.8-2.3.1-.2.5-.2.6-.7.3.1.3.3.1.7h.3l.5-.8.4.3.2-.1.3.2.3-.1-.3-.5.3-.5-.3-.6.3-.7a2.66,2.66,0,0,0-1.1-1h-.3a7.63,7.63,0,0,1-.8,1.1c-.2-.1-.6-.5-.6-.7a4.17,4.17,0,0,0,.8-1.8l-.3-.7.1-.4-.3-.6-.6.1c-.1.2-.6.7-.8.7l-.2-.2v-1c-.6-.6-.6-1.5-1.3-2.1a7.3,7.3,0,0,0-.5-4.8c1-1.6-1.7-5.3-2.8-6.2a6.07,6.07,0,0,1-1-.7,1.49,1.49,0,0,0-.3-.7l-.1-.4-.6-.4c-.8-2.1-2.7-3.3-4.3-4.8-.5-.5-.9-1.2-1.4-1.6-1.7-1.4-3.5-2.7-5-4.2-.6-.6-1-1.3-1.6-1.9l-1-1.1c-.8-1.3-1.1-3-1.8-4.4-.2-.4-.5-.7-.7-1.1a4.51,4.51,0,0,1-.3-1.1,12.86,12.86,0,0,0-1.9-2.1c-.2-.2-.3-.6-.5-.8a17.11,17.11,0,0,0-1.8-2c-1.6-1.5-3.4-2.8-5-4.2-1.1-1-3.5-4.2-5.1-3.8a1.39,1.39,0,0,1,0-.9c-.5-2.2-3-3.7-4.7-4.9a15.94,15.94,0,0,0-2.1-1.5c-.7-.4-1.3-.4-1.8-1.1a3.51,3.51,0,0,0-.6-1.6,3.13,3.13,0,0,0-.2-1.9c.8-1.4,0-1.1.3-2.2-1.1-2.4-3.4-4.4-4.1-7l.2-.3-.4-.6a4.18,4.18,0,0,1,1.1-1.5l-.1-.3.1-.2.3-.1.1-.4a10.17,10.17,0,0,0-2.2-5c-2-3.1-3.8-2.7-4.4-3.4-1.3-1.8.1-1.7-2.7-3.9-.6-.5-2.4-1.2-2.7-1.9-.8-.2-4.9-2.2-5.3-2.8l-.1.3-1.2-.5-.2-.7-.2-.2h-.3l-.1.5-.2.1c-.1-.1-.9-.8-.9-.8-2.3-.9-7-3.1-9.8-2.7a2.27,2.27,0,0,1-.9-2.9l-.2-.2-.5.1c-.3-.1-.8-.3-.9-.6v-.4l.3-.4v-.2c-.3-.9-1.2-.6-1.4-1l-.1-.3.2-.6-.2-.3a11.07,11.07,0,0,0-4.4-.5l-.9.6h-.2l-.4-.6-.1.4a2,2,0,0,1-1.5,1.2l-.2.9-.2.1a6.53,6.53,0,0,0-1.7-.8,1.23,1.23,0,0,1-.4.8l-.2-.6h-.2l-.6.3c-.4.1-1.2-.4-1.5-.6l-.6-1.2-.6-.4-.1-.3.1-.4-.1-.3-.2-.2h-.1a46,46,0,0,1,3-4.6c.8-.8,2.3-2.5,3.1-2.5s2.6-.4,3.6-.4,3.1-.8,3.1-1.5a3.78,3.78,0,0,1,1.4-2.5c.8-.6.9-2.5,1.1-3s2-3.5,2.9-3.8a12,12,0,0,0,2.3-1.3s2.8-2.6,3.3-3,1.9-2,1.9-2,1.4-1.1,1.8-.3a6,6,0,0,0,1.6,1.8l5.5.5s1.9-1,2.1-1.5a1,1,0,0,1,1.5-.5c.6.4,1.9,1.4,1.9,1.4l-.5,1.4,1.9,1.1-.5,2.1,4,1.4a2.64,2.64,0,0,0,1.5-.6,3.88,3.88,0,0,1,2.5-1.1c.9,0,2.4.1,2.4.1l3,1.4a6.37,6.37,0,0,1,2.1-.5,26,26,0,0,0,3.6-.4s2.8-3.3,3.5-3.6a1.57,1.57,0,0,0,1-1.6c0-.7.3-2.6-.3-3a40,40,0,0,1-2.6-3.3,11.46,11.46,0,0,1-.5-2.6c0-1,0-3.3-.9-3.4l-4.6-.5a14.55,14.55,0,0,1-1.5-2c-.2-.5-1.1-2.9-.1-3.5s1.4-1.5,1.1-2.1.1-2.9-.3-3.6-.1-1.3-.4-2.1a19.1,19.1,0,0,1-.5-2.9l2.9-2,2.5.9a13.61,13.61,0,0,1,3.1.3,3.52,3.52,0,0,1,2,1.4c.4.8.9,1.9,2,2.1a28.32,28.32,0,0,1,3.5,1.5,11.53,11.53,0,0,1,2.4,2s5.5,1.5,6.5,2.3a12.94,12.94,0,0,0,3,1.5l1.8.3a7.58,7.58,0,0,1,3.3-.4l1.6.5a4.17,4.17,0,0,1,.5,1.4,20.58,20.58,0,0,1-.3,2.1l-1.8,2.4a33.78,33.78,0,0,1-3,3.5c-.7.5-.4,1.6-.4,1.6l.9,2a12.61,12.61,0,0,0,2.8,1.4c1.5.5.6,1.8-.5,2.4s-.1,1.8.6,2.1.6,1.8.5,2.4-.3.9-.5,2.1,1.3,2.5,1.8,2.6.8.5,1.3.9a20.5,20.5,0,0,1,1.9,1.5,5.34,5.34,0,0,1,1.1,2.1c.3.6,1,.3,1.6,0a13.83,13.83,0,0,1,2.8-.5l1.3-1a24,24,0,0,1,2.3-2.3c.6-.5,1-.4,2.1-.4a4.21,4.21,0,0,1,2,.4c.9.3.4,1.5.3,2.3s.4,1.9.4,2.8a4.3,4.3,0,0,0,.5,1.8,17.72,17.72,0,0,0,1.9,2.6,3,3,0,0,0,2.1.4,2.26,2.26,0,0,1,2,.9c.4.6,1,.6,2,.6s1.4.1,1.8.6a6.6,6.6,0,0,1,1.1,2.6,2.55,2.55,0,0,0,.6,1.3l1.5,1.9a16.42,16.42,0,0,1,2.1,2.3c.5.9,3.4,0,3.4,0s1.1-1,1.6-1.4a6.25,6.25,0,0,1,2.1-1.3c.9-.1,1.5-.3,1.8-.9s1-.5,2.4-.5.9,1.1,1.3,1.8a4.75,4.75,0,0,1,.6,2.4c0,.8-1.3,1.8-1.9,2s-.9,1.5-1.4,2.9a2.59,2.59,0,0,0,.3,2.4s2,.5,2.5.6.9,1.3,1.1,1.9,1.5,1.8,2,2.5-.1,2.6-.8,3.3a10.16,10.16,0,0,0-1.4,1.9c-.3.5-1.8,1.1-3.8-.1s-1.8.4-2.8,1,.3,2,.3,3.5a10.59,10.59,0,0,0,.6,3.9c.5,1.5.3,2.9,1,4a4.14,4.14,0,0,1,.8,3.3c-.1,1.5,0,2,.9,2.6s1.4.8,1.6,1.8-.1,1.3,1.3,1.6,1.9,1,1.8,2.4.1,2.9,1.5,2.9A4,4,0,0,1,529,551c.9,1.3,2.4,1.8,2.4-.9s1-2.5,1.5-2.5a12,12,0,0,0,2.5.3,4.31,4.31,0,0,1,3.6,1c1.3,1.1,3,3.3,1.6,4.1s-1.3,1.4-.6,2.4a7.12,7.12,0,0,1,.6,2.9c.1.6,1.9,3.5,2.1,4s.1.8,1.8.8,2.3.1,2.9,1,.5.8,1.8,1a5.4,5.4,0,0,1,3,2.1c.4.6.9,2.1,1.9,2.1a5.72,5.72,0,0,1,3.6,2.5c.7,1.2.6,1.4,2,1.4s2-.4,2.8.5,1.8,2,3,2,2.5.1,1.5.9-.5,2.3,1,2.4,3.5,1.6,2.8,2.6-.5,1,.5,1,1.4.6,2.4,1.4a16.9,16.9,0,0,0,3.1,2.1,4.53,4.53,0,0,1,1.5,1.8c.4.6,1.3.3,2.5.6s2,.5,2.6,1.5a2.77,2.77,0,0,0,2,1.1,7.8,7.8,0,0,1,2.1,2.1c.5,1,3.3,3.6,3.5,4.3a6,6,0,0,0,4,2.3c2.1.3,3.3-.3,3.5.6s.8.9,1.6.9a14.42,14.42,0,0,0,2.1,0,1.37,1.37,0,0,1,1.6.4,1.88,1.88,0,0,0,.9.4v3.3s.4,1.9.6,2.4a5.25,5.25,0,0,1,0,3.3c-.5,1,1.3,1.8,2,2a2,2,0,0,0,2-.5c.8-.6.9.3.9.9C610.5,613.5,609.8,614.5,609,615.3Z" transform="translate(-386.09 -445.09)"/></g></svg>